<svg xmlns="http://www.w3.org/2000/svg" viewBox="0 0 57 48.9"><style>.st0{fill:#504166}.st1{fill:#8a959e}</style><path d="M6.9 34.6H5.5v-.4c0-.1 0-.6-.1-.9-.1-.3-.6-.5-1.2-.5-1.6 0-2.2 1.4-2.2 2.9 0 .4 0 1.2.4 1.8.6.9 1.5 1.1 2 1.1.3 0 1.3 0 2.5-.9v1.5c-.8.5-1.8.8-2.8.8C.9 40 .2 37.4.2 35.9c0-1.8.9-4.2 4-4.2 1.4 0 2.2.4 2.6.6v2.3zM8.3 34.7c.7-.4 1.5-.7 2.3-.7 2 0 2.2 1.1 2.2 2v2c0 .5.1.7.3.7.2 0 .3-.1.4-.1v1c-.6.3-1.2.3-1.4.3-.3 0-.7-.1-.9-.7-.3.2-.8.7-1.7.7-.9 0-1.8-.4-1.8-1.6 0-1.2 1-1.6 1.5-1.7.4-.1 1-.3 1.1-.3l.8-.2c0-.5 0-1.1-.9-1.1-.8 0-.8.4-.8.9v.1H8.3v-1.3zm2.9 2.3c-1.1.3-1.7.5-1.7 1.2 0 .4.3.7.7.7.2 0 .3-.1.5-.1.2-.1.5-.4.5-1.2V37zM15.8 34.2c0 .2.1.3.1.8.3-.4.7-.9 1.7-.9.6 0 1.3.2 1.6 1 .3-.7 1-1 1.8-1 .6 0 1.3.3 1.5.8.1.2.2.5.2 1.3v2.2c0 .3 0 .5.5.5h.2v.9h-2.9v-.9h.2c.3 0 .3-.2.3-.4v-1.9c0-.5 0-1.2-.7-1.2s-1 .7-1 1.4v1.5c0 .4 0 .5.4.5h.2v.9h-2.8v-.9h.2c.4 0 .4-.1.4-.4v-1.9c0-.4 0-1.1-.7-1.1-.3 0-.7.1-.9.7-.1.2-.1.7-.1.9v1.4c0 .3 0 .5.3.5h.2v.9h-2.9v-.9h.2c.5 0 .5-.1.5-.5v-2.6c0-.2 0-.5-.4-.5h-.3v-.9l2.2-.2zM25.6 31.7v3.2c.2-.2.6-.8 1.6-.8 1.8 0 2.2 1.8 2.2 2.7 0 1.2-.5 3.1-2.5 3.1-.8 0-1.3-.4-1.6-.6l-.3.6h-1v-6.5c0-.4 0-.6-.4-.6h-.3v-.9l2.3-.2zm-.1 5.4c0 .6.1 1.6 1.1 1.6 1.1 0 1.1-1.4 1.1-1.7 0-.7-.2-1.6-1-1.6-1.2 0-1.2 1.4-1.2 1.7M31.8 34.2c0 .2.1.4.1.9.1-.2.6-1 1.5-1 .3 0 .5.1.7.2V36h-1c0-.2 0-.4-.3-.4-.2 0-.9.3-.9 1.9v.9c0 .3 0 .4.5.4h.3v.9h-3v-.9h.2c.4 0 .5-.1.5-.5v-2.6c0-.4-.1-.5-.4-.5h-.3v-.9l2.1-.1z" class="st0"/><path d="M36.3 38.1c0 .7 0 .7.6.7v.9h-3v-.9h.3c.4 0 .4-.1.4-.7v-2c0-.7 0-.8-.3-.8h-.4v-.9l2.4-.2v3.9zm.1-5.6c0 .6-.6.8-1 .8s-1-.2-1-.8c0-.3.2-.8 1-.8.7 0 1 .4 1 .8M42.7 38.1c0 .5.1.6.7.6v.9l-2.2.1c-.1-.3-.1-.5-.1-.8-.1.2-.5.9-1.6.9-1.9 0-2.2-1.9-2.2-2.8 0-1.8 1-3.1 2.4-3.1.2 0 .9 0 1.4.6v-1.2c0-.5 0-.7-.4-.7h-.3v-.9l2.4-.2v6.6zm-2.7.5c.4 0 1.1-.3 1.1-1.7 0-1.3-.6-1.6-1.1-1.6-.8 0-1 .8-1 1.7 0 .2 0 1.6 1 1.6" class="st0"/><path d="M49.2 35.2h-.9c.1.2.3.5.3 1 0 .7-.4 1.2-.9 1.5-.4.3-.9.3-1.4.3-.5 0-.9 0-.9.4 0 .3.6.4.8.4h.6c1.5 0 2.4.4 2.4 1.5 0 2-2.5 2-3.1 2-1.3 0-2.8-.2-2.8-1.3 0-.9 1-1.1 1.3-1.2-.3-.1-.8-.3-.8-.9 0-.6.6-.9 1.1-1.1-.7-.2-1.2-.8-1.2-1.7 0-1.1.7-2.1 2.5-2.1.6 0 1 .1 1.1.2h1.9v1zm-4.3 5.6c0 .6 1.2.6 1.4.6.6 0 1.5-.1 1.5-.7 0-.5-.9-.5-1.5-.5-.3 0-1.4 0-1.4.6m.4-4.7c0 .5.2 1.1.8 1.1.4 0 .9-.2.9-1.2 0-.4-.1-1.2-.8-1.2-.9.1-.9 1.1-.9 1.3M51 37.2c0 .6.4 1.4 1.5 1.4.8 0 1.4-.4 1.9-.6v1.3c-.5.3-1.2.7-2.4.7-2.2 0-2.7-1.8-2.7-2.9 0-1.5.8-3.1 2.7-3.1 2.4 0 2.4 2.4 2.4 3.2H51zm2-1c0-1.2-.8-1.2-.9-1.2-.6 0-1 .5-1 1.2H53z" class="st0"/><path d="M4.3 42.7V44h-.7v-.2c0-.2-.1-.3-.3-.3h-1v1.2H3c.1 0 .1 0 .1-.2v-.2h.8v1.5h-.8v-.2c0-.1 0-.2-.1-.2h-.8v1.3h1.1c.3 0 .3-.1.3-.3v-.3h.8v1.3H.7v-.6h.2c.3 0 .3-.1.3-.3v-2.9c0-.2 0-.3-.3-.3H.7v-.6h3.6zM8.3 46.5c0 .3 0 .4.4.3v.6l-1.3.1c-.1-.2-.1-.3-.1-.5-.1.1-.3.6-1 .6-1.2 0-1.4-1.1-1.4-1.7 0-1.1.6-1.9 1.5-1.9.1 0 .5 0 .9.4v-.7c0-.3 0-.4-.3-.4h-.2v-.6l1.5-.1v3.9zm-1.7.3c.2 0 .7-.2.7-1s-.4-1-.7-1c-.5 0-.6.5-.6 1 0 .1 0 1 .6 1M10.3 44v2.1c0 .2 0 .7.4.7.6 0 .6-.7.6-.9v-.8c0-.2 0-.3-.1-.3h-.4v-.6l1.4-.1v2.5c0 .2 0 .3.2.3h.2v.6l-1.4.1c0-.2-.1-.3-.1-.5-.3.5-.8.6-1 .6-.2 0-.8-.1-1-.6-.1-.2-.1-.6-.1-.6v-1.2-.3c0-.1 0-.1-.4-.1v-.6l1.7-.3zM16.1 45.4h-.8v-.3c0-.2 0-.5-.4-.5-.6 0-.7.7-.7 1 0 .6.3 1.1.9 1.1.4 0 .7-.1 1-.3v.8c-.4.3-.8.4-1.3.4-1.4 0-1.6-1.2-1.6-1.7 0-1.4.9-1.9 1.8-1.9.1 0 .6 0 1.2.3v1.1zM16.8 44.4c.4-.3.9-.4 1.4-.4 1.2 0 1.4.7 1.4 1.2v1.2c0 .3 0 .4.2.4.1 0 .2 0 .2-.1v.6c-.4.2-.7.2-.8.2-.2 0-.4 0-.6-.4-.2.1-.5.4-1 .4-.6 0-1.1-.2-1.1-1 0-.7.6-1 .9-1 .2-.1.6-.2.7-.2l.5-.1c0-.3 0-.7-.5-.7s-.5.3-.5.5v.1h-.8v-.7zm1.8 1.4c-.7.2-1.1.3-1.1.7 0 .2.2.4.4.4.1 0 .2 0 .3-.1.1-.1.3-.2.3-.7v-.3zM21.7 43v1.1h.8v.7h-.8v1.4c0 .2 0 .5.3.5.2 0 .4-.1.5-.1v.7c-.5.2-.8.2-1 .2-.9 0-.9-.7-.9-1v-1.7h-.4v-.6c.7-.2.8-.9.8-1.2h.7zM24.2 46.5c0 .4 0 .4.4.4v.6h-1.8v-.6h.2c.3 0 .3-.1.3-.4v-1.2c0-.4 0-.5-.2-.5h-.2v-.6l1.5-.1v2.4zm.1-3.5c0 .4-.3.5-.6.5s-.6-.1-.6-.5c0-.2.1-.5.6-.5.4 0 .6.3.6.5M26.7 47.6c-1.4 0-1.7-1.2-1.7-1.7 0-.8.3-1.9 1.8-1.9 1.2 0 1.7.8 1.7 1.7 0 .9-.5 1.9-1.8 1.9m0-2.9c-.7 0-.7.9-.7 1.2 0 .1 0 1.1.7 1.1.6 0 .7-.7.7-1.2 0-.3 0-1.1-.7-1.1M30.6 47.5h-1.7v-.6c.4 0 .4 0 .4-.4v-1.2c0-.1 0-.4-.1-.5h-.4v-.6l1.4-.1c0 .2.1.3.1.5.2-.3.4-.6 1-.6.3 0 .8.1 1 .6.1.2.1.6.1.8v1.1c0 .4 0 .4.4.4v.6H31v-.6c.3 0 .3 0 .3-.4v-.9c0-.4 0-.8-.5-.8-.6 0-.6.7-.6.9v.8c0 .4 0 .4.3.4v.6zM38.3 44c0-.1 0-.3-.1-.4-.1-.2-.5-.3-.7-.3-.9 0-1.3.8-1.3 1.8s.4 1.8 1.4 1.8c.3 0 .6-.1.6-.1V46c0-.2 0-.3-.3-.3h-.2v-.6h2v.6h-.2c-.2 0-.3.1-.3.3v1.2c-.4.2-.9.4-1.7.4-.9 0-1.4-.3-1.8-.6-.5-.5-.7-1.2-.7-1.9 0-1.2.6-2.6 2.5-2.6.5 0 1.1.1 1.6.4v1.4h-.9V44zM41.3 44.1c0 .1.1.3.1.6.1-.1.4-.6.9-.6.2 0 .3.1.4.1v1H42c0-.1 0-.3-.2-.3s-.5.2-.5 1.1v.6c0 .2 0 .3.3.3h.2v.6H40v-.6h.1c.3 0 .3-.1.3-.3V45c0-.2 0-.3-.2-.3H40v-.6h1.3zM44.6 47.6c-1.4 0-1.7-1.2-1.7-1.7 0-.8.3-1.9 1.8-1.9 1.2 0 1.7.8 1.7 1.7 0 .9-.4 1.9-1.8 1.9m.1-2.9c-.7 0-.7.9-.7 1.2 0 .1 0 1.1.7 1.1.6 0 .7-.7.7-1.2 0-.3 0-1.1-.7-1.1M48.2 44v2.1c0 .2 0 .7.4.7.6 0 .6-.7.6-.9v-.8c0-.2 0-.3-.1-.3h-.4v-.6l1.4-.1v2.5c0 .2 0 .3.2.3h.2v.6l-1.4.1c0-.2-.1-.3-.1-.5-.3.5-.8.6-1 .6-.2 0-.8-.1-1-.6-.1-.2-.1-.6-.1-.6v-1.2-.3c0-.1 0-.1-.4-.1v-.6l1.7-.3zM52.2 48c0 .3 0 .3.3.3h.1v.6h-1.9v-.6h.1c.2 0 .3 0 .3-.3v-2.8c0-.4 0-.5-.1-.5h-.3v-.6l1.4-.1c0 .2.1.3.1.5.1-.2.4-.6 1-.6.9 0 1.3.8 1.3 1.7 0 .7-.3 1.9-1.5 1.9-.4 0-.7-.2-.9-.4v.9zm0-2.1c0 .6.2 1 .7 1 .6 0 .6-.9.6-1 0-.2 0-1-.6-1-.6-.1-.7.5-.7 1zM54.3 13.2c.9-.6 1.8-.8 2.3-.4-.5-1-1.3-1.2-2-1.1h-.1-.1l-.1.1c-.4.1-.7.2-1 .4l-2.7 1.1v-.1c.3-1.2 1.7-1.8 2.5-1.8-2-1.1-3.8 1-4 1.8-.1.5-.1.9-.1 1.2l-.1.4s-.4.6-1.6 1c-1 .3-1.7-1.1-3.2-2.5L41.8 11l.3.2c.3.3.6.5 1.1.9.7.4 1.6 1.2 2.1 1.3.4-.1 1.1-1.3.5-1.9.1-.4.3-.7.1-1.2-.3.3-.6.5-.7.8-.9-.3-1.5-.9-1.6-1.8.6-.1 2.2.2 3.1 1.2.8.9 1.8.9 2.4.7.6-.2 1.1-1.3.9-1.7-.2.5-.5.8-.8 1-.8.5-1.9.1-2.5-.6-.6-.6-1.6-1.6-3-1.4.1-.5.5-.9 1.2-1 1.1-.1 1.9.1 2.5.8-.1.4-.2 1-.2 1.5.3-.1.6-.6.8-.8.3.1.6 0 .8-.2.2-.1.7-1 .7-1.4-.1 0-.3-.1-.5-.2l.1-.3.6.3s.3-.1.6-.4c.2-.3.3-.6.2-.9-.2-.3-1.5-.7-1.5-.7-.4-.3-.8-.5-1.2-.7-.2-.4-.6-1-1.3-1.3-.7-.3-1.2-.6-1.6-.8-.1-.3-1-1.7-2.2-1.8-.7 0-.6-.1-.9 0 1.2.6 1.4 1.5 1.4 2-.5-.6-1.4-2-2.8-2.5-.6.7-.8 1.7-.7 2.6.1.6.6 1 1.1 1.4-.6-.2-1.2-.4-1.4-1-.2-.6-.2-1.1 0-1.6-.9.2-2.4 0-2.9-1.1-.2.3 0 1.2.3 1.8.1.1.2.3.3.4-.9-.1-2.6-.3-3.5-.4.2.6 1.6 1.1 1.6 2.2-1.5-.2-2.7-.5-2.9-.9-.3.8.5 1.6 1.5 2.2-1.1.8-2.3-.6-2.7-.7.4.6.9 1.8 1.6 2-.9.2-1.5.2-1.8-.2 0 .8.5 1.4 1 1.8-1.5-.5-2.1.3-2.9.1.7.8 1.8 1.2 2.5 1.5-1.3.5-3 1-3.3.5.1 1.9 2.9 1.5 3.8 2.3-.5.1-1.1.2-1.9.3-1.9.1-3.6-.7-3.6-.7-5.3-3.1-8.5-2.5-10.8-1.8-1 .3-2 1.4-2.6 2.2h-1.2c-1.7 0-3.3-.1-4.6-.6-1.3-.4-2.1-1.2-2.1-2.3 0-1.1.6-1.6 1.2-1.9C7.1 8 7.7 8 7.7 8c2.5 0 4.7 0 6.9.7s4.6 1.4 7.7 1.4c3.2 0 5-.9 5.9-1.9.9-1 1.1-2.2 1.1-2.6 0-.7-.2-1.7-1-2.5s-2.2-1.4-4.7-1.4c-2.4 0-4.2.3-5.4.7-.8.2-2.5-.9-2.6-1.8-.6 1.7.3 2.7 1.3 3.3.1 0 .1.1.2.2-.6-.1-1.1-.3-1.3-.7.1 2.9 3.5 2.5 4.7 2.2.5-.2.9-.3 1.2-.5.6-.2 1.1-.4 1.6-.6.8-.4 1.5-.8 2.3-.8.8 0 1.4.2 1.7.5.4.3.5.8.5 1.4 0 .3 0 1.1-.7 1.9-.7.8-2.1 1.5-4.7 1.5s-5.1-.8-7.5-1.5c-2.4-.8-4.7-.8-7-.8s-3.5.8-4.2 1.6C3.1 9 3 9.9 3 10.1c0 .2-.1 1.4 1 2.5s3.3 2.2 7.9 2.2c.1 0 .2.1.2.2v.1c-.2.4-.6 1.1-1.2 1.9-.9 1-2.2 2.1-3.7 2.1-1.1 0-1.9 0-2.5-.1-1.1-.1-2.5-1-2.5-1s-.1.2.4.9c.1.1.1.2.1.2-.3.3-1.1.3-1.1.3h-.1c-.1 0-.2.1-.2.2v.1l.3.3c.1.1.3.3.2.4-.1.1-.5 0-.5 0H1c-.1 0-.2.1-.2.2v.1l.2.2.2.1s.2.3-.1.4H.7c-.1 0-.2.1-.2.2 0 0 0 .1.1.1l.2.2s.3.5 0 1.1l-.3.5-.5.9v.1c0 .1.1.2.2.2H1.1s0 .7.3 1.6c.3.8 1 1.7 2.4 2 .2-.1.2-.1.2-.2l.1-.2.1-.4.9.2.8.1c.1 0 .2-.1.2-.1v-.6c1 .2 1.7.4 1.6 1 .8-1.3-.6-2-1.1-2.2-.2-.1-.5-.3-.8-.5-.8-.5-1.6-1.1-1.7-1.5 0-.4.2-.7.7-1 .5-.3 1.2-.5 2-.5s2.1.2 3.2.4 2.1.4 2.4.5c0 0 1.5.8 3.2 1.8 1.5.9 3.2 2.1 3.9 3.1h.3l.1-.2.2-.5s.4.3 1.1.6c.6.3 1.4.5 2.2.5h.1c.1 0 .1-.1.1-.2v-.1l-.4-.9h.6c.8.2 1.4.4 1.4.9.3-.5.3-.9.1-1.2V27c-.2-.3-.5-.5-.8-.7.7 0 1.2.1 1.4.5.2-1.6-2.4-1.8-3.2-1.8-.4 0-.7.1-1 .1-.4-.1-.8-.2-1.1-.4-.7-.3-1.2-.7-1.2-.9 0-.3.1-.5.5-.6.4-.2 1.1-.3 2.3-.3 1.2 0 2.1-.1 2.8-.4.4-.2.7-.5.9-.9 0-.1.1-.1.1-.2.1-.3.5-.7 1.6-.4.7.3 1.3.2 1.3.6v.4c0 .1 0 .3.1.3 0 0 1 .6 1.5.1-.2.2-.4.4-.6.5-.7.2 1.6 1 3 .3l-1.4.8s3.2.6 4.1-.3c0 0 2.3 1.6 3 1.9.7.3.6.4.9.2.3-.2.2-.6 1-.2.2.2.5.4.8.7.8.6 1.8 1.3 2.7 1.5h.1c.1 0 .1 0 .2-.1l.1-.4.1-.2s.1 0 .2.1h.1c.3.1.9.4 1.7.6 1.1.2 2.3.4 3.6-.3.1 0 .1-.1.1-.2v-.1l-.2-.3-.2-.3-.1-.2.2-.1h.1l.7-.3.5-.2h.1l.1-.1c0-.1 0-.1-.1-.1l-.3-.2-1.3-.6c1.1-.5 1.9-.7 2.3-.2-.3-2.3-2.8-1.7-3.6-1.3-.5.3-.8.5-1 .7-.5.2-1.1.4-1.8.4-.9 0-2-.8-2.9-1.7-.9-.9-1.5-1.8-1.6-2l2.1.3 1.5.2s1.1.3 1.6.1c.6-.1-.8-.3-.1-.7.4-.2 1.3 0 1.5 0 .3 0-.3-.3-.2-.6.2-.3 1.4-.4 1.7-.6.3-.1-.8-.6.2-1.4.2-.1.5-.3.9-.5 1.1-.5 3.1-1 5.3-.8.1 0 .2-.1.2-.2s0-.1-.1-.1l-.5-.3-.9-.7c1.2-.6 2.1-1 2.6-.3-.2-1.9-1.5-2-2.6-1.9m-7.8-8.4c.5-.1.7-.3.7-.6 0 0 .3.2.2.5-.1.2-.3.3-.7.4 0 .4-.3.8-1 .6-.5-.1-.5-.4-.5-.5-.2-.1-.4-.3-.5-.4.3.1 1.3.1 1.8 0m-6.3-.7" class="st1"/></svg>