<?xml version="1.0" encoding="utf-8"?>
<!-- Generator: Adobe Illustrator 21.0.2, SVG Export Plug-In . SVG Version: 6.00 Build 0)  -->
<svg version="1.1" id="Layer_1" xmlns="http://www.w3.org/2000/svg" xmlns:xlink="http://www.w3.org/1999/xlink" x="0px" y="0px"
	 viewBox="0 0 57 48.9" style="enable-background:new 0 0 57 48.9;" xml:space="preserve">
<style type="text/css">
	.st0{fill:#504166;}
	.st1{fill:#8A959E;}
</style>
<g>
	<path class="st0" d="M6.9,34.6H5.5v-0.4c0-0.1,0-0.6-0.1-0.9c-0.1-0.3-0.6-0.5-1.2-0.5c-1.6,0-2.2,1.4-2.2,2.9c0,0.4,0,1.2,0.4,1.8
		c0.6,0.9,1.5,1.1,2,1.1c0.3,0,1.3,0,2.5-0.9v1.5C6.1,39.7,5.1,40,4.1,40c-3.2,0-3.9-2.6-3.9-4.1c0-1.8,0.9-4.2,4-4.2
		c1.4,0,2.2,0.4,2.6,0.6V34.6z"/>
	<path class="st0" d="M8.3,34.7c0.7-0.4,1.5-0.7,2.3-0.7c2,0,2.2,1.1,2.2,2v2c0,0.5,0.1,0.7,0.3,0.7c0.2,0,0.3-0.1,0.4-0.1v1
		c-0.6,0.3-1.2,0.3-1.4,0.3c-0.3,0-0.7-0.1-0.9-0.7c-0.3,0.2-0.8,0.7-1.7,0.7c-0.9,0-1.8-0.4-1.8-1.6c0-1.2,1-1.6,1.5-1.7
		c0.4-0.1,1-0.3,1.1-0.3l0.8-0.2c0-0.5,0-1.1-0.9-1.1c-0.8,0-0.8,0.4-0.8,0.9v0.1H8.3V34.7z M11.2,37c-1.1,0.3-1.7,0.5-1.7,1.2
		c0,0.4,0.3,0.7,0.7,0.7c0.2,0,0.3-0.1,0.5-0.1c0.2-0.1,0.5-0.4,0.5-1.2V37z"/>
	<path class="st0" d="M15.8,34.2c0,0.2,0.1,0.3,0.1,0.8c0.3-0.4,0.7-0.9,1.7-0.9c0.6,0,1.3,0.2,1.6,1c0.3-0.7,1-1,1.8-1
		c0.6,0,1.3,0.3,1.5,0.8c0.1,0.2,0.2,0.5,0.2,1.3v2.2c0,0.3,0,0.5,0.5,0.5h0.2v0.9h-2.9v-0.9h0.2c0.3,0,0.3-0.2,0.3-0.4v-1.9
		c0-0.5,0-1.2-0.7-1.2c-0.7,0-1,0.7-1,1.4v1.5c0,0.4,0,0.5,0.4,0.5h0.2v0.9h-2.8v-0.9h0.2c0.4,0,0.4-0.1,0.4-0.4v-1.9
		c0-0.4,0-1.1-0.7-1.1c-0.3,0-0.7,0.1-0.9,0.7c-0.1,0.2-0.1,0.7-0.1,0.9v1.4c0,0.3,0,0.5,0.3,0.5h0.2v0.9h-2.9v-0.9h0.2
		c0.5,0,0.5-0.1,0.5-0.5v-2.6c0-0.2,0-0.5-0.4-0.5h-0.3v-0.9L15.8,34.2z"/>
	<path class="st0" d="M25.6,31.7v3.2h0c0.2-0.2,0.6-0.8,1.6-0.8c1.8,0,2.2,1.8,2.2,2.7c0,1.2-0.5,3.1-2.5,3.1
		c-0.8,0-1.3-0.4-1.6-0.6L25,39.9h-1v-6.5c0-0.4,0-0.6-0.4-0.6h-0.3v-0.9L25.6,31.7z M25.5,37.1c0,0.6,0.1,1.6,1.1,1.6
		c1.1,0,1.1-1.4,1.1-1.7c0-0.7-0.2-1.6-1-1.6C25.5,35.4,25.5,36.8,25.5,37.1"/>
	<path class="st0" d="M31.8,34.2c0,0.2,0.1,0.4,0.1,0.9h0c0.1-0.2,0.6-1,1.5-1c0.3,0,0.5,0.1,0.7,0.2V36h-1c0-0.2,0-0.4-0.3-0.4
		c-0.2,0-0.9,0.3-0.9,1.9v0.9c0,0.3,0,0.4,0.5,0.4h0.3v0.9h-3v-0.9h0.2c0.4,0,0.5-0.1,0.5-0.5v-2.6c0-0.4-0.1-0.5-0.4-0.5h-0.3v-0.9
		L31.8,34.2z"/>
	<path class="st0" d="M36.3,38.1c0,0.7,0,0.7,0.6,0.7v0.9h-3v-0.9h0.3c0.4,0,0.4-0.1,0.4-0.7v-2c0-0.7,0-0.8-0.3-0.8
		c-0.1,0-0.1,0-0.4,0v-0.9l2.4-0.2V38.1z M36.4,32.5c0,0.6-0.6,0.8-1,0.8c-0.4,0-1-0.2-1-0.8c0-0.3,0.2-0.8,1-0.8
		C36.1,31.7,36.4,32.1,36.4,32.5"/>
	<path class="st0" d="M42.7,38.1c0,0.5,0.1,0.6,0.7,0.6v0.9l-2.2,0.1c-0.1-0.3-0.1-0.5-0.1-0.8h0c-0.1,0.2-0.5,0.9-1.6,0.9
		c-1.9,0-2.2-1.9-2.2-2.8c0-1.8,1-3.1,2.4-3.1c0.2,0,0.9,0,1.4,0.6v-1.2c0-0.5,0-0.7-0.4-0.7h-0.3v-0.9l2.4-0.2V38.1z M40,38.6
		c0.4,0,1.1-0.3,1.1-1.7c0-1.3-0.6-1.6-1.1-1.6c-0.8,0-1,0.8-1,1.7C39,37.2,39,38.6,40,38.6"/>
	<path class="st0" d="M49.2,35.2h-0.9c0.1,0.2,0.3,0.5,0.3,1c0,0.7-0.4,1.2-0.9,1.5c-0.4,0.3-0.9,0.3-1.4,0.3c-0.5,0-0.9,0-0.9,0.4
		c0,0.3,0.6,0.4,0.8,0.4c0.1,0,0.6,0,0.6,0c1.5,0,2.4,0.4,2.4,1.5c0,2-2.5,2-3.1,2c-1.3,0-2.8-0.2-2.8-1.3c0-0.9,1-1.1,1.3-1.2v0
		c-0.3-0.1-0.8-0.3-0.8-0.9c0-0.6,0.6-0.9,1.1-1.1v0c-0.7-0.2-1.2-0.8-1.2-1.7c0-1.1,0.7-2.1,2.5-2.1c0.6,0,1,0.1,1.1,0.2h1.9V35.2z
		 M44.9,40.8c0,0.6,1.2,0.6,1.4,0.6c0.6,0,1.5-0.1,1.5-0.7c0-0.5-0.9-0.5-1.5-0.5C46,40.2,44.9,40.2,44.9,40.8 M45.3,36.1
		c0,0.5,0.2,1.1,0.8,1.1c0.4,0,0.9-0.2,0.9-1.2c0-0.4-0.1-1.2-0.8-1.2C45.3,34.9,45.3,35.9,45.3,36.1"/>
	<path class="st0" d="M51,37.2c0,0.6,0.4,1.4,1.5,1.4c0.8,0,1.4-0.4,1.9-0.6v1.3C53.9,39.6,53.2,40,52,40c-2.2,0-2.7-1.8-2.7-2.9
		c0-1.5,0.8-3.1,2.7-3.1c2.4,0,2.4,2.4,2.4,3.2H51z M53,36.2c0-1.2-0.8-1.2-0.9-1.2c-0.6,0-1,0.5-1,1.2H53z"/>
	<path class="st1" d="M4.3,42.7v1.3H3.6v-0.2c0-0.2-0.1-0.3-0.3-0.3h-1v1.2H3c0.1,0,0.1,0,0.1-0.2v-0.2h0.8v1.5H3.1v-0.2
		c0-0.1,0-0.2-0.1-0.2H2.2v1.3h1.1c0.3,0,0.3-0.1,0.3-0.3v-0.3h0.8v1.3H0.7v-0.6h0.2c0.3,0,0.3-0.1,0.3-0.3v-2.9
		c0-0.2,0-0.3-0.3-0.3H0.7v-0.6H4.3z"/>
	<path class="st1" d="M8.3,46.5c0,0.3,0,0.4,0.4,0.3v0.6l-1.3,0.1c-0.1-0.2-0.1-0.3-0.1-0.5h0c-0.1,0.1-0.3,0.6-1,0.6
		c-1.2,0-1.4-1.1-1.4-1.7c0-1.1,0.6-1.9,1.5-1.9c0.1,0,0.5,0,0.9,0.4v-0.7c0-0.3,0-0.4-0.3-0.4H6.8v-0.6l1.5-0.1V46.5z M6.6,46.8
		c0.2,0,0.7-0.2,0.7-1c0-0.8-0.4-1-0.7-1c-0.5,0-0.6,0.5-0.6,1C6,45.9,6,46.8,6.6,46.8"/>
	<path class="st1" d="M10.3,44v2.1c0,0.2,0,0.7,0.4,0.7c0.6,0,0.6-0.7,0.6-0.9v-0.8c0-0.2,0-0.3-0.1-0.3c0,0-0.2,0-0.4,0v-0.6
		l1.4-0.1v2.5c0,0.2,0,0.3,0.2,0.3h0.2v0.6l-1.4,0.1c0-0.2-0.1-0.3-0.1-0.5h0c-0.3,0.5-0.8,0.6-1,0.6c-0.2,0-0.8-0.1-1-0.6
		c-0.1-0.2-0.1-0.6-0.1-0.6v-1.2c0-0.2,0-0.3,0-0.3c0-0.1,0-0.1-0.4-0.1v-0.6L10.3,44z"/>
	<path class="st1" d="M16.1,45.4h-0.8v-0.3c0-0.2,0-0.5-0.4-0.5c-0.6,0-0.7,0.7-0.7,1c0,0.6,0.3,1.1,0.9,1.1c0.4,0,0.7-0.1,1-0.3
		v0.8c-0.4,0.3-0.8,0.4-1.3,0.4c-1.4,0-1.6-1.2-1.6-1.7c0-1.4,0.9-1.9,1.8-1.9c0.1,0,0.6,0,1.2,0.3V45.4z"/>
	<path class="st1" d="M16.8,44.4c0.4-0.3,0.9-0.4,1.4-0.4c1.2,0,1.4,0.7,1.4,1.2v1.2c0,0.3,0,0.4,0.2,0.4c0.1,0,0.2,0,0.2-0.1v0.6
		c-0.4,0.2-0.7,0.2-0.8,0.2c-0.2,0-0.4,0-0.6-0.4c-0.2,0.1-0.5,0.4-1,0.4c-0.6,0-1.1-0.2-1.1-1c0-0.7,0.6-1,0.9-1
		c0.2-0.1,0.6-0.2,0.7-0.2l0.5-0.1c0-0.3,0-0.7-0.5-0.7c-0.5,0-0.5,0.3-0.5,0.5v0.1h-0.8V44.4z M18.6,45.8c-0.7,0.2-1.1,0.3-1.1,0.7
		c0,0.2,0.2,0.4,0.4,0.4c0.1,0,0.2,0,0.3-0.1c0.1-0.1,0.3-0.2,0.3-0.7V45.8z"/>
	<path class="st1" d="M21.7,43v1.1h0.8v0.7h-0.8v1.4c0,0.2,0,0.5,0.3,0.5c0.2,0,0.4-0.1,0.5-0.1v0.7c-0.5,0.2-0.8,0.2-1,0.2
		c-0.9,0-0.9-0.7-0.9-1v-1.7h-0.4v-0.6C20.9,44,21,43.3,21,43H21.7z"/>
	<path class="st1" d="M24.2,46.5c0,0.4,0,0.4,0.4,0.4v0.6h-1.8v-0.6H23c0.3,0,0.3-0.1,0.3-0.4v-1.2c0-0.4,0-0.5-0.2-0.5
		c-0.1,0-0.1,0-0.2,0v-0.6l1.5-0.1V46.5z M24.3,43c0,0.4-0.3,0.5-0.6,0.5c-0.3,0-0.6-0.1-0.6-0.5c0-0.2,0.1-0.5,0.6-0.5
		C24.1,42.5,24.3,42.8,24.3,43"/>
	<path class="st1" d="M26.7,47.6c-1.4,0-1.7-1.2-1.7-1.7c0-0.8,0.3-1.9,1.8-1.9c1.2,0,1.7,0.8,1.7,1.7C28.5,46.6,28,47.6,26.7,47.6
		 M26.7,44.7c-0.7,0-0.7,0.9-0.7,1.2c0,0.1,0,1.1,0.7,1.1c0.6,0,0.7-0.7,0.7-1.2C27.4,45.5,27.4,44.7,26.7,44.7"/>
	<path class="st1" d="M30.6,47.5h-1.7v-0.6c0.4,0,0.4,0,0.4-0.4v-1.2c0-0.1,0-0.4-0.1-0.5c-0.1,0-0.2,0-0.4,0v-0.6l1.4-0.1
		c0,0.2,0.1,0.3,0.1,0.5h0c0.2-0.3,0.4-0.6,1-0.6c0.3,0,0.8,0.1,1,0.6c0.1,0.2,0.1,0.6,0.1,0.8v1.1c0,0.4,0,0.4,0.4,0.4v0.6H31v-0.6
		c0.3,0,0.3,0,0.3-0.4v-0.9c0-0.4,0-0.8-0.5-0.8c-0.6,0-0.6,0.7-0.6,0.9v0.8c0,0.4,0,0.4,0.3,0.4V47.5z"/>
	<path class="st1" d="M38.3,44c0-0.1,0-0.3-0.1-0.4c-0.1-0.2-0.5-0.3-0.7-0.3c-0.9,0-1.3,0.8-1.3,1.8c0,1,0.4,1.8,1.4,1.8
		c0.3,0,0.6-0.1,0.6-0.1V46c0-0.2,0-0.3-0.3-0.3h-0.2v-0.6h2v0.6h-0.2c-0.2,0-0.3,0.1-0.3,0.3v1.2c-0.4,0.2-0.9,0.4-1.7,0.4
		c-0.9,0-1.4-0.3-1.8-0.6c-0.5-0.5-0.7-1.2-0.7-1.9c0-1.2,0.6-2.6,2.5-2.6c0.5,0,1.1,0.1,1.6,0.4v1.4h-0.9V44z"/>
	<path class="st1" d="M41.3,44.1c0,0.1,0.1,0.3,0.1,0.6h0c0.1-0.1,0.4-0.6,0.9-0.6c0.2,0,0.3,0.1,0.4,0.1v1H42c0-0.1,0-0.3-0.2-0.3
		c-0.2,0-0.5,0.2-0.5,1.1v0.6c0,0.2,0,0.3,0.3,0.3h0.2v0.6H40v-0.6h0.1c0.3,0,0.3-0.1,0.3-0.3V45c0-0.2,0-0.3-0.2-0.3h-0.2v-0.6
		L41.3,44.1z"/>
	<path class="st1" d="M44.6,47.6c-1.4,0-1.7-1.2-1.7-1.7c0-0.8,0.3-1.9,1.8-1.9c1.2,0,1.7,0.8,1.7,1.7C46.4,46.6,46,47.6,44.6,47.6
		 M44.7,44.7c-0.7,0-0.7,0.9-0.7,1.2c0,0.1,0,1.1,0.7,1.1c0.6,0,0.7-0.7,0.7-1.2C45.4,45.5,45.4,44.7,44.7,44.7"/>
	<path class="st1" d="M48.2,44v2.1c0,0.2,0,0.7,0.4,0.7c0.6,0,0.6-0.7,0.6-0.9v-0.8c0-0.2,0-0.3-0.1-0.3c0,0-0.2,0-0.4,0v-0.6
		l1.4-0.1v2.5c0,0.2,0,0.3,0.2,0.3h0.2v0.6l-1.4,0.1c0-0.2-0.1-0.3-0.1-0.5h0c-0.3,0.5-0.8,0.6-1,0.6c-0.2,0-0.8-0.1-1-0.6
		c-0.1-0.2-0.1-0.6-0.1-0.6v-1.2c0-0.2,0-0.3,0-0.3c0-0.1,0-0.1-0.4-0.1v-0.6L48.2,44z"/>
	<path class="st1" d="M52.2,48c0,0.3,0,0.3,0.3,0.3h0.1v0.6h-1.9v-0.6h0.1c0.2,0,0.3,0,0.3-0.3v-2.8c0-0.4,0-0.5-0.1-0.5
		c-0.1,0-0.1,0-0.3,0v-0.6l1.4-0.1c0,0.2,0.1,0.3,0.1,0.5h0c0.1-0.2,0.4-0.6,1-0.6c0.9,0,1.3,0.8,1.3,1.7c0,0.7-0.3,1.9-1.5,1.9
		c-0.4,0-0.7-0.2-0.9-0.4V48z M52.2,45.9c0,0.6,0.2,1,0.7,1c0.6,0,0.6-0.9,0.6-1c0-0.2,0-1-0.6-1C52.3,44.8,52.2,45.4,52.2,45.9
		L52.2,45.9z"/>
	<path class="st1" d="M54.3,13.2c0.9-0.6,1.8-0.8,2.3-0.4c-0.5-1-1.3-1.2-2-1.1c0,0,0,0-0.1,0c0,0,0,0-0.1,0l-0.1,0.1
		c-0.4,0.1-0.7,0.2-1,0.4l-2.7,1.1l0-0.1c0.3-1.2,1.7-1.8,2.5-1.8c-2-1.1-3.8,1-4,1.8c-0.1,0.5-0.1,0.9-0.1,1.2l-0.1,0.4
		c0,0-0.4,0.6-1.6,1c-1,0.3-1.7-1.1-3.2-2.5L41.8,11l0.3,0.2c0.3,0.3,0.6,0.5,1.1,0.9c0.7,0.4,1.6,1.2,2.1,1.3
		c0.4-0.1,1.1-1.3,0.5-1.9c0.1-0.4,0.3-0.7,0.1-1.2c-0.3,0.3-0.6,0.5-0.7,0.8c-0.9-0.3-1.5-0.9-1.6-1.8c0.6-0.1,2.2,0.2,3.1,1.2
		c0.8,0.9,1.8,0.9,2.4,0.7c0.6-0.2,1.1-1.3,0.9-1.7c-0.2,0.5-0.5,0.8-0.8,1c-0.8,0.5-1.9,0.1-2.5-0.6c-0.6-0.6-1.6-1.6-3-1.4
		c0.1-0.5,0.5-0.9,1.2-1c1.1-0.1,1.9,0.1,2.5,0.8c-0.1,0.4-0.2,1-0.2,1.5c0.3-0.1,0.6-0.6,0.8-0.8c0.3,0.1,0.6,0,0.8-0.2
		c0.2-0.1,0.7-1,0.7-1.4c-0.1,0-0.3-0.1-0.5-0.2l0.1-0.3c0.2,0.1,0.4,0.2,0.6,0.3c0,0,0.3-0.1,0.6-0.4c0.2-0.3,0.3-0.6,0.2-0.9
		c-0.2-0.3-1.5-0.7-1.5-0.7h0c-0.4-0.3-0.8-0.5-1.2-0.7c-0.2-0.4-0.6-1-1.3-1.3c-0.7-0.3-1.2-0.6-1.6-0.8c-0.1-0.3-1-1.7-2.2-1.8
		c-0.7,0-0.6-0.1-0.9,0c1.2,0.6,1.4,1.5,1.4,2c-0.5-0.6-1.4-2-2.8-2.5c-0.6,0.7-0.8,1.7-0.7,2.6c0.1,0.6,0.6,1,1.1,1.4
		c-0.6-0.2-1.2-0.4-1.4-1c-0.2-0.6-0.2-1.1,0-1.6c-0.9,0.2-2.4,0-2.9-1.1c-0.2,0.3,0,1.2,0.3,1.8c0.1,0.1,0.2,0.3,0.3,0.4
		c-0.9-0.1-2.6-0.3-3.5-0.4c0.2,0.6,1.6,1.1,1.6,2.2c-1.5-0.2-2.7-0.5-2.9-0.9c-0.3,0.8,0.5,1.6,1.5,2.2c-1.1,0.8-2.3-0.6-2.7-0.7
		C31.5,5.6,32,6.8,32.7,7c-0.9,0.2-1.5,0.2-1.8-0.2c0,0.8,0.5,1.4,1,1.8c-1.5-0.5-2.1,0.3-2.9,0.1c0.7,0.8,1.8,1.2,2.5,1.5
		c-1.3,0.5-3,1-3.3,0.5c0.1,1.9,2.9,1.5,3.8,2.3c-0.5,0.1-1.1,0.2-1.9,0.3c-1.9,0.1-3.6-0.7-3.6-0.7c-5.3-3.1-8.5-2.5-10.8-1.8
		c-1,0.3-2,1.4-2.6,2.2c-0.4,0-0.8,0-1.2,0c-1.7,0-3.3-0.1-4.6-0.6c-1.3-0.4-2.1-1.2-2.1-2.3c0-1.1,0.6-1.6,1.2-1.9
		C7.1,8,7.7,8,7.7,8c2.5,0,4.7,0,6.9,0.7c2.2,0.7,4.6,1.4,7.7,1.4c3.2,0,5-0.9,5.9-1.9c0.9-1,1.1-2.2,1.1-2.6c0-0.7-0.2-1.7-1-2.5
		c-0.8-0.8-2.2-1.4-4.7-1.4c-2.4,0-4.2,0.3-5.4,0.7c-0.8,0.2-2.5-0.9-2.6-1.8c-0.6,1.7,0.3,2.7,1.3,3.3C17,3.9,17,4,17.1,4.1
		C16.5,4,16,3.8,15.8,3.4c0.1,2.9,3.5,2.5,4.7,2.2c0.5-0.2,0.9-0.3,1.2-0.5c0.6-0.2,1.1-0.4,1.6-0.6c0.8-0.4,1.5-0.8,2.3-0.8
		c0.8,0,1.4,0.2,1.7,0.5c0.4,0.3,0.5,0.8,0.5,1.4c0,0.3,0,1.1-0.7,1.9C26.4,8.3,25,9,22.4,9c-2.6,0-5.1-0.8-7.5-1.5
		c-2.4-0.8-4.7-0.8-7-0.8c-2.3,0-3.5,0.8-4.2,1.6C3.1,9,3,9.9,3,10.1c0,0.2-0.1,1.4,1,2.5c1.1,1.1,3.3,2.2,7.9,2.2l0,0
		c0.1,0,0.2,0.1,0.2,0.2c0,0,0,0,0,0c0,0,0,0.1,0,0.1c-0.2,0.4-0.6,1.1-1.2,1.9C10,18,8.7,19.1,7.2,19.1c-1.1,0-1.9,0-2.5-0.1
		c-1.1-0.1-2.5-1-2.5-1s-0.1,0.2,0.4,0.9c0.1,0.1,0.1,0.2,0.1,0.2c-0.3,0.3-1.1,0.3-1.1,0.3H1.6H1.5c-0.1,0-0.2,0.1-0.2,0.2
		c0,0,0,0.1,0,0.1l0,0L1.6,20c0.1,0.1,0.3,0.3,0.2,0.4c-0.1,0.1-0.5,0-0.5,0H1c-0.1,0-0.2,0.1-0.2,0.2c0,0,0,0.1,0,0.1l0,0l0.2,0.2
		L1.2,21c0,0,0.2,0.3-0.1,0.4l-0.4,0l0,0c-0.1,0-0.2,0.1-0.2,0.2c0,0,0,0.1,0.1,0.1l0,0l0.2,0.2c0,0,0.3,0.5,0,1.1l-0.3,0.5L0,24.4
		l0,0c0,0,0,0,0,0.1c0,0.1,0.1,0.2,0.2,0.2h0.3h0.6c0,0,0,0.7,0.3,1.6c0.3,0.8,1,1.7,2.4,2l0,0C4,28.2,4,28.2,4,28.1l0,0l0.1-0.2
		l0.1-0.4l0.9,0.2l0.8,0.1c0.1,0,0.2-0.1,0.2-0.1l0,0l0-0.3l0-0.3c1,0.2,1.7,0.4,1.6,1c0.8-1.3-0.6-2-1.1-2.2
		c-0.2-0.1-0.5-0.3-0.8-0.5c-0.8-0.5-1.6-1.1-1.7-1.5c0-0.4,0.2-0.7,0.7-1c0.5-0.3,1.2-0.5,2-0.5c0.8,0,2.1,0.2,3.2,0.4
		c1.1,0.2,2.1,0.4,2.4,0.5c0,0,1.5,0.8,3.2,1.8c1.5,0.9,3.2,2.1,3.9,3.1l0.3,0l0.1-0.2l0.2-0.5c0,0,0.4,0.3,1.1,0.6
		c0.6,0.3,1.4,0.5,2.2,0.5l0.1,0c0.1,0,0.1-0.1,0.1-0.2c0,0,0,0,0-0.1l-0.4-0.9l0.6,0c0.8,0.2,1.4,0.4,1.4,0.9
		c0.3-0.5,0.3-0.9,0.1-1.2c0,0,0-0.1,0-0.1l0,0c-0.2-0.3-0.5-0.5-0.8-0.7l0,0c0.7,0,1.2,0.1,1.4,0.5c0.2-1.6-2.4-1.8-3.2-1.8
		c-0.4,0-0.7,0.1-1,0.1c-0.4-0.1-0.8-0.2-1.1-0.4c-0.7-0.3-1.2-0.7-1.2-0.9c0-0.3,0.1-0.5,0.5-0.6c0.4-0.2,1.1-0.3,2.3-0.3
		c1.2,0,2.1-0.1,2.8-0.4c0.4-0.2,0.7-0.5,0.9-0.9h0c0,0,0,0,0,0c0-0.1,0.1-0.1,0.1-0.2c0.1-0.3,0.5-0.7,1.6-0.4
		c0.7,0.3,1.3,0.2,1.3,0.6l0,0.4l0,0c0,0.1,0,0.3,0.1,0.3c0,0,1,0.6,1.5,0.1c-0.2,0.2-0.4,0.4-0.6,0.5c-0.7,0.2,1.6,1,3,0.3L31.5,24
		c0,0,3.2,0.6,4.1-0.3c0,0,2.3,1.6,3,1.9c0.7,0.3,0.6,0.4,0.9,0.2c0.3-0.2,0.2-0.6,1-0.2c0.2,0.2,0.5,0.4,0.8,0.7
		c0.8,0.6,1.8,1.3,2.7,1.5l0.1,0c0.1,0,0.1,0,0.2-0.1l0,0l0.1-0.4l0,0l0.1-0.2c0,0,0.1,0,0.2,0.1l0.1,0c0.3,0.1,0.9,0.4,1.7,0.6
		c1.1,0.2,2.3,0.4,3.6-0.3l0,0c0.1,0,0.1-0.1,0.1-0.2c0,0,0-0.1,0-0.1l0,0l-0.2-0.3l-0.2-0.3l0,0l-0.1-0.2l0.2-0.1l0.1,0l0.7-0.3
		l0.5-0.2l0.1,0c0,0,0.1-0.1,0.1-0.1c0-0.1,0-0.1-0.1-0.1L51,25.4l-1.3-0.6c1.1-0.5,1.9-0.7,2.3-0.2c-0.3-2.3-2.8-1.7-3.6-1.3
		c-0.5,0.3-0.8,0.5-1,0.7c-0.5,0.2-1.1,0.4-1.8,0.4c-0.9,0-2-0.8-2.9-1.7c-0.9-0.9-1.5-1.8-1.6-2l2.1,0.3l1.5,0.2
		c0,0,1.1,0.3,1.6,0.1c0.6-0.1-0.8-0.3-0.1-0.7c0.4-0.2,1.3,0,1.5,0c0.3,0-0.3-0.3-0.2-0.6c0.2-0.3,1.4-0.4,1.7-0.6
		c0.3-0.1-0.8-0.6,0.2-1.4c0.2-0.1,0.5-0.3,0.9-0.5c1.1-0.5,3.1-1,5.3-0.8c0.1,0,0.2-0.1,0.2-0.2c0-0.1,0-0.1-0.1-0.1l-0.5-0.3
		l-0.9-0.7c1.2-0.6,2.1-1,2.6-0.3C56.7,13.2,55.4,13.1,54.3,13.2 M46.5,4.8c0.5-0.1,0.7-0.3,0.7-0.6c0,0,0.3,0.2,0.2,0.5
		c-0.1,0.2-0.3,0.3-0.7,0.4c0,0.4-0.3,0.8-1,0.6c-0.5-0.1-0.5-0.4-0.5-0.5c-0.2-0.1-0.4-0.3-0.5-0.4C45,4.9,46,4.9,46.5,4.8
		 M40.2,4.1C40.2,4.1,40.2,4.1,40.2,4.1C40.2,4.1,40.2,4.1,40.2,4.1C40.2,4.1,40.2,4.1,40.2,4.1"/>
</g>
</svg>
