<?xml version="1.0" encoding="utf-8"?>
<!-- Generator: Adobe Illustrator 21.0.2, SVG Export Plug-In . SVG Version: 6.00 Build 0)  -->
<svg version="1.1" id="Layer_1" xmlns="http://www.w3.org/2000/svg" xmlns:xlink="http://www.w3.org/1999/xlink" x="0px" y="0px"
	 viewBox="0 0 122 67.4" style="enable-background:new 0 0 122 67.4;" xml:space="preserve">
<style type="text/css">
	.st0{fill:#EE7700;}
	.st1{fill:#111820;}
</style>
<g>
	<g>
		<path class="st0" d="M87.8,11.3c0,0.2,0,0.8,1,1c1.4,0.2,2-0.5,2-1.3c0.7-0.1,1.3-0.3,1.4-0.7c0.2-0.6-0.4-0.9-0.4-0.9
			c-0.1,0.7-0.4,1-1.5,1.3c-1,0.3-2.9,0.2-3.5-0.1C86.9,10.6,87.3,11.2,87.8,11.3z"/>
	</g>
	<g>
		<path class="st0" d="M116.7,26.1c1.8-1.1,3.5-1.6,4.6-0.9c-0.9-2-2.5-2.4-4-2.2c0,0-0.1,0-0.1,0c0,0-0.1,0-0.1,0l-0.3,0.1
			c-0.7,0.2-1.4,0.5-2,0.8l-5.3,2.2l-0.1-0.1c0.7-2.4,3.4-3.5,4.9-3.6c-4-2.1-7.5,1.9-7.9,3.5c-0.1,1-0.2,1.8-0.1,2.3l-0.2,0.7
			c0,0-0.8,1.2-3.2,2c-1.9,0.6-3.3-2.2-6.4-4.9L92,21.8l0.6,0.3c0.5,0.6,1.1,1.1,2.1,1.7c1.5,0.8,3.1,2.3,4.1,2.6
			c0.7-0.3,2.1-2.5,1.1-3.8c0.2-0.8,0.6-1.4,0.2-2.5c-0.5,0.5-1.1,1-1.4,1.6c-1.7-0.7-3-1.7-3.1-3.6c1.2-0.2,4.3,0.3,6.2,2.4
			c1.5,1.8,3.6,1.7,4.8,1.3c1.3-0.4,2.2-2.6,1.7-3.3c-0.4,1-1,1.5-1.6,2c-1.5,1-3.7,0.1-4.9-1.2c-1.2-1.2-3.2-3.2-6-2.7
			c0.3-1.1,1-1.7,2.4-2c2.2-0.2,3.8,0.2,4.9,1.6c-0.1,0.8-0.4,2-0.4,2.9c0.5-0.2,1.2-1.1,1.5-1.6c0.6,0.1,1.2,0,1.6-0.3
			c0.3-0.3,1.3-2.1,1.4-2.8c-0.2,0-0.5-0.2-0.9-0.4l0.2-0.5c0.4,0.3,0.8,0.5,1.1,0.5c0,0,0.6-0.1,1.1-0.7c0.5-0.6,0.6-1.1,0.3-1.8
			c-0.3-0.7-2.9-1.4-2.9-1.4h0c-0.7-0.5-1.5-1-2.4-1.4c-0.4-0.8-1.2-2.1-2.6-2.7c-1.3-0.6-2.4-1.2-3.1-1.6c-0.1-0.6-1.9-3.3-4.4-3.6
			c-1.3,0-1.2-0.1-1.7,0c2.4,1.2,2.8,3,2.8,3.9c-1-1.2-2.8-3.9-5.5-4.9c-1.2,1.3-1.5,3.4-1.3,5.1C88,6.3,89,7.2,90,7.9
			c-1.1-0.4-2.3-0.8-2.8-2.1c-0.4-1.1-0.4-2.1,0-3.2c-1.7,0.3-4.7-0.1-5.6-2.1C81.3,1.2,81.5,3,82.1,4c0.2,0.3,0.4,0.6,0.7,0.8
			C81,4.6,77.7,4.2,75.9,4c0.3,1.2,3.1,2.2,3.1,4.3c-1.4-0.2-2.6-0.4-3.5-0.7c7.2,3.9,12.1,11.6,12.1,20.4c0,8.3-4.4,15.6-11,19.7
			c1.3-0.1,2.6-0.3,3.2-1c0,0,4.5,3.2,5.9,3.8c1.4,0.6,1.1,0.8,1.8,0.4c0.7-0.3,0.4-1.2,2-0.4c0.4,0.4,0.9,0.9,1.5,1.4
			c1.5,1.3,3.5,2.6,5.4,3l0.1,0c0.1,0,0.3-0.1,0.3-0.2l0,0l0.3-0.8l0-0.1l0.1-0.3c0,0,0.1,0.1,0.3,0.2l0.1,0.1
			c0.6,0.3,1.8,0.8,3.3,1.1c2.2,0.5,4.6,0.8,7.2-0.6l0.1,0c0.1-0.1,0.2-0.2,0.2-0.3c0-0.1,0-0.1,0-0.2l0-0.1l-0.3-0.5l-0.3-0.5
			l0-0.1l-0.2-0.3l0.4-0.2l0.1-0.1l1.3-0.6l1-0.5l0.1-0.1c0.1-0.1,0.1-0.2,0.1-0.3c0-0.1-0.1-0.2-0.2-0.3l-0.3-0.1l-2.6-1.1
			c2.2-1,3.7-1.5,4.6-0.3c-0.7-4.5-5.6-3.3-7.2-2.6c-1,0.5-1.6,0.9-2.1,1.3c-0.9,0.4-2.1,0.7-3.5,0.7c-1.8,0-3.9-1.6-5.6-3.4
			c-1.7-1.7-3-3.6-3.2-3.9l4.2,0.5l3,0.4c0,0,2.1,0.6,3.3,0.3c1.1-0.3-1.6-0.7-0.1-1.5c0.7-0.4,2.5,0.1,3.1,0
			c0.5-0.1-0.7-0.7-0.3-1.3c0.3-0.6,2.7-0.9,3.3-1.1c0.7-0.2-1.6-1.2,0.4-2.8c0.4-0.3,1-0.6,1.7-0.9c2.2-1,6.2-1.9,10.4-1.7
			c0.2,0,0.3-0.2,0.3-0.4c0-0.1,0-0.2-0.1-0.3l-0.9-0.7l-1.8-1.3c2.4-1.3,4.1-1.9,5.1-0.5C121.5,26.1,118.8,25.8,116.7,26.1z
			 M101.3,9.4c1-0.3,1.4-0.6,1.5-1.3c0,0,0.6,0.3,0.4,0.9c-0.1,0.4-0.6,0.6-1.4,0.7c0,0.7-0.6,1.5-2,1.3c-1.1-0.2-1.1-0.8-1-1
			c-0.5-0.1-0.9-0.7-1-0.8C98.3,9.6,100.2,9.7,101.3,9.4z M88.9,8.1C88.9,8.1,88.8,8.1,88.9,8.1C88.9,8.1,88.9,8.1,88.9,8.1
			C88.9,8.1,88.9,8.1,88.9,8.1z"/>
	</g>
	<g>
		<circle class="st0" cx="76" cy="15.4" r="4.8"/>
		<circle class="st0" cx="65.3" cy="15.4" r="4.3"/>
		<circle class="st0" cx="54.6" cy="15.4" r="3.8"/>
		<circle class="st0" cx="43.9" cy="15.4" r="3.3"/>
		<circle class="st0" cx="33.3" cy="15.4" r="2.8"/>
		<circle class="st0" cx="22.6" cy="15.4" r="2.3"/>
		<circle class="st0" cx="11.9" cy="15.4" r="1.8"/>
		<circle class="st0" cx="1.2" cy="15.4" r="1.2"/>
	</g>
	<g>
		<circle class="st0" cx="81.2" cy="27.8" r="4.8"/>
		<circle class="st0" cx="70.6" cy="27.8" r="4.2"/>
		<circle class="st0" cx="59.9" cy="27.8" r="3.6"/>
		<circle class="st0" cx="49.3" cy="27.8" r="3"/>
		<circle class="st0" cx="38.7" cy="27.8" r="2.4"/>
		<circle class="st0" cx="28" cy="27.8" r="1.8"/>
		<circle class="st0" cx="17.4" cy="27.8" r="1.2"/>
	</g>
	<g>
		<circle class="st0" cx="76.8" cy="40.2" r="4.8"/>
		<circle class="st0" cx="66" cy="40.2" r="4.1"/>
		<circle class="st0" cx="55.2" cy="40.2" r="3.4"/>
		<ellipse class="st0" cx="44.4" cy="40.2" rx="2.7" ry="2.7"/>
		<circle class="st0" cx="33.6" cy="40.2" r="2"/>
		<circle class="st0" cx="22.8" cy="40.2" r="1.2"/>
	</g>
	<path class="st1" d="M30.5,51.2c-1.5-1.3-3.3-2-5.6-2h-4.1v14.2h4.8c1.9,0,3.6-0.7,5-2.1c1.4-1.4,2.1-3.1,2.1-5
		C32.7,54.2,32,52.5,30.5,51.2z M29.6,60.2c-1.1,1.2-2.5,1.8-4.1,1.8h-3.4V50.5h3c1.6,0,3.1,0.5,4.3,1.6c1.2,1.1,1.8,2.4,1.9,4
		C31.3,57.7,30.8,59.1,29.6,60.2z"/>
	<rect x="34.4" y="49.1" class="st1" width="1.4" height="2.5"/>
	<rect x="34.4" y="52.8" class="st1" width="1.4" height="10.5"/>
	<path class="st1" d="M47,54.1c-1.1-1.1-2.4-1.6-3.9-1.6c-1.5,0.1-2.7,0.6-3.7,1.7c-1,1.1-1.5,2.3-1.5,3.8c0,1.5,0.6,2.9,1.6,4
		c1.1,1.1,2.4,1.6,3.9,1.6c1.6-0.1,2.8-0.7,3.9-1.9v1c0,1-0.4,1.8-1.1,2.5c-0.8,0.7-1.6,1.1-2.7,1.1c-0.9,0-1.7-0.3-2.4-0.8
		c-0.7-0.5-1.2-1.1-1.4-1.9h-1.4c0.3,1.1,0.9,2,1.7,2.6c0.9,0.7,2,1.1,3.2,1.1c1.4,0.1,2.6-0.4,3.7-1.2c1.1-0.9,1.6-2,1.6-3.3V58
		C48.7,56.5,48.1,55.2,47,54.1z M46,60.9c-0.8,0.8-1.7,1.2-2.7,1.2c-1.1,0-2-0.4-2.8-1.2c-0.8-0.8-1.2-1.7-1.2-2.9
		c0-1.1,0.4-2.1,1.1-2.9c0.8-0.8,1.7-1.3,2.7-1.3c1.2-0.1,2.1,0.4,3,1.2c0.8,0.9,1.2,1.9,1.2,3C47.2,59.2,46.8,60.2,46,60.9z"/>
	<rect x="50.6" y="49.1" class="st1" width="1.4" height="2.5"/>
	<rect x="50.6" y="52.8" class="st1" width="1.4" height="10.5"/>
	<path class="st1" d="M57.8,63.6c-2.6,0-3.8-1.1-3.8-3.3V49.1h1.4v3.7h2.4v1.3h-2.4v5.9c0,1.6,0.8,2.3,2.4,2.3V63.6z"/>
	<path class="st1" d="M70.3,63.3h-1.4v-1.6c-1.1,1.3-2.5,1.9-4.2,1.9C63.3,63.5,62,63,61,61.9c-1-1.1-1.5-2.3-1.5-3.8
		c0-1.5,0.6-2.9,1.6-3.9c1.1-1.1,2.4-1.6,3.9-1.6c1.5,0.1,2.7,0.6,3.8,1.7c1,1.1,1.5,2.3,1.5,3.8v0.1V63.3z M60.9,58
		c0,1.1,0.3,2.1,1.1,2.9c0.8,0.8,1.7,1.3,2.7,1.3c1.2,0.1,2.1-0.3,3-1.2c0.8-0.9,1.2-1.9,1.2-3c0-1.1-0.4-2-1.2-2.8
		C67,54.3,66,53.9,65,53.9c-1.1,0-2.1,0.4-2.9,1.2C61.3,55.9,60.9,56.8,60.9,58z"/>
	<path class="st1" d="M73.6,63.3h-1.4V49.1h1.4V63.3z"/>
</g>
</svg>
