<?xml version="1.0" encoding="utf-8"?>
<!-- Generator: Adobe Illustrator 19.2.0, SVG Export Plug-In . SVG Version: 6.00 Build 0)  -->
<!DOCTYPE svg PUBLIC "-//W3C//DTD SVG 1.1//EN" "http://www.w3.org/Graphics/SVG/1.1/DTD/svg11.dtd">
<svg version="1.1" id="Layer_1" xmlns="http://www.w3.org/2000/svg" xmlns:xlink="http://www.w3.org/1999/xlink" x="0px" y="0px"
	 width="354px" height="50px" viewBox="0 0 354 50" style="enable-background:new 0 0 354 50;" xml:space="preserve">
<style type="text/css">
	.st0{fill:#231F20;}
	.st1{fill:#111111;}
	.st2{fill:#8C8C8C;}
</style>
<g>
	<g>
		<path class="st0" d="M9.9,35H8.3v7.2c0,3.7-2.6,4-3.4,4c-0.8,0-3.4-0.3-3.4-4V35H0v7.2c0,4.1,2.5,5.6,4.9,5.6
			c2.4,0,4.9-1.5,4.9-5.6V35z"/>
		<polygon class="st0" points="25.9,35 24.3,35 24.3,44.9 17.2,35 14.8,35 15.7,36.2 15.7,47.4 17.2,47.4 17.2,37.6 24.2,47.4 
			25.9,47.4 		"/>
		<rect x="32.5" y="35" class="st0" width="1.6" height="12.5"/>
		<path class="st0" d="M41,41.8c0.8,2.4,1.9,5.7,1.9,5.7h1.9c0,0,1.5-4.6,1.9-5.6c0.4-1.1,2.5-7,2.5-7h-1.8l-3.6,10.8L40.3,35h-1.8
			L41,41.8z"/>
		<polygon class="st0" points="58.7,41.5 59.2,40.1 55.2,40.1 55.2,36.4 60.3,36.4 60.8,35 53.6,35 53.6,47.4 60.5,47.4 61,46 
			55.2,46 55.2,41.5 		"/>
		<path class="st0" d="M68.7,35h-3.5v12.5h1.6v-5.6h1.9l3.9,5.6h1.9l-4.2-6l0.1-0.1c1.4-0.6,2.2-1.7,2.2-3.1
			C72.6,37.2,71.8,35,68.7,35 M66.8,36.4h1.7c1.5,0,2.5,0.7,2.5,1.9c0,1.3-0.9,2.1-2.5,2.1h-1.7V36.4z"/>
		<path class="st0" d="M81.3,34.7c-2.1,0-3.7,1.4-3.7,3.4c0,2,1.7,2.8,3.3,3.5c1.4,0.6,2.7,1.2,2.7,2.5c0,1.2-1,2.1-2.3,2.1
			c-1.5,0-2.5-0.8-3.1-2.4l0-0.1l-1.4,0.9l0,0.1c1,2.1,2.4,3,4.7,3c1.9,0,3.9-1.4,3.9-3.8c0-2.3-1.9-3.1-3.6-3.9
			c-1.3-0.6-2.4-1.1-2.4-2.1c0-0.6,0.4-1.7,2-1.7c1,0,1.9,0.5,2.5,1.5l0,0.1l1.2-1l0-0.1C84.1,35.4,82.8,34.7,81.3,34.7"/>
		<rect x="90.6" y="35" class="st0" width="1.6" height="12.5"/>
		<polygon class="st0" points="105.8,35 96.4,35 96.4,36.4 100.4,36.4 100.4,47.4 102,47.4 102,36.4 105.3,36.4 		"/>
		<polygon class="st0" points="117.3,34.9 115.4,34.9 112.2,40.6 108.8,34.9 107,34.9 111.4,42.1 111.4,47.4 113,47.4 113,42.1 		
			"/>
	</g>
	<polygon class="st0" points="5.4,7 5.4,12.2 14.3,12.2 12.5,17.2 5.4,17.2 5.4,26.9 0,26.9 0,2 18,2 16.2,7 	"/>
	<polygon class="st0" points="28.3,22 22.9,22 21.2,26.9 15.3,26.9 23.9,5.2 23,2 30.2,2 39.8,26.9 34.1,26.9 27.6,9.1 24.6,17.4 
		30,17.4 	"/>
	<polygon class="st0" points="43.3,26.9 43.3,2 48.7,2 48.7,22 58.3,22 56.5,26.9 	"/>
	<polygon class="st0" points="80.7,26.9 80.7,11.3 73.4,20.8 66.1,11.3 66.1,26.9 60.8,26.9 60.8,5.1 58.4,2 65.8,2 73.4,11.9 81,2 
		86.1,2 86.1,26.9 	"/>
	<path class="st0" d="M103.7,27.5c-8,0-13.5-6.6-13.5-13s5.5-13,13.5-13c8,0,13.5,6.6,13.5,13S111.7,27.5,103.7,27.5 M103.7,6.5
		c-4.4,0-7.8,3.4-7.8,8c0,4.5,3.3,8,7.8,8c4.4,0,7.8-3.4,7.8-8C111.5,10,108.1,6.5,103.7,6.5"/>
	<path class="st0" d="M137,2v13.5c0,6.1-3.7,6.8-5.3,6.8c-1.6,0-5.3-0.7-5.3-6.8V2h-5.3v13.3c0,8.9,5.5,12.1,10.7,12.1
		c5.2,0,10.7-3.2,10.7-12.1V2H137z"/>
	<polygon class="st0" points="144.6,2 144.6,7 151.5,7 151.5,26.9 156.9,26.9 156.9,7 162.9,7 164.7,2 	"/>
	<path class="st0" d="M182.7,2h5.3v24.9h-5.3V2z M180.1,16.6H172v10.3h-5.3V2h5.3v9.6h9.9L180.1,16.6z"/>
</g>
<g>
	<path class="st1" d="M232.5,2h12.6v3.2h-8.7v5.2h6.9v3.2h-6.9V22h-3.9V2z"/>
	<path class="st1" d="M247.7,2h3.9v16.8h9.1V22h-12.9V2z"/>
	<path class="st1" d="M263,2h12.6v3.2h-8.8v5h6.9v3.2h-6.9v5.3h9V22H263V2z"/>
	<path class="st1" d="M284.2,12.1L277.6,2h4.6l4.3,6.9l4.4-6.9h4.4l-6.6,10l6.6,10h-4.6l-4.3-6.9l-4.3,6.9h-4.5L284.2,12.1z"/>
	<path class="st1" d="M297.8,2h3.9v20h-3.9V2z"/>
	<path class="st1" d="M306.4,2h6.7c5.2,0,6.8,2.5,6.8,4.8c0,2.1-1.3,3.5-2.3,4.4c1.2,0.6,3.3,2,3.3,5c0,3.5-2.8,5.8-6.8,5.8h-7.6V2z
		 M310.2,10.3h4c0.1,0,1.5-0.9,1.5-2.6c0-1.3-0.7-2.4-3.2-2.4h-2.3V10.3z M313.5,18.8c2.3,0,3.3-1.1,3.3-2.7c0-1.5-1-2.7-3.3-2.7
		h-3.2v5.4H313.5z"/>
	<path class="st1" d="M324.4,2h3.9v16.8h9.1V22h-12.9V2z"/>
	<path class="st1" d="M339.7,2h12.6v3.2h-8.8v5h6.9v3.2h-6.9v5.3h9V22h-12.8V2z"/>
	<path class="st1" d="M232.8,30h1.8v16.5h8.8V48h-10.6V30z"/>
	<path class="st1" d="M246.2,30h10.3v1.5H248V38h6.8v1.5H248v7h8.4V48h-10.2V30z"/>
	<path class="st1" d="M265.7,29.9h1.7l7,18.1h-1.9l-2.2-5.9h-7.5l-2.2,5.9h-1.8L265.7,29.9z M263.4,40.6h6.3l-3.2-8.3L263.4,40.6z"
		/>
	<path class="st1" d="M277.3,30h4.3c4.6,0,6.3,2.3,6.3,4.7c0,2.7-2.2,4.3-3.9,5.1l5.6,8.2h-2.1l-5.4-7.9h-3V48h-1.8V30z M282.2,38.6
		c1.5,0,3.8-1.2,3.8-3.7c0-1.8-1.2-3.5-4.8-3.5h-2.2v7.2H282.2z"/>
	<path class="st1" d="M292.6,30h1.8l11.1,15.4V30h1.7v18h-1.8l-11.1-15.1V48h-1.7V30z"/>
	<path class="st1" d="M312.3,30h1.8v18h-1.8V30z"/>
	<path class="st1" d="M319.2,30h1.8l11.1,15.4V30h1.7v18h-1.8L321,32.9V48h-1.7V30z"/>
	<path class="st1" d="M347.3,29.7c3.5,0,5.9,1.3,5.9,1.3l-0.7,1.7c0,0-2.2-1.5-5.3-1.5c-5,0-7.5,3.9-7.5,7.9c0,4.3,2.9,7.7,8.1,7.7
		c1.8,0,3.6-0.5,3.6-0.5v-5.8h-3.9V39h5.7v8.5c0,0-3.1,0.8-5.8,0.8c-5.3,0-9.6-3.4-9.6-9.1C337.8,34.2,341.2,29.7,347.3,29.7z"/>
</g>
<path class="st2" d="M215.4,2h2l-18,46h-2L215.4,2z"/>
</svg>
