<?xml version="1.0" encoding="utf-8"?>
<!-- Generator: Adobe Illustrator 21.0.2, SVG Export Plug-In . SVG Version: 6.00 Build 0)  -->
<svg version="1.1" id="Layer_1" xmlns="http://www.w3.org/2000/svg" xmlns:xlink="http://www.w3.org/1999/xlink" x="0px" y="0px"
	 viewBox="0 0 140 91.9" style="enable-background:new 0 0 140 91.9;" xml:space="preserve">
<style type="text/css">
	.st0{fill:#D61726;}
	.st1{fill:#E30613;}
</style>
<g>
	<path class="st0" d="M92.5,87c0.4-0.6,0.9-1.3,1.3-1.8c0.4-0.6,0.8-1.2,1.2-1.7c0.4-0.5,0.6-0.9,0.9-1.3c0.2,0,0.4,0.1,0.5,0.1
		c0.1,0,0.3,0,0.5-0.1c0,0.6-0.1,1.3-0.1,2.1c0,0.8,0,1.6,0,2.4v1.6c0.3,0,0.5,0,0.8,0c0.2,0,0.4-0.1,0.6-0.1c0,0.2-0.1,0.3-0.1,0.5
		c0,0.1,0,0.3,0.1,0.5c-0.2,0-0.4-0.1-0.6-0.1c-0.2,0-0.5,0-0.8,0v0.6c0,0.4,0,0.8,0,1.1c0,0.4,0,0.7,0.1,0.9c-0.2,0-0.4,0-0.6,0
		c-0.2,0-0.4,0-0.6,0c0-0.2,0-0.6,0.1-1c0-0.4,0-0.8,0-1.1V89c-0.2,0-0.5,0-0.9,0c-0.4,0-0.8,0-1.3,0c-0.4,0-0.9,0-1.3,0
		c-0.4,0-0.7,0-0.9,0v-0.3C91.6,88.3,92,87.6,92.5,87 M95.6,83.5c-0.2,0.3-0.5,0.6-0.8,1.1c-0.3,0.4-0.6,0.9-0.9,1.3
		c-0.3,0.5-0.6,0.9-0.9,1.3c-0.3,0.4-0.5,0.8-0.7,1.1h3.3L95.6,83.5L95.6,83.5z M84.6,91.3c0.2,0.1,0.5,0.2,0.8,0.2
		c0.5,0,1-0.1,1.3-0.4c0.4-0.3,0.7-0.7,0.9-1.1c0.2-0.5,0.4-1,0.5-1.5c0.1-0.6,0.2-1.1,0.2-1.7h0c-0.2,0.4-0.5,0.7-0.9,1
		C87,87.8,86.5,88,85.9,88c-0.9,0-1.5-0.2-2-0.7c-0.5-0.5-0.7-1.2-0.7-2.1c0-0.4,0.1-0.8,0.2-1.2c0.1-0.4,0.4-0.7,0.6-1
		c0.3-0.3,0.6-0.5,1-0.6c0.4-0.2,0.8-0.2,1.3-0.2c0.4,0,0.8,0.1,1.2,0.2c0.4,0.1,0.7,0.4,1,0.7c0.3,0.3,0.5,0.7,0.7,1.3
		c0.2,0.5,0.3,1.1,0.3,1.9c0,0.8-0.1,1.5-0.3,2.2c-0.2,0.7-0.5,1.3-0.8,1.8c-0.4,0.5-0.8,0.9-1.3,1.2c-0.5,0.3-1.1,0.4-1.8,0.4
		c-0.2,0-0.5,0-0.7-0.1c-0.2,0-0.4-0.1-0.5-0.1c0-0.1-0.1-0.2-0.1-0.4C84,91.1,84,91,83.9,90.9l0.1,0C84.2,91,84.4,91.2,84.6,91.3
		 M87.7,83.2c-0.3-0.4-0.8-0.6-1.4-0.6c-0.6,0-1,0.2-1.4,0.7c-0.3,0.5-0.5,1.1-0.5,1.9c0,0.8,0.2,1.4,0.5,1.8
		c0.3,0.4,0.7,0.5,1.3,0.5c0.3,0,0.6-0.1,0.9-0.2c0.2-0.2,0.5-0.3,0.6-0.6c0.2-0.2,0.3-0.5,0.4-0.9c0.1-0.3,0.1-0.7,0.1-1
		C88.2,84.1,88,83.6,87.7,83.2 M75.5,87.5c0.3-0.5,0.8-0.8,1.6-1.1v-0.1c-0.2,0-0.4-0.1-0.5-0.2c-0.2-0.1-0.4-0.2-0.5-0.4
		c-0.2-0.2-0.3-0.4-0.4-0.6c-0.1-0.2-0.1-0.5-0.1-0.7c0-0.3,0.1-0.6,0.2-0.9c0.1-0.3,0.3-0.5,0.5-0.7c0.2-0.2,0.5-0.4,0.8-0.5
		c0.3-0.1,0.7-0.2,1.1-0.2c0.5,0,0.9,0.1,1.2,0.2c0.3,0.1,0.6,0.3,0.8,0.5c0.2,0.2,0.4,0.4,0.5,0.7c0.1,0.3,0.2,0.5,0.2,0.8
		c0,0.5-0.1,0.9-0.4,1.3c-0.3,0.4-0.7,0.7-1.2,0.8v0.1c0.2,0,0.4,0.1,0.6,0.2c0.2,0.1,0.5,0.2,0.7,0.4c0.2,0.2,0.4,0.4,0.5,0.7
		c0.2,0.3,0.2,0.7,0.2,1.1c0,0.5-0.1,0.9-0.2,1.3c-0.2,0.4-0.4,0.7-0.7,1c-0.3,0.3-0.6,0.5-1,0.6c-0.4,0.1-0.8,0.2-1.2,0.2
		c-0.4,0-0.9-0.1-1.2-0.2c-0.4-0.1-0.7-0.3-1-0.5c-0.3-0.2-0.5-0.5-0.7-0.9c-0.2-0.3-0.2-0.7-0.2-1.2C75,88.5,75.2,88,75.5,87.5
		 M79.7,83.7c-0.1-0.2-0.2-0.4-0.3-0.6c-0.1-0.2-0.3-0.3-0.5-0.4c-0.2-0.1-0.4-0.1-0.7-0.1c-0.3,0-0.5,0-0.7,0.1
		c-0.2,0.1-0.4,0.2-0.5,0.4c-0.1,0.2-0.2,0.4-0.3,0.6c-0.1,0.2-0.1,0.4-0.1,0.7c0,0.2,0,0.5,0.1,0.7c0.1,0.2,0.1,0.4,0.3,0.6
		c0.1,0.2,0.3,0.3,0.5,0.4c0.2,0.1,0.4,0.1,0.7,0.1c0.3,0,0.5,0,0.7-0.1c0.2-0.1,0.3-0.2,0.5-0.4c0.1-0.2,0.2-0.4,0.3-0.6
		c0.1-0.2,0.1-0.5,0.1-0.7C79.8,84.1,79.7,83.9,79.7,83.7 M80,88.1c-0.1-0.3-0.2-0.5-0.4-0.8c-0.2-0.2-0.4-0.4-0.6-0.5
		c-0.2-0.1-0.5-0.2-0.8-0.2c-0.3,0-0.6,0.1-0.8,0.2c-0.2,0.1-0.4,0.3-0.6,0.5c-0.2,0.2-0.3,0.5-0.4,0.8c-0.1,0.3-0.1,0.6-0.1,1
		c0,0.3,0,0.7,0.1,1c0.1,0.3,0.2,0.5,0.4,0.8c0.2,0.2,0.4,0.4,0.6,0.5c0.2,0.1,0.5,0.2,0.8,0.2c0.3,0,0.6-0.1,0.8-0.2
		c0.2-0.1,0.4-0.3,0.6-0.5c0.2-0.2,0.3-0.5,0.4-0.8c0.1-0.3,0.1-0.6,0.1-1C80.1,88.7,80.1,88.4,80,88.1 M69.1,83.9
		c-0.1-0.2-0.2-0.3-0.4-0.5v-0.1c0.5-0.2,1.1-0.5,1.7-0.7c0.6-0.3,1.1-0.5,1.6-0.8L72,82c0,0.6-0.1,1.2-0.1,1.9c0,0.6,0,1.2,0,1.9
		v2.4c0,0.6,0,1.2,0,1.8c0,0.6,0,1.2,0.1,1.8c-0.1,0-0.2,0-0.3,0h-0.3H71c-0.1,0-0.2,0-0.3,0c0-0.6,0.1-1.2,0.1-1.8
		c0-0.6,0-1.2,0-1.8V83L69.1,83.9z M59.4,82.7c-0.2,0-0.5,0-0.8,0c-0.3,0-0.5,0-0.8,0c-0.3,0-0.5,0-0.8,0c-0.3,0-0.5,0-0.7,0.1
		c0-0.2,0.1-0.3,0.1-0.5c0-0.1,0-0.3-0.1-0.4c0.6,0,1.2,0,1.8,0c0.6,0,1.2,0,1.8,0c0.6,0,1.2,0,1.8,0c0.6,0,1.2,0,1.8,0
		c0,0.2-0.1,0.3-0.1,0.5c0,0.1,0,0.3,0.1,0.4c-0.2,0-0.4-0.1-0.7-0.1s-0.5,0-0.8,0c-0.3,0-0.5,0-0.8,0c-0.3,0-0.5,0-0.8,0
		c0,1,0,2,0,2.9V88c0,0.6,0,1.2,0,1.8c0,0.6,0.1,1.2,0.1,1.8c-0.2,0-0.5,0-0.7,0c-0.2,0-0.5,0-0.7,0c0-0.6,0.1-1.2,0.1-1.8
		c0-0.6,0-1.2,0-1.8v-2.4C59.4,84.6,59.4,83.6,59.4,82.7 M49.8,90.3c0.1,0.2,0.3,0.3,0.5,0.5c0.2,0.1,0.4,0.3,0.6,0.4
		c0.2,0.1,0.5,0.1,0.8,0.1c0.3,0,0.6-0.1,0.8-0.2c0.2-0.1,0.5-0.3,0.6-0.4c0.2-0.2,0.3-0.4,0.4-0.7c0.1-0.2,0.1-0.5,0.1-0.8
		c0-0.4-0.1-0.8-0.3-1c-0.2-0.3-0.5-0.5-0.8-0.6c-0.3-0.2-0.7-0.3-1.1-0.5c-0.4-0.1-0.7-0.3-1.1-0.5c-0.3-0.2-0.6-0.5-0.8-0.8
		c-0.2-0.3-0.3-0.8-0.3-1.3c0-0.4,0.1-0.8,0.2-1.1c0.1-0.3,0.3-0.6,0.6-0.8c0.3-0.2,0.6-0.4,1-0.6c0.4-0.1,0.8-0.2,1.3-0.2
		c0.5,0,0.8,0.1,1.2,0.2c0.3,0.1,0.6,0.3,0.9,0.5c-0.1,0.2-0.2,0.3-0.2,0.5c-0.1,0.2-0.1,0.4-0.2,0.7h-0.2c0-0.1-0.1-0.3-0.2-0.4
		c-0.1-0.2-0.2-0.3-0.3-0.4c-0.1-0.1-0.3-0.2-0.5-0.3c-0.2-0.1-0.4-0.1-0.7-0.1c-0.3,0-0.5,0-0.7,0.1c-0.2,0.1-0.4,0.2-0.6,0.4
		c-0.2,0.2-0.3,0.3-0.4,0.6c-0.1,0.2-0.1,0.5-0.1,0.7c0,0.4,0.1,0.8,0.3,1.1c0.2,0.3,0.5,0.5,0.8,0.6c0.3,0.2,0.7,0.3,1.1,0.5
		c0.4,0.1,0.7,0.3,1.1,0.5c0.3,0.2,0.6,0.5,0.8,0.8c0.2,0.3,0.3,0.7,0.3,1.2c0,0.4-0.1,0.8-0.2,1.2c-0.2,0.4-0.4,0.7-0.7,1
		c-0.3,0.3-0.7,0.5-1.1,0.7c-0.4,0.2-0.9,0.2-1.5,0.2c-0.6,0-1.1-0.1-1.4-0.2c-0.4-0.2-0.7-0.3-0.9-0.5c0.1-0.2,0.1-0.4,0.2-0.6
		c0-0.2,0.1-0.4,0.1-0.7h0.2C49.5,90,49.6,90.2,49.8,90.3 M42,83.7c0-0.6-0.1-1.2-0.1-1.8c0.4,0,0.8,0,1.3,0c0.4,0,0.8,0,1.3,0
		c0.4,0,0.8,0,1.3,0c0.4,0,0.8,0,1.3,0c0,0.1,0,0.3,0,0.4c0,0.1,0,0.3,0,0.4c-0.3,0-0.6,0-0.8-0.1c-0.3,0-0.5,0-0.8-0.1
		c-0.3,0-0.6,0-0.9-0.1c-0.3,0-0.7,0-1.2,0c0,0.3,0,0.6,0,0.9c0,0.3,0,0.6,0,0.9c0,0.4,0,0.7,0,1.1c0,0.4,0,0.6,0,0.8
		c0.4,0,0.8,0,1.1,0c0.3,0,0.6,0,0.9,0c0.3,0,0.5,0,0.8,0c0.2,0,0.5,0,0.7-0.1c0,0.1,0,0.3,0,0.4c0,0.1,0,0.3,0,0.4
		c-0.2,0-0.5-0.1-0.9-0.1c-0.3,0-0.7,0-1,0c-0.3,0-0.6,0-0.9,0c-0.3,0-0.5,0-0.7,0c0,0.1,0,0.2,0,0.3c0,0.1,0,0.2,0,0.4v0.6v0.9
		c0,0.5,0,1,0,1.3c0,0.3,0,0.6,0,0.8h1c0.4,0,0.7,0,1.1,0c0.3,0,0.7,0,1-0.1c0.3,0,0.6-0.1,0.8-0.1c0,0.1,0,0.1,0,0.2
		c0,0.1,0,0.2,0,0.2c0,0.2,0,0.3,0,0.4c-0.4,0-0.8,0-1.3,0h-1.3h-1.3c-0.4,0-0.9,0-1.3,0c0-0.6,0.1-1.2,0.1-1.8c0-0.6,0-1.2,0-1.8
		v-2.4C42.1,85,42.1,84.3,42,83.7"/>
	<path class="st1" d="M35.7,87.8h-35c-0.3,0-0.5-0.2-0.5-0.5c0-0.3,0.2-0.5,0.5-0.5h35c0.3,0,0.5,0.2,0.5,0.5
		C36.2,87.6,36,87.8,35.7,87.8"/>
	<path class="st1" d="M139.3,87.8h-35c-0.3,0-0.6-0.2-0.6-0.6s0.2-0.6,0.6-0.6h35c0.3,0,0.6,0.2,0.6,0.6S139.6,87.8,139.3,87.8"/>
	<path class="st1" d="M139.5,1.1H0.5C0.2,1.1,0,0.9,0,0.5S0.2,0,0.5,0h138.9c0.3,0,0.5,0.2,0.5,0.5S139.8,1.1,139.5,1.1"/>
	<path d="M35.9,16.2h-0.6c-0.2-0.4-0.5-0.9-0.9-1.5c-0.4-0.6-1-1.3-1.9-1.9c-0.8-0.6-2-1.1-3.4-1.6c-1.4-0.5-3.2-0.7-5.3-0.7
		c-5,0-8.8,1.6-11.4,4.7c-2.6,3.1-3.9,7.5-3.9,13.2c0,0.5,0,1.2,0.1,2.2c0,0.9,0.2,1.9,0.4,3.1c0.2,1.1,0.6,2.3,1.1,3.6
		c0.5,1.3,1.2,2.5,2.1,3.7c0.5,0.7,1.1,1.4,1.8,2c0.7,0.6,1.5,1.2,2.4,1.7c0.9,0.5,1.9,0.9,3,1.2c1.1,0.3,2.3,0.4,3.7,0.4
		c1.8,0,3.5-0.2,4.9-0.6c1.4-0.4,2.7-1,3.8-1.6s2.1-1.4,2.9-2.2c0.8-0.8,1.6-1.6,2.3-2.4l0.7,0.4L36.9,46c-4.6,2.5-9.6,3.8-15.2,3.8
		c-2.9,0-5.7-0.4-8.3-1.3c-2.6-0.9-4.9-2.2-6.8-4c-1.9-1.7-3.5-3.9-4.6-6.5c-1.1-2.6-1.7-5.6-1.7-8.9c0-3,0.5-5.8,1.4-8.4
		C2.7,18,4.1,15.7,6,13.7c1.9-2,4.3-3.5,7.3-4.6c2.9-1.1,6.4-1.7,10.4-1.7c2.5,0,4.8,0.2,7.1,0.7c2.2,0.5,4.6,1.2,6.9,2.3L35.9,16.2
		z"/>
	<path d="M66.9,42.3l-2.5-6.4c-1.3-0.1-2.6-0.1-3.8-0.2c-1.3,0-2.6-0.1-3.8-0.1c-1.2,0-2.4,0-3.6,0.1c-1.2,0-2.4,0.1-3.6,0.2
		c-1,2.3-1.9,4.6-2.8,6.9c-0.9,2.3-1.6,4.3-2,6.1c-0.4-0.1-0.9-0.2-1.4-0.2c-0.5-0.1-1-0.1-1.5-0.1c-0.5,0-1,0-1.4,0.1
		c-0.4,0.1-0.8,0.2-1.3,0.2l6.9-15.5c1.5-3.4,2.9-6.4,4.1-9.1c1.2-2.7,2.2-5.1,3.1-7.2c0.9-2.1,1.7-4,2.3-5.6c0.6-1.6,1.1-3,1.5-4.3
		c0.3,0.1,0.6,0.1,1,0.2c0.3,0.1,0.7,0.1,1,0.1c0.6,0,1.2-0.1,1.9-0.3c0.7,2,1.5,4.1,2.2,6.1c0.8,2,1.6,4,2.3,5.9
		c0.8,1.9,1.5,3.6,2.2,5.3c0.7,1.7,1.3,3.1,1.9,4.3c0.6,1.3,1.2,2.8,2,4.5c0.8,1.7,1.5,3.5,2.3,5.3c0.8,1.8,1.6,3.6,2.4,5.4
		c0.8,1.8,1.5,3.4,2.2,4.9c-0.4,0-1.1-0.1-2-0.2c-0.9-0.1-1.8-0.1-2.6-0.1c-0.8,0-1.6,0.1-2.4,0.1c-0.8,0.1-1.4,0.2-2,0.2L66.9,42.3
		z M57,17.5l-6.1,14.7c1,0,2.1,0.1,3.1,0.1c1,0.1,2.1,0.1,3.1,0.1c0.9,0,1.8,0,2.8-0.1c0.9,0,1.8-0.1,2.8-0.2L57,17.5z"/>
	<path d="M83.3,39.9c0.7,1.5,1.4,2.7,2.1,3.6c0.7,0.9,1.5,1.6,2.2,2.1c0.8,0.5,1.6,0.8,2.4,1c0.8,0.2,1.7,0.2,2.5,0.2
		c1.2,0,2.3-0.2,3.2-0.6c1-0.4,1.8-0.9,2.5-1.6c0.7-0.7,1.2-1.4,1.6-2.4c0.4-0.9,0.6-1.9,0.6-3c0-1.2-0.2-2.2-0.6-3
		c-0.4-0.8-0.9-1.5-1.4-2c-0.5-0.5-1.1-0.9-1.6-1.2c-0.6-0.3-1-0.5-1.3-0.6c-0.8-0.4-1.9-0.8-3.1-1.3c-1.2-0.5-2.2-0.9-3.1-1.3
		c-1.4-0.6-2.6-1.3-3.6-2c-1-0.7-1.8-1.5-2.3-2.4c-0.6-0.9-1-1.8-1.2-2.8c-0.2-1-0.4-2.1-0.4-3.4c0-1.3,0.2-2.7,0.7-4.1
		c0.4-1.4,1.2-2.7,2.2-3.9c1.1-1.2,2.5-2.1,4.3-2.9c1.8-0.8,4.1-1.1,6.8-1.1c2.2,0,4,0.2,5.5,0.7c1.5,0.5,3,1.1,4.4,1.7
		c-0.3,0.7-0.6,1.3-0.7,1.8c-0.2,0.5-0.3,0.9-0.4,1.3c-0.1,0.4-0.2,0.8-0.3,1.2c-0.1,0.4-0.2,0.9-0.3,1.4H103
		c-0.4-1.7-1.4-3-2.8-3.9c-1.4-0.9-3.1-1.3-5-1.3c-2.4,0-4.1,0.6-5.3,1.9c-1.2,1.3-1.8,2.8-1.8,4.6c0,1.1,0.2,2,0.6,2.7
		c0.4,0.7,0.9,1.4,1.6,1.9c0.7,0.6,1.6,1.1,2.6,1.5c1,0.4,2.2,0.9,3.5,1.4c1.2,0.4,2.1,0.8,3,1.2c0.8,0.3,1.5,0.7,2.2,1
		c0.6,0.3,1.2,0.6,1.6,1c0.5,0.3,0.9,0.7,1.3,1.2c0.6,0.7,1.1,1.4,1.5,2.1c0.4,0.7,0.7,1.5,0.9,2.2c0.2,0.7,0.3,1.4,0.4,2
		c0.1,0.6,0.1,1.2,0.1,1.6c0,1.5-0.3,3.1-0.8,4.6c-0.6,1.6-1.4,3-2.7,4.2c-1.2,1.3-2.8,2.3-4.7,3.1c-1.9,0.8-4.3,1.2-7,1.2
		c-1.3,0-2.5-0.1-3.6-0.3c-1.1-0.2-2.2-0.5-3.1-0.8c-0.9-0.3-1.8-0.6-2.5-1c-0.8-0.3-1.4-0.6-1.9-0.9c0.2-0.8,0.4-1.4,0.6-1.9
		c0.2-0.5,0.3-1,0.4-1.5c0.1-0.5,0.1-1,0.2-1.5c0.1-0.5,0.1-1.1,0.2-1.8H83.3z"/>
	<path d="M115.4,39.9c0.7,1.5,1.4,2.7,2.1,3.6c0.7,0.9,1.5,1.6,2.2,2.1c0.8,0.5,1.6,0.8,2.4,1c0.8,0.2,1.7,0.2,2.5,0.2
		c1.2,0,2.3-0.2,3.2-0.6c1-0.4,1.8-0.9,2.5-1.6c0.7-0.7,1.2-1.4,1.6-2.4c0.4-0.9,0.6-1.9,0.6-3c0-1.2-0.2-2.2-0.6-3
		c-0.4-0.8-0.9-1.5-1.4-2c-0.5-0.5-1.1-0.9-1.6-1.2c-0.6-0.3-1-0.5-1.3-0.6c-0.8-0.4-1.9-0.8-3.1-1.3c-1.2-0.5-2.2-0.9-3.1-1.3
		c-1.4-0.6-2.6-1.3-3.6-2c-1-0.7-1.8-1.5-2.3-2.4c-0.6-0.9-1-1.8-1.2-2.8c-0.2-1-0.4-2.1-0.4-3.4c0-1.3,0.2-2.7,0.7-4.1
		c0.4-1.4,1.2-2.7,2.2-3.9c1.1-1.2,2.5-2.1,4.3-2.9c1.8-0.8,4.1-1.1,6.8-1.1c2.2,0,4,0.2,5.5,0.7c1.5,0.5,3,1.1,4.4,1.7
		c-0.3,0.7-0.6,1.3-0.7,1.8c-0.2,0.5-0.3,0.9-0.4,1.3c-0.1,0.4-0.2,0.8-0.3,1.2c-0.1,0.4-0.2,0.9-0.3,1.4h-0.8
		c-0.4-1.7-1.4-3-2.8-3.9c-1.4-0.9-3.1-1.3-5-1.3c-2.4,0-4.1,0.6-5.3,1.9c-1.2,1.3-1.8,2.8-1.8,4.6c0,1.1,0.2,2,0.6,2.7
		c0.4,0.7,0.9,1.4,1.6,1.9c0.7,0.6,1.6,1.1,2.6,1.5c1,0.4,2.2,0.9,3.5,1.4c1.2,0.4,2.1,0.8,3,1.2c0.8,0.3,1.5,0.7,2.2,1
		c0.6,0.3,1.2,0.6,1.6,1c0.5,0.3,0.9,0.7,1.3,1.2c0.6,0.7,1.1,1.4,1.5,2.1c0.4,0.7,0.7,1.5,0.9,2.2c0.2,0.7,0.3,1.4,0.4,2
		c0.1,0.6,0.1,1.2,0.1,1.6c0,1.5-0.3,3.1-0.8,4.6c-0.6,1.6-1.4,3-2.7,4.2c-1.2,1.3-2.8,2.3-4.7,3.1c-1.9,0.8-4.3,1.2-7,1.2
		c-1.3,0-2.5-0.1-3.6-0.3c-1.1-0.2-2.2-0.5-3.1-0.8c-0.9-0.3-1.8-0.6-2.5-1c-0.8-0.3-1.4-0.6-1.9-0.9c0.2-0.8,0.4-1.4,0.6-1.9
		c0.2-0.5,0.3-1,0.4-1.5c0.1-0.5,0.1-1,0.2-1.5c0.1-0.5,0.1-1.1,0.2-1.8H115.4z"/>
	<path d="M7.7,61.5c0,0.3,0,0.6-0.1,0.8c-0.1,0.2-0.2,0.4-0.3,0.6C7.2,63,7.1,63.2,7,63.3c-0.1,0.1-0.2,0.2-0.3,0.3
		c-0.1,0.1-0.2,0.2-0.4,0.3C6.2,64,6,64.1,5.8,64.2c-0.2,0.1-0.5,0.2-0.8,0.2c-0.3,0.1-0.7,0.1-1.1,0.1c-0.3,0-0.7,0-1,0
		c-0.3,0-0.7,0-1,0c-0.3,0-0.5,0-0.8,0c-0.3,0-0.5,0-0.8,0c0-0.9,0.1-1.9,0.1-2.8c0-1,0-1.9,0-2.7c0-0.9,0-1.7,0-2.6
		c0-0.9-0.1-1.7-0.1-2.6c0.2,0,0.4,0,0.6,0c0.2,0,0.4,0,0.8,0c0.1,0,0.2,0,0.4,0c0.2,0,0.4,0,0.7,0c0.2,0,0.4,0,0.7,0
		c0.2,0,0.3,0,0.4,0c0.4,0,0.9,0,1.3,0.1c0.4,0.1,0.7,0.2,1,0.4C6.5,54.4,6.8,54.6,7,55c0.2,0.3,0.3,0.7,0.3,1.3
		c0,0.4-0.1,0.7-0.2,1c-0.2,0.3-0.4,0.5-0.6,0.7c-0.3,0.2-0.5,0.4-0.8,0.5c-0.3,0.1-0.6,0.2-1,0.3c0.4,0,0.8,0.1,1.2,0.2
		c0.4,0.1,0.7,0.3,1,0.5c0.3,0.2,0.5,0.5,0.7,0.8C7.6,60.5,7.7,61,7.7,61.5 M2.4,58.3c0.1,0,0.2,0,0.3,0c0.1,0,0.2,0,0.3,0
		c0.7,0,1.2-0.2,1.6-0.5C5,57.5,5.2,57,5.2,56.3c0-0.5-0.1-1-0.4-1.3c-0.3-0.3-0.7-0.5-1.2-0.5c-0.4,0-0.7,0-1.1,0
		c0,0.2,0,0.4,0,0.6c0,0.2,0,0.4,0,0.6V58.3z M2.4,62.3c0,0.1,0,0.3,0,0.6c0,0.3,0,0.5,0,0.7c0.2,0,0.3,0,0.4,0.1c0.1,0,0.3,0,0.4,0
		c0.7,0,1.3-0.2,1.7-0.6c0.4-0.4,0.6-0.9,0.6-1.7c0-0.5-0.1-0.8-0.2-1.1c-0.1-0.3-0.3-0.5-0.5-0.7c-0.2-0.2-0.5-0.3-0.8-0.4
		c-0.3-0.1-0.7-0.1-1.1-0.1c-0.2,0-0.4,0-0.6,0V62.3z"/>
	<path d="M11.7,54.9c0,0.6,0,1.3,0,2c0,0.7,0,1.4,0,2.1c0,0.6,0,1.1,0,1.6c0,0.4,0,0.7,0.1,1c0,0.3,0.1,0.5,0.1,0.6
		c0.1,0.2,0.2,0.3,0.3,0.5c0.2,0.3,0.6,0.5,1,0.7c0.4,0.2,0.9,0.3,1.4,0.3c0.6,0,1.2-0.1,1.7-0.4c0.5-0.3,0.8-0.7,1-1.2
		c0-0.1,0.1-0.2,0.1-0.3c0-0.1,0-0.2,0.1-0.4c0-0.2,0-0.4,0-0.6c0-0.2,0-0.5,0-0.8c0-1,0-2.1,0-3.1c0-1-0.1-2-0.1-3.1
		c0.1,0,0.2,0,0.3,0.1c0.1,0,0.2,0,0.4,0s0.3,0,0.4,0c0.1,0,0.2,0,0.4-0.1l0,0.8c0,0.3,0,0.8-0.1,1.3c0,0.5,0,1.1,0,1.7
		c0,0.6,0,1.2,0,1.7s0,1,0,1.4c0,0.5-0.1,0.9-0.1,1.2c-0.1,0.3-0.2,0.7-0.3,0.9c-0.1,0.3-0.3,0.5-0.5,0.7c-0.2,0.2-0.4,0.4-0.7,0.5
		c-0.4,0.2-0.8,0.4-1.3,0.5c-0.5,0.1-0.9,0.2-1.4,0.2c-0.5,0-1,0-1.4-0.1c-0.5-0.1-1-0.2-1.4-0.5c-0.4-0.2-0.8-0.5-1.1-0.9
		c-0.3-0.4-0.5-0.9-0.6-1.5c0-0.1,0-0.3,0-0.4v-0.4v-4.3c0-0.2,0-0.4,0-0.7c0-0.2,0-0.5,0-0.7c0-0.3,0-0.5,0-0.7c0-0.2,0-0.5,0-0.7
		c0.2,0,0.4,0,0.6,0.1c0.2,0,0.4,0,0.6,0c0.2,0,0.4,0,0.5,0c0.2,0,0.3,0,0.5-0.1L11.7,54.9z"/>
	<path d="M21.1,62.1c0.2,0.4,0.4,0.7,0.6,1c0.2,0.2,0.4,0.4,0.6,0.5c0.2,0.1,0.4,0.2,0.6,0.3c0.2,0,0.4,0.1,0.7,0.1
		c0.3,0,0.6-0.1,0.8-0.1c0.3-0.1,0.5-0.2,0.6-0.4c0.2-0.2,0.3-0.4,0.4-0.6c0.1-0.2,0.1-0.5,0.1-0.8c0-0.3-0.1-0.6-0.2-0.8
		c-0.1-0.2-0.2-0.4-0.4-0.5c-0.1-0.1-0.3-0.2-0.4-0.3c-0.1-0.1-0.3-0.1-0.3-0.2c-0.2-0.1-0.5-0.2-0.8-0.3c-0.3-0.1-0.6-0.2-0.8-0.3
		c-0.4-0.2-0.7-0.3-1-0.5c-0.3-0.2-0.5-0.4-0.6-0.6c-0.2-0.2-0.3-0.5-0.3-0.7c-0.1-0.3-0.1-0.6-0.1-0.9c0-0.3,0.1-0.7,0.2-1.1
		c0.1-0.4,0.3-0.7,0.6-1c0.3-0.3,0.7-0.6,1.1-0.8c0.5-0.2,1.1-0.3,1.8-0.3c0.6,0,1.1,0.1,1.4,0.2c0.4,0.1,0.8,0.3,1.2,0.5
		c-0.1,0.2-0.1,0.3-0.2,0.5c0,0.1-0.1,0.2-0.1,0.3c0,0.1-0.1,0.2-0.1,0.3c0,0.1-0.1,0.2-0.1,0.4h-0.2c-0.1-0.5-0.4-0.8-0.7-1
		c-0.4-0.2-0.8-0.3-1.3-0.3c-0.6,0-1.1,0.2-1.4,0.5c-0.3,0.3-0.5,0.7-0.5,1.2c0,0.3,0,0.5,0.1,0.7c0.1,0.2,0.2,0.4,0.4,0.5
		c0.2,0.1,0.4,0.3,0.7,0.4c0.3,0.1,0.6,0.2,0.9,0.4c0.3,0.1,0.6,0.2,0.8,0.3c0.2,0.1,0.4,0.2,0.6,0.3c0.2,0.1,0.3,0.2,0.4,0.3
		c0.1,0.1,0.2,0.2,0.4,0.3c0.2,0.2,0.3,0.4,0.4,0.6c0.1,0.2,0.2,0.4,0.2,0.6c0.1,0.2,0.1,0.4,0.1,0.5c0,0.2,0,0.3,0,0.4
		c0,0.4-0.1,0.8-0.2,1.2c-0.1,0.4-0.4,0.8-0.7,1.1c-0.3,0.3-0.7,0.6-1.2,0.8c-0.5,0.2-1.1,0.3-1.8,0.3c-0.3,0-0.7,0-1-0.1
		c-0.3-0.1-0.6-0.1-0.8-0.2c-0.2-0.1-0.5-0.2-0.7-0.3c-0.2-0.1-0.4-0.2-0.5-0.2c0.1-0.2,0.1-0.4,0.2-0.5c0-0.1,0.1-0.3,0.1-0.4
		c0-0.1,0-0.3,0.1-0.4c0-0.1,0-0.3,0.1-0.5H21.1z"/>
	<path d="M29.8,57.3c0-0.5,0-1,0-1.6c0-0.6-0.1-1.2-0.1-2c0.1,0,0.3,0,0.6,0.1c0.2,0,0.4,0,0.5,0c0.2,0,0.4,0,0.6,0
		c0.2,0,0.4,0,0.6-0.1c0,0.3-0.1,0.7-0.1,1.1c0,0.5,0,0.9-0.1,1.5c0,0.5,0,1,0,1.5v1.4c0,1.2,0,2.2,0,3.1c0,0.9,0.1,1.6,0.1,2.3
		c-0.2,0-0.4,0-0.6-0.1c-0.2,0-0.4,0-0.6,0c-0.2,0-0.4,0-0.6,0c-0.2,0-0.4,0-0.6,0.1c0.1-0.9,0.1-2,0.1-3.3
		C29.7,60,29.8,58.7,29.8,57.3"/>
	<path d="M34.6,58.1c0-0.7,0-1.5,0-2.2c0-0.7,0-1.5,0-2.2c0.1,0,0.1,0,0.2,0c0.1,0,0.1,0,0.2,0c0.1,0,0.1,0,0.2,0c0.1,0,0.1,0,0.2,0
		c0.4,0.4,0.7,0.8,1.1,1.2c0.4,0.4,0.7,0.8,1.1,1.2c0.4,0.4,0.8,0.8,1.2,1.2c0.4,0.4,0.9,0.9,1.3,1.3l1.9,1.8
		c0.1,0.1,0.3,0.3,0.4,0.3c0.1,0.1,0.2,0.2,0.4,0.3v-3.5c0-0.7,0-1.3-0.1-2c0-0.7-0.1-1.3-0.1-2c0.1,0,0.2,0,0.3,0.1
		c0.1,0,0.2,0,0.4,0s0.3,0,0.4,0c0.1,0,0.2,0,0.3-0.1c0,0.5-0.1,0.9-0.1,1.3c0,0.4,0,0.8-0.1,1.2c0,0.4,0,0.8,0,1.3c0,0.4,0,1,0,1.5
		v0.9c0,0.4,0,0.7,0,1.1c0,0.4,0,0.8,0,1.1V63v0.3c0,0.1,0,0.3,0,0.4c0,0.2,0,0.3,0,0.4v0.4c-0.1,0-0.1,0-0.2,0c-0.1,0-0.1,0-0.2,0
		c-0.1,0-0.1,0-0.2,0c-0.1,0-0.1,0-0.2,0c-0.3-0.4-0.7-0.8-1.1-1.2c-0.4-0.4-0.9-0.9-1.3-1.4c-0.5-0.5-0.9-1-1.4-1.4
		c-0.5-0.5-0.9-0.9-1.4-1.4c-0.5-0.4-0.9-0.8-1.3-1.2c-0.4-0.4-0.7-0.7-1-0.9v1.4c0,0.4,0,0.8,0,1.2c0,0.4,0,0.8,0,1.1
		c0,0.4,0,0.8,0,1.2c0,0.2,0,0.4,0,0.6c0,0.2,0,0.3,0,0.5c0,0.2,0,0.4,0,0.6c0,0.2,0,0.5,0.1,0.9c-0.1,0-0.2,0-0.3-0.1
		c-0.1,0-0.3,0-0.4,0c-0.1,0-0.2,0-0.3,0c-0.1,0-0.2,0-0.3,0.1l0.1-2.2c0-0.1,0-0.2,0-0.4c0-0.2,0-0.4,0-0.6c0-0.2,0-0.4,0-0.6v-0.4
		V58.1z"/>
	<path d="M48.5,58.4h0.7c0.3,0,0.6,0,0.9,0c0.3,0,0.6,0,0.9,0c0.3,0,0.6,0,0.8-0.1c0,0.1,0,0.2-0.1,0.3c0,0.1,0,0.2,0,0.3
		c0,0.2,0,0.4,0.1,0.5c-0.2,0-0.4,0-0.6,0c-0.2,0-0.4,0-0.6,0c-0.4,0-0.7,0-1.1,0c-0.4,0-0.7,0-1.1,0v4.3c0.1,0,0.3,0,0.6,0
		c0.3,0,0.6,0,1,0c0.4,0,0.7,0,1.1,0c0.4,0,0.8,0,1.1,0c-0.1,0.1-0.1,0.3-0.1,0.5c0,0.2,0,0.4,0.1,0.6c-0.9-0.1-1.9-0.1-2.9-0.1
		c-1,0-1.9,0-3,0.1c0-0.3,0-0.7,0-1c0-0.3,0-0.6,0-1c0-0.2,0-0.5,0-0.8c0-0.3,0-0.7,0-1c0-0.3,0-0.7,0-1c0-0.3,0-0.6,0-0.7
		c0-0.2,0-0.5,0-0.9c0-0.4,0-0.9,0-1.4c0-0.5,0-1,0-1.6c0-0.5,0-1-0.1-1.4c0.2,0,0.4,0,0.6,0c0.2,0,0.5,0,0.8,0c0.3,0,0.5,0,0.8,0
		c0.3,0,0.5,0,0.7,0c0.4,0,0.8,0,1.3,0c0.5,0,1,0,1.6-0.1c0,0.1,0,0.2-0.1,0.3c0,0.1,0,0.2,0,0.3c0,0.3,0,0.4,0.1,0.6l-1.5-0.1
		c-0.1,0-0.3,0-0.4,0c-0.1,0-0.2,0-0.4,0h-0.6h-0.9V58.4z"/>
	<path d="M54.3,62.1c0.2,0.4,0.4,0.7,0.6,1c0.2,0.2,0.4,0.4,0.6,0.5c0.2,0.1,0.4,0.2,0.6,0.3c0.2,0,0.4,0.1,0.7,0.1
		c0.3,0,0.6-0.1,0.8-0.1c0.3-0.1,0.5-0.2,0.6-0.4c0.2-0.2,0.3-0.4,0.4-0.6c0.1-0.2,0.1-0.5,0.1-0.8c0-0.3-0.1-0.6-0.2-0.8
		c-0.1-0.2-0.2-0.4-0.4-0.5c-0.1-0.1-0.3-0.2-0.4-0.3c-0.1-0.1-0.3-0.1-0.3-0.2c-0.2-0.1-0.5-0.2-0.8-0.3c-0.3-0.1-0.6-0.2-0.8-0.3
		c-0.4-0.2-0.7-0.3-1-0.5c-0.3-0.2-0.5-0.4-0.6-0.6c-0.2-0.2-0.3-0.5-0.3-0.7c-0.1-0.3-0.1-0.6-0.1-0.9c0-0.3,0.1-0.7,0.2-1.1
		c0.1-0.4,0.3-0.7,0.6-1c0.3-0.3,0.7-0.6,1.1-0.8c0.5-0.2,1.1-0.3,1.8-0.3c0.6,0,1.1,0.1,1.4,0.2c0.4,0.1,0.8,0.3,1.2,0.5
		c-0.1,0.2-0.1,0.3-0.2,0.5c0,0.1-0.1,0.2-0.1,0.3c0,0.1-0.1,0.2-0.1,0.3c0,0.1-0.1,0.2-0.1,0.4h-0.2c-0.1-0.5-0.4-0.8-0.7-1
		c-0.4-0.2-0.8-0.3-1.3-0.3c-0.6,0-1.1,0.2-1.4,0.5c-0.3,0.3-0.5,0.7-0.5,1.2c0,0.3,0,0.5,0.1,0.7c0.1,0.2,0.2,0.4,0.4,0.5
		c0.2,0.1,0.4,0.3,0.7,0.4c0.3,0.1,0.6,0.2,0.9,0.4c0.3,0.1,0.6,0.2,0.8,0.3c0.2,0.1,0.4,0.2,0.6,0.3c0.2,0.1,0.3,0.2,0.4,0.3
		c0.1,0.1,0.2,0.2,0.4,0.3c0.2,0.2,0.3,0.4,0.4,0.6c0.1,0.2,0.2,0.4,0.2,0.6c0.1,0.2,0.1,0.4,0.1,0.5c0,0.2,0,0.3,0,0.4
		c0,0.4-0.1,0.8-0.2,1.2c-0.1,0.4-0.4,0.8-0.7,1.1c-0.3,0.3-0.7,0.6-1.2,0.8c-0.5,0.2-1.1,0.3-1.8,0.3c-0.3,0-0.7,0-1-0.1
		c-0.3-0.1-0.6-0.1-0.8-0.2c-0.2-0.1-0.5-0.2-0.7-0.3C54,64,53.9,64,53.7,63.9c0.1-0.2,0.1-0.4,0.2-0.5c0-0.1,0.1-0.3,0.1-0.4
		c0-0.1,0-0.3,0.1-0.4c0-0.1,0-0.3,0.1-0.5H54.3z"/>
	<path d="M62.7,62.1c0.2,0.4,0.4,0.7,0.6,1c0.2,0.2,0.4,0.4,0.6,0.5c0.2,0.1,0.4,0.2,0.6,0.3c0.2,0,0.4,0.1,0.7,0.1
		c0.3,0,0.6-0.1,0.8-0.1c0.3-0.1,0.5-0.2,0.6-0.4c0.2-0.2,0.3-0.4,0.4-0.6c0.1-0.2,0.1-0.5,0.1-0.8c0-0.3-0.1-0.6-0.2-0.8
		c-0.1-0.2-0.2-0.4-0.4-0.5c-0.1-0.1-0.3-0.2-0.4-0.3c-0.1-0.1-0.3-0.1-0.3-0.2c-0.2-0.1-0.5-0.2-0.8-0.3c-0.3-0.1-0.6-0.2-0.8-0.3
		c-0.4-0.2-0.7-0.3-1-0.5c-0.3-0.2-0.5-0.4-0.6-0.6c-0.2-0.2-0.3-0.5-0.3-0.7c-0.1-0.3-0.1-0.6-0.1-0.9c0-0.3,0.1-0.7,0.2-1.1
		c0.1-0.4,0.3-0.7,0.6-1c0.3-0.3,0.7-0.6,1.1-0.8c0.5-0.2,1.1-0.3,1.8-0.3c0.6,0,1.1,0.1,1.4,0.2c0.4,0.1,0.8,0.3,1.2,0.5
		c-0.1,0.2-0.1,0.3-0.2,0.5c0,0.1-0.1,0.2-0.1,0.3c0,0.1-0.1,0.2-0.1,0.3c0,0.1-0.1,0.2-0.1,0.4h-0.2c-0.1-0.5-0.4-0.8-0.7-1
		c-0.4-0.2-0.8-0.3-1.3-0.3c-0.6,0-1.1,0.2-1.4,0.5C64.2,55.2,64,55.6,64,56c0,0.3,0,0.5,0.1,0.7c0.1,0.2,0.2,0.4,0.4,0.5
		c0.2,0.1,0.4,0.3,0.7,0.4c0.3,0.1,0.6,0.2,0.9,0.4c0.3,0.1,0.6,0.2,0.8,0.3c0.2,0.1,0.4,0.2,0.6,0.3c0.2,0.1,0.3,0.2,0.4,0.3
		c0.1,0.1,0.2,0.2,0.4,0.3c0.2,0.2,0.3,0.4,0.4,0.6c0.1,0.2,0.2,0.4,0.2,0.6c0.1,0.2,0.1,0.4,0.1,0.5c0,0.2,0,0.3,0,0.4
		c0,0.4-0.1,0.8-0.2,1.2c-0.1,0.4-0.4,0.8-0.7,1.1c-0.3,0.3-0.7,0.6-1.2,0.8c-0.5,0.2-1.1,0.3-1.8,0.3c-0.3,0-0.7,0-1-0.1
		c-0.3-0.1-0.6-0.1-0.8-0.2c-0.2-0.1-0.5-0.2-0.7-0.3c-0.2-0.1-0.4-0.2-0.5-0.2c0.1-0.2,0.1-0.4,0.2-0.5c0-0.1,0.1-0.3,0.1-0.4
		c0-0.1,0-0.3,0.1-0.4c0-0.1,0-0.3,0.1-0.5H62.7z"/>
	<path d="M75.3,62.1c0.2,0.4,0.4,0.7,0.6,1c0.2,0.2,0.4,0.4,0.6,0.5c0.2,0.1,0.4,0.2,0.6,0.3c0.2,0,0.4,0.1,0.7,0.1
		c0.3,0,0.6-0.1,0.8-0.1c0.3-0.1,0.5-0.2,0.6-0.4c0.2-0.2,0.3-0.4,0.4-0.6c0.1-0.2,0.1-0.5,0.1-0.8c0-0.3-0.1-0.6-0.2-0.8
		c-0.1-0.2-0.2-0.4-0.4-0.5c-0.1-0.1-0.3-0.2-0.4-0.3c-0.1-0.1-0.3-0.1-0.3-0.2c-0.2-0.1-0.5-0.2-0.8-0.3c-0.3-0.1-0.6-0.2-0.8-0.3
		c-0.4-0.2-0.7-0.3-1-0.5c-0.3-0.2-0.5-0.4-0.6-0.6c-0.2-0.2-0.3-0.5-0.3-0.7c-0.1-0.3-0.1-0.6-0.1-0.9c0-0.3,0.1-0.7,0.2-1.1
		s0.3-0.7,0.6-1c0.3-0.3,0.7-0.6,1.1-0.8c0.5-0.2,1.1-0.3,1.8-0.3c0.6,0,1.1,0.1,1.4,0.2c0.4,0.1,0.8,0.3,1.2,0.5
		c-0.1,0.2-0.1,0.3-0.2,0.5c0,0.1-0.1,0.2-0.1,0.3c0,0.1-0.1,0.2-0.1,0.3c0,0.1-0.1,0.2-0.1,0.4h-0.2c-0.1-0.5-0.4-0.8-0.7-1
		c-0.4-0.2-0.8-0.3-1.3-0.3c-0.6,0-1.1,0.2-1.4,0.5c-0.3,0.3-0.5,0.7-0.5,1.2c0,0.3,0,0.5,0.1,0.7c0.1,0.2,0.2,0.4,0.4,0.5
		c0.2,0.1,0.4,0.3,0.7,0.4c0.3,0.1,0.6,0.2,0.9,0.4c0.3,0.1,0.6,0.2,0.8,0.3c0.2,0.1,0.4,0.2,0.6,0.3c0.2,0.1,0.3,0.2,0.4,0.3
		c0.1,0.1,0.2,0.2,0.4,0.3c0.2,0.2,0.3,0.4,0.4,0.6c0.1,0.2,0.2,0.4,0.2,0.6c0.1,0.2,0.1,0.4,0.1,0.5c0,0.2,0,0.3,0,0.4
		c0,0.4-0.1,0.8-0.2,1.2c-0.1,0.4-0.4,0.8-0.7,1.1c-0.3,0.3-0.7,0.6-1.2,0.8c-0.5,0.2-1.1,0.3-1.8,0.3c-0.3,0-0.7,0-1-0.1
		c-0.3-0.1-0.6-0.1-0.8-0.2c-0.2-0.1-0.5-0.2-0.7-0.3C75,64,74.8,64,74.7,63.9c0.1-0.2,0.1-0.4,0.2-0.5c0-0.1,0.1-0.3,0.1-0.4
		c0-0.1,0-0.3,0.1-0.4c0-0.1,0-0.3,0.1-0.5H75.3z"/>
	<path d="M92.6,55.9h-0.2c-0.1-0.1-0.1-0.2-0.2-0.4c-0.1-0.2-0.3-0.3-0.5-0.5c-0.2-0.2-0.5-0.3-0.9-0.4c-0.4-0.1-0.8-0.2-1.4-0.2
		c-1.3,0-2.3,0.4-3,1.2c-0.7,0.8-1,2-1,3.5c0,0.1,0,0.3,0,0.6c0,0.2,0,0.5,0.1,0.8c0.1,0.3,0.2,0.6,0.3,0.9c0.1,0.3,0.3,0.7,0.6,1
		c0.1,0.2,0.3,0.4,0.5,0.5c0.2,0.2,0.4,0.3,0.6,0.5c0.2,0.1,0.5,0.2,0.8,0.3c0.3,0.1,0.6,0.1,1,0.1c0.5,0,0.9-0.1,1.3-0.2
		c0.4-0.1,0.7-0.3,1-0.4c0.3-0.2,0.5-0.4,0.8-0.6c0.2-0.2,0.4-0.4,0.6-0.6l0.2,0.1l-0.2,1.6c-1.2,0.7-2.5,1-4,1
		c-0.8,0-1.5-0.1-2.2-0.4c-0.7-0.2-1.3-0.6-1.8-1c-0.5-0.5-0.9-1-1.2-1.7c-0.3-0.7-0.4-1.5-0.4-2.3c0-0.8,0.1-1.5,0.4-2.2
		c0.2-0.7,0.6-1.3,1.1-1.8c0.5-0.5,1.1-0.9,1.9-1.2c0.8-0.3,1.7-0.4,2.7-0.4c0.7,0,1.3,0.1,1.9,0.2c0.6,0.1,1.2,0.3,1.8,0.6
		L92.6,55.9z"/>
	<path d="M102.1,59.2c-0.4,0-0.9,0-1.3,0c-0.4,0-0.8,0-1.3,0c-0.5,0-0.9,0-1.3,0c-0.4,0-0.9,0-1.3,0v1.6c0,0.5,0,0.9,0,1.3
		c0,0.4,0,0.7,0,1c0,0.3,0,0.5,0,0.8c0,0.2,0,0.5,0.1,0.7c-0.1,0-0.3,0-0.5-0.1c-0.2,0-0.4,0-0.6,0c-0.2,0-0.4,0-0.6,0
		c-0.2,0-0.4,0-0.6,0.1c0.1-1.2,0.1-2.4,0.1-3.6c0-1.2,0-2.4,0-3.6c0-0.6,0-1.2,0-1.8c0-0.6-0.1-1.2-0.1-1.8c0.2,0,0.4,0,0.6,0.1
		c0.2,0,0.4,0,0.5,0c0.1,0,0.2,0,0.3,0c0.1,0,0.2,0,0.3,0c0.1,0,0.2,0,0.3,0c0.1,0,0.2,0,0.2,0c0,0.2,0,0.4-0.1,0.7
		c0,0.2,0,0.5,0,0.8c0,0.3,0,0.7,0,1.2c0,0.5,0,1.1,0,1.8c0.4,0,0.8,0,1.2,0c0.4,0,0.8,0,1.2,0c0.5,0,1,0,1.4,0c0.5,0,0.9,0,1.4,0
		v-0.5c0-0.3,0-0.5,0-0.8c0-0.3,0-0.6,0-0.8c0-0.3,0-0.4,0-0.5v-0.3c0-0.1,0-0.2,0-0.3c0-0.1,0-0.3,0-0.4c0-0.2,0-0.4,0-0.7
		c0.1,0,0.3,0,0.6,0.1c0.2,0,0.4,0,0.6,0c0.1,0,0.3,0,0.6,0c0.2,0,0.4,0,0.6-0.1c-0.1,0.4-0.1,0.9-0.1,1.6c0,0.6,0,1.3-0.1,2
		c0,0.7,0,1.3,0,2c0,0.6,0,1.2,0,1.6c0,0.6,0,1.3,0,1.9c0,0.6,0.1,1.2,0.1,1.8c-0.2,0-0.4,0-0.6-0.1c-0.2,0-0.4,0-0.6,0
		c-0.2,0-0.3,0-0.5,0c-0.2,0-0.4,0-0.5,0.1c0-0.1,0-0.2,0-0.5c0-0.2,0-0.5,0-0.8c0-0.3,0-0.6,0-0.9s0-0.5,0-0.6L102.1,59.2z"/>
	<path d="M112.2,53.6c0.7,0,1.5,0.1,2.1,0.3c0.7,0.2,1.3,0.5,1.9,1s1,1,1.3,1.7c0.3,0.7,0.5,1.5,0.5,2.4c0,0.9-0.1,1.7-0.4,2.4
		c-0.3,0.7-0.7,1.3-1.2,1.8c-0.5,0.5-1.1,0.9-1.9,1.2c-0.7,0.3-1.5,0.4-2.4,0.4c-0.8,0-1.6-0.1-2.3-0.4c-0.7-0.2-1.3-0.6-1.9-1
		c-0.5-0.5-0.9-1-1.2-1.7c-0.3-0.7-0.5-1.4-0.5-2.3c0-1,0.2-1.9,0.5-2.6c0.3-0.7,0.7-1.3,1.3-1.8c0.5-0.5,1.2-0.8,1.9-1
		C110.6,53.7,111.4,53.6,112.2,53.6 M108.4,59.1c0,0.6,0.1,1.2,0.2,1.7c0.1,0.6,0.3,1.1,0.6,1.5c0.3,0.4,0.7,0.8,1.1,1.1
		c0.5,0.3,1,0.4,1.7,0.4c0.7,0,1.2-0.1,1.7-0.4c0.5-0.3,0.8-0.7,1.1-1.1c0.3-0.5,0.5-1,0.7-1.5c0.1-0.6,0.2-1.1,0.2-1.7
		c0-0.6-0.1-1.2-0.2-1.8c-0.1-0.6-0.3-1.1-0.6-1.5c-0.3-0.4-0.7-0.8-1.1-1c-0.5-0.3-1.1-0.4-1.7-0.4c-0.7,0-1.3,0.1-1.7,0.4
		c-0.5,0.3-0.8,0.7-1.1,1.1c-0.3,0.5-0.5,1-0.6,1.5C108.5,58,108.4,58.6,108.4,59.1"/>
	<path d="M125.6,53.6c0.7,0,1.5,0.1,2.1,0.3c0.7,0.2,1.3,0.5,1.9,1c0.5,0.4,1,1,1.3,1.7c0.3,0.7,0.5,1.5,0.5,2.4
		c0,0.9-0.1,1.7-0.4,2.4c-0.3,0.7-0.7,1.3-1.2,1.8c-0.5,0.5-1.1,0.9-1.9,1.2c-0.7,0.3-1.5,0.4-2.4,0.4c-0.8,0-1.6-0.1-2.3-0.4
		c-0.7-0.2-1.3-0.6-1.9-1c-0.5-0.5-0.9-1-1.2-1.7c-0.3-0.7-0.5-1.4-0.5-2.3c0-1,0.2-1.9,0.5-2.6c0.3-0.7,0.7-1.3,1.3-1.8
		c0.5-0.5,1.2-0.8,1.9-1C124,53.7,124.8,53.6,125.6,53.6 M121.8,59.1c0,0.6,0.1,1.2,0.2,1.7c0.1,0.6,0.3,1.1,0.6,1.5
		c0.3,0.4,0.7,0.8,1.1,1.1c0.5,0.3,1,0.4,1.7,0.4c0.7,0,1.2-0.1,1.7-0.4c0.5-0.3,0.8-0.7,1.1-1.1c0.3-0.5,0.5-1,0.7-1.5
		c0.1-0.6,0.2-1.1,0.2-1.7c0-0.6-0.1-1.2-0.2-1.8c-0.1-0.6-0.3-1.1-0.6-1.5c-0.3-0.4-0.7-0.8-1.1-1c-0.5-0.3-1.1-0.4-1.7-0.4
		c-0.7,0-1.3,0.1-1.7,0.4c-0.5,0.3-0.8,0.7-1.1,1.1c-0.3,0.5-0.5,1-0.6,1.5C121.9,58,121.8,58.6,121.8,59.1"/>
	<path d="M133.7,58v-0.4c0-0.1,0-0.3,0-0.4c0-0.2,0-0.3,0-0.6c0-0.2,0-0.5,0-0.8c0-0.1,0-0.2,0-0.4c0-0.2,0-0.4,0-0.6
		c0-0.2,0-0.4,0-0.6c0-0.2,0-0.3,0-0.4c0.2,0,0.4,0.1,0.5,0.1c0.2,0,0.3,0,0.5,0c0.2,0,0.4,0,0.6,0c0.2,0,0.4,0,0.6-0.1
		c0,0.6-0.1,1.2-0.1,1.7c0,0.6,0,1.1,0,1.7c0,0.6,0,1.1,0,1.7c0,0.6,0,1.1,0,1.7c0,0.6,0,1.1,0,1.6c0,0.5,0,1,0,1.4h0.3h0.6
		c0.3,0,0.6,0,1,0c0.4,0,0.7,0,1.1-0.1c0.4,0,0.7-0.1,0.9-0.1c0,0.1,0,0.2-0.1,0.2c0,0.1,0,0.2,0,0.4c0,0.1,0,0.2,0,0.3
		c0,0.1,0,0.2,0.1,0.3c-0.2,0-0.4,0-0.7,0c-0.3,0-0.5,0-0.8,0c-0.3,0-0.5,0-0.8,0c-0.3,0-0.5,0-0.7,0c-0.5,0-1,0-1.4,0
		c-0.5,0-1,0-1.6,0.1c0,0,0-0.2,0-0.4s0-0.5,0-0.8c0-0.3,0-0.6,0-1c0-0.3,0-0.7,0-1c0-0.3,0-0.6,0-0.8c0-0.2,0-0.4,0-0.4V58z"/>
	<path d="M5.9,75.4c-0.1,0.1-0.3,0.1-0.5,0.2c-0.2,0.1-0.4,0.1-0.6,0.1c-0.2,0-0.5,0.1-0.7,0.1c-0.5,0-1-0.1-1.5-0.2
		c-0.4-0.1-0.8-0.4-1.2-0.7c-0.3-0.3-0.6-0.7-0.8-1.1c-0.2-0.4-0.3-0.9-0.3-1.5c0-0.6,0.1-1.1,0.3-1.5c0.2-0.4,0.4-0.8,0.8-1.1
		c0.3-0.3,0.7-0.5,1.2-0.7c0.5-0.2,1-0.2,1.5-0.2c0.4,0,0.8,0,1.2,0.1c0.4,0.1,0.7,0.2,1,0.3c-0.1,0.1-0.1,0.2-0.1,0.4
		c0,0.2-0.1,0.3-0.1,0.4l-0.1,0c-0.1-0.1-0.2-0.2-0.3-0.3c-0.1-0.1-0.3-0.2-0.4-0.3s-0.3-0.2-0.5-0.2C4.7,69.1,4.4,69,4.2,69
		c-0.4,0-0.8,0.1-1.1,0.2c-0.3,0.1-0.6,0.3-0.9,0.6c-0.2,0.3-0.4,0.6-0.6,1c-0.1,0.4-0.2,0.9-0.2,1.4s0.1,1,0.2,1.4
		c0.1,0.4,0.3,0.7,0.6,1c0.3,0.3,0.5,0.5,0.9,0.6c0.3,0.1,0.7,0.2,1.1,0.2c0.2,0,0.5,0,0.7-0.1c0.2-0.1,0.4-0.1,0.6-0.2
		c0.2-0.1,0.3-0.2,0.5-0.3c0.1-0.1,0.3-0.2,0.3-0.3l0,0l-0.1,0.6C6.1,75.3,6,75.4,5.9,75.4"/>
	<path d="M7.5,70.1c0-0.4,0-0.9-0.1-1.3c0.1,0,0.2,0,0.2,0c0.1,0,0.2,0,0.2,0c0.1,0,0.2,0,0.2,0c0.1,0,0.2,0,0.3,0
		c0,0.4,0,0.9-0.1,1.3c0,0.4,0,0.9,0,1.3v1.7c0,0.4,0,0.9,0,1.3c0,0.4,0,0.8,0.1,1.3c-0.2,0-0.3,0-0.5,0c-0.2,0-0.3,0-0.5,0
		c0-0.4,0-0.8,0.1-1.3c0-0.4,0-0.9,0-1.3v-1.7C7.6,70.9,7.6,70.5,7.5,70.1"/>
	<path d="M11.6,69.3c-0.2,0-0.4,0-0.5,0c-0.2,0-0.4,0-0.6,0c-0.2,0-0.4,0-0.5,0c-0.2,0-0.3,0-0.5,0c0-0.1,0.1-0.2,0.1-0.3
		c0-0.1,0-0.2-0.1-0.3c0.4,0,0.9,0,1.3,0c0.4,0,0.8,0,1.3,0c0.4,0,0.9,0,1.3,0c0.4,0,0.8,0,1.3,0c0,0.1-0.1,0.2-0.1,0.3
		c0,0.1,0,0.2,0.1,0.3c-0.1,0-0.3,0-0.5,0c-0.2,0-0.4,0-0.6,0c-0.2,0-0.4,0-0.6,0c-0.2,0-0.4,0-0.5,0c0,0.7,0,1.4,0,2.1v1.7
		c0,0.4,0,0.9,0,1.3c0,0.4,0,0.8,0.1,1.3c-0.2,0-0.3,0-0.5,0c-0.2,0-0.3,0-0.5,0c0-0.4,0-0.8,0.1-1.3c0-0.4,0-0.9,0-1.3v-1.7
		C11.6,70.7,11.6,70,11.6,69.3"/>
	<path d="M17,72.4c-0.1-0.2-0.3-0.5-0.4-0.7c-0.2-0.3-0.3-0.5-0.5-0.8c-0.2-0.3-0.3-0.6-0.5-0.8c-0.2-0.3-0.3-0.5-0.4-0.7
		c-0.1-0.2-0.2-0.4-0.3-0.5c0.1,0,0.2,0,0.3,0c0.1,0,0.2,0,0.3,0c0.1,0,0.2,0,0.3,0c0.1,0,0.2,0,0.3,0c0.3,0.6,0.6,1.1,0.9,1.7
		c0.3,0.6,0.6,1.1,1,1.7c0.2-0.2,0.3-0.5,0.5-0.8c0.2-0.3,0.3-0.6,0.5-0.9c0.2-0.3,0.3-0.6,0.5-0.9c0.2-0.3,0.3-0.6,0.4-0.9
		c0.2,0,0.3,0.1,0.4,0.1c0.1,0,0.2,0,0.4-0.1c-0.3,0.5-0.6,0.9-0.9,1.3c-0.3,0.4-0.5,0.7-0.7,1.1c-0.2,0.3-0.4,0.6-0.5,0.9
		c-0.1,0.3-0.3,0.5-0.4,0.7c0,0.2,0,0.5,0,0.8c0,0.3,0,0.6,0,0.8c0,0.3,0,0.5,0,0.7c0,0.2,0,0.4,0,0.6c-0.2,0-0.3,0-0.5,0
		c-0.2,0-0.3,0-0.5,0c0-0.3,0.1-0.8,0.1-1.3c0-0.5,0-1,0-1.5C17.3,72.7,17.2,72.6,17,72.4"/>
	<path d="M29.5,69.9c0-0.5,0-0.9-0.1-1.1c0.1,0,0.1,0,0.2,0c0.1,0,0.1,0,0.2,0c0.1,0,0.2,0,0.3-0.1c0,0.2,0,0.5-0.1,0.8
		c0,0.3,0,0.7-0.1,1c0,0.4,0,0.7,0,1.1c0,0.4,0,0.8,0,1.1c0,0.4-0.1,0.8-0.2,1.2c-0.1,0.4-0.3,0.7-0.6,0.9c-0.2,0.2-0.5,0.4-0.9,0.6
		c-0.3,0.1-0.8,0.2-1.2,0.2c-1,0-1.7-0.2-2.2-0.7c-0.5-0.5-0.7-1.2-0.7-2.1c0-0.3,0-0.6,0-0.8c0-0.2,0-0.5,0-0.7c0-0.6,0-1.1,0-1.5
		c0-0.4,0-0.8,0-1.1c0.1,0,0.2,0,0.3,0c0.1,0,0.2,0,0.3,0c0.1,0,0.1,0,0.2,0c0.1,0,0.1,0,0.2,0c0,0.1,0,0.3,0,0.6c0,0.2,0,0.5,0,0.8
		c0,0.3,0,0.6,0,1c0,0.3,0,0.7,0,1.1c0,0.2,0,0.5,0,0.7c0,0.2,0,0.5,0.1,0.7c0,0.2,0.1,0.5,0.2,0.7c0.1,0.2,0.2,0.4,0.4,0.5
		c0.2,0.2,0.4,0.3,0.6,0.4c0.3,0.1,0.6,0.1,0.9,0.1c0.4,0,0.7-0.1,0.9-0.2c0.2-0.1,0.5-0.2,0.6-0.4c0.2-0.2,0.3-0.4,0.4-0.6
		c0.1-0.2,0.2-0.5,0.2-0.7c0-0.2,0.1-0.5,0.1-0.7c0-0.2,0-0.5,0-0.7C29.5,71.1,29.5,70.4,29.5,69.9"/>
	<path d="M35.1,73.1c-0.9-0.9-1.7-1.9-2.6-2.8c0,0.2,0,0.4,0,0.7c0,0.3,0,0.7,0,1.3c0,0.1,0,0.3,0,0.5c0,0.2,0,0.4,0,0.6
		c0,0.2,0,0.5,0,0.7c0,0.2,0,0.4,0,0.6c0,0.2,0,0.4,0,0.5c0,0.2,0,0.3,0,0.3c-0.1,0-0.2,0-0.3,0c-0.1,0-0.3,0-0.4,0
		c0-0.1,0-0.2,0-0.4c0-0.2,0-0.4,0-0.6c0-0.2,0-0.5,0-0.8c0-0.3,0-0.6,0-0.9c0-0.3,0-0.6,0-0.9c0-0.3,0-0.5,0-0.7c0-0.6,0-1.2,0-1.6
		s0-0.8,0-1h0.2c0.4,0.4,0.8,0.9,1.3,1.4c0.5,0.5,0.9,1,1.4,1.5c0.5,0.5,0.9,1,1.3,1.4c0.4,0.4,0.8,0.8,1.1,1.1v-1.4
		c0-0.7,0-1.4,0-2c0-0.7,0-1.3-0.1-1.9c0.1,0,0.2,0.1,0.3,0.1c0.1,0,0.2,0,0.3-0.1c0,0.1,0,0.4,0,0.7c0,0.3,0,0.6-0.1,0.9
		c0,0.3,0,0.7,0,1c0,0.3,0,0.6,0,0.8v0.6c0,0.2,0,0.5,0,0.7c0,0.2,0,0.5,0,0.7c0,0.3,0,0.5,0,0.7c0,0.2,0,0.4,0,0.6v0.3h-0.1
		C36.8,74.9,36,74,35.1,73.1"/>
	<path d="M39.6,70.1c0-0.4,0-0.9-0.1-1.3c0.1,0,0.2,0,0.2,0c0.1,0,0.2,0,0.2,0c0.1,0,0.2,0,0.2,0c0.1,0,0.2,0,0.3,0
		c0,0.4,0,0.9-0.1,1.3c0,0.4,0,0.9,0,1.3v1.7c0,0.4,0,0.9,0,1.3c0,0.4,0,0.8,0.1,1.3c-0.2,0-0.3,0-0.5,0c-0.2,0-0.3,0-0.5,0
		c0-0.4,0-0.8,0.1-1.3c0-0.4,0-0.9,0-1.3v-1.7C39.6,70.9,39.6,70.5,39.6,70.1"/>
	<path d="M43.7,74.2c-0.2-0.6-0.5-1.1-0.7-1.7c-0.2-0.6-0.5-1.2-0.8-1.9c-0.3-0.6-0.5-1.2-0.8-1.8c0.1,0,0.2,0,0.3,0
		c0.1,0,0.2,0,0.3,0c0.1,0,0.2,0,0.2,0c0.1,0,0.2,0,0.3,0c0.1,0.4,0.3,0.9,0.5,1.4c0.2,0.5,0.4,1,0.6,1.5c0.2,0.5,0.4,1,0.6,1.5
		c0.2,0.5,0.4,1,0.6,1.5c0.1-0.3,0.2-0.6,0.4-0.9c0.1-0.3,0.3-0.7,0.4-1c0.1-0.4,0.3-0.7,0.4-1.1c0.1-0.4,0.3-0.7,0.4-1.1
		c0.1-0.3,0.2-0.7,0.4-1c0.1-0.3,0.2-0.6,0.3-0.8c0.1,0,0.3,0.1,0.4,0.1c0.1,0,0.2,0,0.4-0.1c-0.5,1.2-1,2.3-1.5,3.4
		c-0.5,1.1-0.9,2.3-1.4,3.4c-0.1,0-0.2,0-0.3,0c-0.1,0-0.2,0-0.3,0C44.1,75.3,43.9,74.8,43.7,74.2"/>
	<path d="M48.8,70.1c0-0.4,0-0.9-0.1-1.3c0.3,0,0.6,0,0.9,0c0.3,0,0.6,0,0.9,0c0.3,0,0.6,0,0.9,0c0.3,0,0.6,0,0.9,0
		c0,0.1,0,0.2,0,0.3s0,0.2,0,0.3c-0.2,0-0.4,0-0.6,0c-0.2,0-0.4,0-0.6,0c-0.2,0-0.4,0-0.6,0c-0.2,0-0.5,0-0.8,0c0,0.2,0,0.4,0,0.6
		c0,0.2,0,0.4,0,0.7c0,0.3,0,0.5,0,0.8c0,0.2,0,0.4,0,0.6c0.3,0,0.6,0,0.8,0c0.2,0,0.4,0,0.6,0c0.2,0,0.4,0,0.5,0c0.2,0,0.3,0,0.5,0
		c0,0.1,0,0.2,0,0.3c0,0.1,0,0.2,0,0.3c-0.2,0-0.4,0-0.6-0.1c-0.2,0-0.5,0-0.7,0s-0.4,0-0.6,0c-0.2,0-0.4,0-0.5,0c0,0.1,0,0.1,0,0.2
		c0,0.1,0,0.2,0,0.3v0.4v0.6c0,0.4,0,0.7,0,0.9c0,0.2,0,0.4,0,0.6h0.7c0.3,0,0.5,0,0.7,0c0.2,0,0.5,0,0.7,0c0.2,0,0.4,0,0.6-0.1
		c0,0,0,0.1,0,0.2c0,0.1,0,0.1,0,0.2c0,0.1,0,0.2,0,0.3c-0.3,0-0.6,0-0.9,0h-0.9h-0.9c-0.3,0-0.6,0-0.9,0c0-0.4,0-0.9,0.1-1.3
		c0-0.4,0-0.9,0-1.3v-1.7C48.8,70.9,48.8,70.5,48.8,70.1"/>
	<path d="M53.7,70.1c0-0.4,0-0.9-0.1-1.3c0.2,0,0.4,0,0.6,0c0.2,0,0.4,0,0.6,0c0.2,0,0.4,0,0.6,0c0.2,0,0.4,0,0.6,0
		c0.3,0,0.5,0,0.8,0.1c0.3,0.1,0.5,0.1,0.7,0.3c0.2,0.1,0.3,0.3,0.5,0.5c0.1,0.2,0.2,0.5,0.2,0.7c0,0.3-0.1,0.6-0.2,0.8
		c-0.1,0.2-0.3,0.4-0.5,0.6c-0.2,0.2-0.4,0.3-0.7,0.3c-0.2,0.1-0.5,0.1-0.6,0.2c0.1,0.1,0.2,0.2,0.3,0.4c0.1,0.2,0.3,0.4,0.5,0.6
		c0.2,0.2,0.4,0.4,0.5,0.7c0.2,0.2,0.4,0.5,0.5,0.7c0.2,0.2,0.3,0.4,0.5,0.6c0.2,0.2,0.3,0.3,0.4,0.4c-0.1,0-0.2,0-0.3,0H58h-0.3
		c-0.1,0-0.2,0-0.3,0c-0.1-0.1-0.3-0.3-0.5-0.6c-0.2-0.3-0.4-0.6-0.7-0.9c-0.2-0.3-0.5-0.6-0.8-1c-0.3-0.3-0.5-0.6-0.7-0.8h-0.4v0.7
		c0,0.4,0,0.9,0,1.3c0,0.4,0,0.8,0.1,1.3c-0.2,0-0.3,0-0.5,0c-0.2,0-0.3,0-0.5,0c0-0.4,0-0.8,0.1-1.3c0-0.4,0-0.9,0-1.3v-1.7
		C53.7,70.9,53.7,70.5,53.7,70.1 M54.8,72c0.1,0,0.2,0,0.4,0c0.2,0,0.4,0,0.6-0.1c0.2,0,0.4-0.1,0.6-0.2c0.2-0.1,0.3-0.3,0.5-0.5
		c0.1-0.2,0.2-0.4,0.2-0.7c0-0.3,0-0.5-0.1-0.6c-0.1-0.2-0.2-0.3-0.4-0.4c-0.2-0.1-0.3-0.2-0.5-0.2c-0.2,0-0.4-0.1-0.5-0.1
		c-0.2,0-0.4,0-0.6,0c-0.2,0-0.3,0-0.4,0c0,0.4,0,0.7,0,1.1c0,0.4,0,0.7,0,1.1V72C54.6,72,54.7,72,54.8,72"/>
	<path d="M59.7,74.7c0.1,0.1,0.2,0.2,0.3,0.3c0.1,0.1,0.3,0.2,0.5,0.2c0.2,0.1,0.4,0.1,0.6,0.1c0.2,0,0.4,0,0.6-0.1
		c0.2-0.1,0.3-0.2,0.4-0.3c0.1-0.1,0.2-0.3,0.3-0.5c0.1-0.2,0.1-0.4,0.1-0.6c0-0.3-0.1-0.5-0.2-0.7c-0.2-0.2-0.4-0.3-0.6-0.4
		c-0.2-0.1-0.5-0.2-0.8-0.3c-0.3-0.1-0.5-0.2-0.8-0.4c-0.2-0.1-0.4-0.3-0.6-0.6c-0.2-0.2-0.2-0.5-0.2-0.9c0-0.3,0.1-0.5,0.1-0.8
		c0.1-0.2,0.2-0.4,0.4-0.6c0.2-0.2,0.4-0.3,0.7-0.4c0.3-0.1,0.6-0.1,0.9-0.1c0.3,0,0.6,0,0.8,0.1c0.2,0.1,0.5,0.2,0.7,0.4
		c-0.1,0.1-0.1,0.2-0.2,0.4c0,0.1-0.1,0.3-0.1,0.5h-0.1c0-0.1-0.1-0.2-0.1-0.3c-0.1-0.1-0.1-0.2-0.2-0.3c-0.1-0.1-0.2-0.2-0.3-0.2
		c-0.1-0.1-0.3-0.1-0.5-0.1c-0.2,0-0.4,0-0.5,0.1c-0.2,0.1-0.3,0.1-0.4,0.3c-0.1,0.1-0.2,0.2-0.3,0.4c-0.1,0.2-0.1,0.3-0.1,0.5
		c0,0.3,0.1,0.6,0.2,0.7c0.2,0.2,0.4,0.3,0.6,0.5c0.2,0.1,0.5,0.2,0.8,0.3c0.3,0.1,0.5,0.2,0.8,0.4c0.2,0.1,0.4,0.3,0.6,0.5
		c0.2,0.2,0.2,0.5,0.2,0.9c0,0.3-0.1,0.6-0.2,0.9c-0.1,0.3-0.3,0.5-0.5,0.7c-0.2,0.2-0.5,0.4-0.8,0.5c-0.3,0.1-0.6,0.2-1,0.2
		c-0.4,0-0.7-0.1-1-0.2c-0.3-0.1-0.5-0.2-0.6-0.4c0.1-0.2,0.1-0.3,0.1-0.4c0-0.1,0-0.3,0.1-0.5h0.1C59.5,74.5,59.6,74.6,59.7,74.7"
		/>
	<path d="M64.5,70.1c0-0.4,0-0.9-0.1-1.3c0.1,0,0.2,0,0.2,0c0.1,0,0.2,0,0.2,0c0.1,0,0.2,0,0.2,0c0.1,0,0.2,0,0.3,0
		c0,0.4,0,0.9-0.1,1.3c0,0.4,0,0.9,0,1.3v1.7c0,0.4,0,0.9,0,1.3c0,0.4,0,0.8,0.1,1.3c-0.2,0-0.3,0-0.5,0c-0.2,0-0.3,0-0.5,0
		c0-0.4,0-0.8,0.1-1.3c0-0.4,0-0.9,0-1.3v-1.7C64.5,70.9,64.5,70.5,64.5,70.1"/>
	<path d="M68.5,69.3c-0.2,0-0.4,0-0.5,0c-0.2,0-0.4,0-0.6,0c-0.2,0-0.4,0-0.5,0c-0.2,0-0.3,0-0.5,0c0-0.1,0.1-0.2,0.1-0.3
		c0-0.1,0-0.2-0.1-0.3c0.4,0,0.9,0,1.3,0c0.4,0,0.8,0,1.3,0c0.4,0,0.9,0,1.3,0c0.4,0,0.8,0,1.3,0c0,0.1-0.1,0.2-0.1,0.3
		c0,0.1,0,0.2,0.1,0.3c-0.1,0-0.3,0-0.5,0c-0.2,0-0.4,0-0.6,0c-0.2,0-0.4,0-0.6,0c-0.2,0-0.4,0-0.5,0c0,0.7,0,1.4,0,2.1v1.7
		c0,0.4,0,0.9,0,1.3c0,0.4,0,0.8,0.1,1.3c-0.2,0-0.3,0-0.5,0c-0.2,0-0.3,0-0.5,0c0-0.4,0-0.8,0.1-1.3c0-0.4,0-0.9,0-1.3v-1.7
		C68.5,70.7,68.5,70,68.5,69.3"/>
	<path d="M74.1,72.4c-0.1-0.2-0.3-0.5-0.4-0.7c-0.2-0.3-0.3-0.5-0.5-0.8c-0.2-0.3-0.3-0.6-0.5-0.8c-0.2-0.3-0.3-0.5-0.4-0.7
		c-0.1-0.2-0.2-0.4-0.3-0.5c0.1,0,0.2,0,0.3,0c0.1,0,0.2,0,0.3,0c0.1,0,0.2,0,0.3,0c0.1,0,0.2,0,0.3,0c0.3,0.6,0.6,1.1,0.9,1.7
		c0.3,0.6,0.6,1.1,1,1.7c0.2-0.2,0.3-0.5,0.5-0.8c0.2-0.3,0.3-0.6,0.5-0.9s0.3-0.6,0.5-0.9c0.2-0.3,0.3-0.6,0.4-0.9
		c0.2,0,0.3,0.1,0.4,0.1c0.1,0,0.2,0,0.4-0.1c-0.3,0.5-0.6,0.9-0.9,1.3c-0.3,0.4-0.5,0.7-0.7,1.1c-0.2,0.3-0.4,0.6-0.5,0.9
		c-0.1,0.3-0.3,0.5-0.4,0.7c0,0.2,0,0.5,0,0.8c0,0.3,0,0.6,0,0.8c0,0.3,0,0.5,0,0.7c0,0.2,0,0.4,0,0.6c-0.2,0-0.3,0-0.5,0
		c-0.2,0-0.3,0-0.5,0c0-0.3,0.1-0.8,0.1-1.3c0-0.5,0-1,0-1.5C74.3,72.7,74.2,72.6,74.1,72.4"/>
	<path d="M81,70.7c0.2-0.4,0.4-0.8,0.8-1.1c0.3-0.3,0.7-0.5,1.2-0.7c0.5-0.2,1-0.2,1.5-0.2c0.6,0,1.1,0.1,1.5,0.2
		c0.5,0.2,0.9,0.4,1.2,0.7c0.3,0.3,0.6,0.7,0.8,1.1c0.2,0.4,0.3,0.9,0.3,1.5c0,0.6-0.1,1.1-0.3,1.5c-0.2,0.4-0.4,0.8-0.8,1.1
		c-0.3,0.3-0.7,0.5-1.2,0.7c-0.5,0.1-1,0.2-1.5,0.2c-0.5,0-1-0.1-1.5-0.2c-0.5-0.2-0.9-0.4-1.2-0.7c-0.3-0.3-0.6-0.7-0.8-1.1
		c-0.2-0.4-0.3-0.9-0.3-1.5C80.8,71.7,80.9,71.2,81,70.7 M87.1,70.8c-0.1-0.4-0.3-0.7-0.6-1c-0.2-0.3-0.5-0.5-0.9-0.6
		c-0.3-0.1-0.7-0.2-1.1-0.2c-0.4,0-0.7,0.1-1.1,0.2c-0.3,0.1-0.6,0.3-0.9,0.6c-0.3,0.3-0.4,0.6-0.6,1c-0.1,0.4-0.2,0.9-0.2,1.4
		c0,0.6,0.1,1,0.2,1.4c0.1,0.4,0.3,0.7,0.6,1c0.2,0.3,0.5,0.5,0.9,0.6c0.3,0.1,0.7,0.2,1.1,0.2c0.4,0,0.8-0.1,1.1-0.2
		c0.3-0.1,0.6-0.3,0.9-0.6c0.2-0.3,0.4-0.6,0.6-1c0.1-0.4,0.2-0.9,0.2-1.4C87.3,71.7,87.2,71.2,87.1,70.8"/>
	<path d="M89.5,70.1c0-0.4,0-0.9-0.1-1.3c0.3,0,0.6,0,0.9,0c0.3,0,0.6,0,0.9,0c0.3,0,0.6,0,0.9,0c0.3,0,0.6,0,1,0c0,0.1,0,0.2,0,0.3
		c0,0.1,0,0.2,0,0.3c-0.2,0-0.4,0-0.6-0.1c-0.3,0-0.5,0-0.8,0c-0.3,0-0.5,0-0.8,0c-0.2,0-0.4,0-0.6,0c0,0.2,0,0.5,0,0.7
		c0,0.2,0,0.4,0,0.6c0,0.2,0,0.4,0,0.6c0,0.2,0,0.4,0,0.6c0.4,0,0.9,0,1.3,0c0.4,0,0.9,0,1.3-0.1c0,0.1,0,0.2,0,0.3
		c0,0.1,0,0.2,0,0.3c-0.2,0-0.4,0-0.6,0c-0.2,0-0.4,0-0.7,0c-0.2,0-0.5,0-0.7,0h-0.7v0.8c0,0.4,0,0.9,0,1.3c0,0.4,0,0.8,0.1,1.3
		c-0.2,0-0.3,0-0.5,0c-0.2,0-0.3,0-0.5,0c0-0.4,0-0.8,0.1-1.3c0-0.4,0-0.9,0-1.3v-1.7C89.5,70.9,89.5,70.5,89.5,70.1"/>
	<path d="M97,70.1c0-0.4,0-0.9-0.1-1.3c0.1,0,0.2,0,0.2,0c0.1,0,0.2,0,0.2,0c0.1,0,0.2,0,0.2,0c0.1,0,0.2,0,0.3,0
		c0,0.4,0,0.9-0.1,1.3c0,0.4,0,0.9,0,1.3c0,0.8,0,1.6,0,2.2c0,0.6,0,1.2,0,1.7c0.5,0,0.9,0,1.4,0c0.4,0,0.9,0,1.4-0.1
		c0,0.1-0.1,0.2-0.1,0.3c0,0.1,0,0.2,0.1,0.3c-0.3,0-0.6,0-0.9,0h-0.9h-0.9c-0.3,0-0.6,0-0.9,0c0-0.4,0-0.8,0.1-1.3
		c0-0.4,0-0.9,0-1.3v-1.7C97.1,70.9,97.1,70.5,97,70.1"/>
	<path d="M101.6,70.7c0.2-0.4,0.4-0.8,0.8-1.1c0.3-0.3,0.7-0.5,1.2-0.7c0.5-0.2,1-0.2,1.5-0.2c0.6,0,1.1,0.1,1.5,0.2
		c0.5,0.2,0.9,0.4,1.2,0.7c0.3,0.3,0.6,0.7,0.8,1.1c0.2,0.4,0.3,0.9,0.3,1.5c0,0.6-0.1,1.1-0.3,1.5c-0.2,0.4-0.4,0.8-0.8,1.1
		c-0.3,0.3-0.7,0.5-1.2,0.7c-0.5,0.1-1,0.2-1.5,0.2c-0.5,0-1-0.1-1.5-0.2c-0.5-0.2-0.9-0.4-1.2-0.7c-0.3-0.3-0.6-0.7-0.8-1.1
		c-0.2-0.4-0.3-0.9-0.3-1.5C101.4,71.7,101.5,71.2,101.6,70.7 M107.7,70.8c-0.1-0.4-0.3-0.7-0.6-1c-0.2-0.3-0.5-0.5-0.9-0.6
		c-0.3-0.1-0.7-0.2-1.1-0.2c-0.4,0-0.7,0.1-1.1,0.2c-0.3,0.1-0.6,0.3-0.9,0.6c-0.3,0.3-0.4,0.6-0.6,1c-0.1,0.4-0.2,0.9-0.2,1.4
		c0,0.6,0.1,1,0.2,1.4c0.1,0.4,0.3,0.7,0.6,1c0.2,0.3,0.5,0.5,0.9,0.6c0.3,0.1,0.7,0.2,1.1,0.2c0.4,0,0.8-0.1,1.1-0.2
		c0.3-0.1,0.6-0.3,0.9-0.6c0.2-0.3,0.4-0.6,0.6-1c0.1-0.4,0.2-0.9,0.2-1.4C107.9,71.7,107.8,71.2,107.7,70.8"/>
	<path d="M113.3,73.1c-0.9-0.9-1.7-1.9-2.6-2.8c0,0.2,0,0.4,0,0.7c0,0.3,0,0.7,0,1.3c0,0.1,0,0.3,0,0.5c0,0.2,0,0.4,0,0.6
		c0,0.2,0,0.5,0,0.7c0,0.2,0,0.4,0,0.6c0,0.2,0,0.4,0,0.5c0,0.2,0,0.3,0,0.3c-0.1,0-0.2,0-0.3,0c-0.1,0-0.3,0-0.4,0
		c0-0.1,0-0.2,0-0.4c0-0.2,0-0.4,0-0.6c0-0.2,0-0.5,0-0.8c0-0.3,0-0.6,0-0.9c0-0.3,0-0.6,0-0.9c0-0.3,0-0.5,0-0.7c0-0.6,0-1.2,0-1.6
		s0-0.8,0-1h0.2c0.4,0.4,0.8,0.9,1.3,1.4c0.5,0.5,0.9,1,1.4,1.5c0.5,0.5,0.9,1,1.3,1.4c0.4,0.4,0.8,0.8,1.1,1.1v-1.4
		c0-0.7,0-1.4,0-2c0-0.7,0-1.3-0.1-1.9c0.1,0,0.2,0.1,0.3,0.1c0.1,0,0.2,0,0.3-0.1c0,0.1,0,0.4,0,0.7c0,0.3,0,0.6-0.1,0.9
		c0,0.3,0,0.7,0,1c0,0.3,0,0.6,0,0.8v0.6c0,0.2,0,0.5,0,0.7c0,0.2,0,0.5,0,0.7c0,0.3,0,0.5,0,0.7c0,0.2,0,0.4,0,0.6v0.3h-0.1
		C115,74.9,114.2,74,113.3,73.1"/>
	<path d="M117.8,70.1c0-0.4,0-0.9-0.1-1.3c0.3,0,0.5,0,0.8,0c0.2,0,0.5,0,0.8,0c0.3,0,0.5,0,0.8,0c0.2,0,0.5,0,0.8,0
		c0.6,0,1.1,0.1,1.5,0.2c0.4,0.2,0.8,0.4,1,0.7c0.3,0.3,0.5,0.6,0.6,1c0.1,0.4,0.2,0.9,0.2,1.4c0,0.7-0.1,1.2-0.3,1.7
		c-0.2,0.5-0.5,0.8-0.9,1.1c-0.4,0.3-0.7,0.5-1.2,0.6c-0.4,0.1-0.8,0.2-1.2,0.2c-0.2,0-0.5,0-0.7,0c-0.2,0-0.4,0-0.7,0h-0.7
		c-0.2,0-0.4,0-0.7,0c0-0.4,0-0.8,0.1-1.3c0-0.4,0-0.9,0-1.3v-1.7C117.8,70.9,117.8,70.5,117.8,70.1 M118.7,75.2
		c0.1,0,0.3,0.1,0.6,0.1c0.2,0,0.5,0,0.7,0c0.4,0,0.7,0,1.1-0.1c0.4-0.1,0.7-0.2,1-0.5c0.3-0.2,0.5-0.6,0.7-1c0.2-0.4,0.3-1,0.3-1.6
		c0-0.6-0.1-1.1-0.2-1.4s-0.3-0.7-0.6-0.9c-0.3-0.2-0.5-0.4-0.9-0.5s-0.7-0.1-1.1-0.1c-0.3,0-0.6,0-0.8,0c-0.3,0-0.5,0-0.7,0.1
		c0,0.3,0,0.7,0,1c0,0.3,0,0.7,0,1.1v1.7C118.6,73.8,118.6,74.5,118.7,75.2"/>
	<path d="M125.2,70.7c0.2-0.4,0.4-0.8,0.8-1.1c0.3-0.3,0.7-0.5,1.2-0.7c0.5-0.2,1-0.2,1.5-0.2c0.6,0,1.1,0.1,1.5,0.2
		c0.5,0.2,0.9,0.4,1.2,0.7c0.3,0.3,0.6,0.7,0.8,1.1c0.2,0.4,0.3,0.9,0.3,1.5c0,0.6-0.1,1.1-0.3,1.5c-0.2,0.4-0.4,0.8-0.8,1.1
		s-0.7,0.5-1.2,0.7c-0.5,0.1-1,0.2-1.5,0.2c-0.5,0-1-0.1-1.5-0.2c-0.5-0.2-0.9-0.4-1.2-0.7c-0.3-0.3-0.6-0.7-0.8-1.1
		c-0.2-0.4-0.3-0.9-0.3-1.5C124.9,71.7,125,71.2,125.2,70.7 M131.2,70.8c-0.1-0.4-0.3-0.7-0.6-1c-0.2-0.3-0.5-0.5-0.9-0.6
		c-0.3-0.1-0.7-0.2-1.1-0.2c-0.4,0-0.7,0.1-1.1,0.2c-0.3,0.1-0.6,0.3-0.9,0.6c-0.3,0.3-0.4,0.6-0.6,1c-0.1,0.4-0.2,0.9-0.2,1.4
		c0,0.6,0.1,1,0.2,1.4c0.1,0.4,0.3,0.7,0.6,1c0.2,0.3,0.5,0.5,0.9,0.6c0.3,0.1,0.7,0.2,1.1,0.2c0.4,0,0.8-0.1,1.1-0.2
		c0.3-0.1,0.6-0.3,0.9-0.6c0.2-0.3,0.4-0.6,0.6-1c0.1-0.4,0.2-0.9,0.2-1.4C131.4,71.7,131.3,71.2,131.2,70.8"/>
	<path d="M136.8,73.1c-0.9-0.9-1.7-1.9-2.6-2.8c0,0.2,0,0.4,0,0.7c0,0.3,0,0.7,0,1.3c0,0.1,0,0.3,0,0.5c0,0.2,0,0.4,0,0.6
		c0,0.2,0,0.5,0,0.7c0,0.2,0,0.4,0,0.6c0,0.2,0,0.4,0,0.5c0,0.2,0,0.3,0,0.3c-0.1,0-0.2,0-0.3,0c-0.1,0-0.3,0-0.4,0
		c0-0.1,0-0.2,0-0.4c0-0.2,0-0.4,0-0.6c0-0.2,0-0.5,0-0.8c0-0.3,0-0.6,0-0.9c0-0.3,0-0.6,0-0.9c0-0.3,0-0.5,0-0.7c0-0.6,0-1.2,0-1.6
		c0-0.5,0-0.8,0-1h0.2c0.4,0.4,0.8,0.9,1.3,1.4s0.9,1,1.4,1.5c0.5,0.5,0.9,1,1.3,1.4c0.4,0.4,0.8,0.8,1.1,1.1v-1.4c0-0.7,0-1.4,0-2
		c0-0.7,0-1.3-0.1-1.9c0.1,0,0.2,0.1,0.3,0.1c0.1,0,0.2,0,0.3-0.1c0,0.1,0,0.4,0,0.7c0,0.3,0,0.6-0.1,0.9c0,0.3,0,0.7,0,1
		c0,0.3,0,0.6,0,0.8v0.6c0,0.2,0,0.5,0,0.7c0,0.2,0,0.5,0,0.7c0,0.3,0,0.5,0,0.7c0,0.2,0,0.4,0,0.6v0.3h-0.1
		C138.5,74.9,137.7,74,136.8,73.1"/>
	<path d="M19.7,76.3c0.3-0.4,0.8-1,1.1-1.6c-0.2,0-0.2,0-0.4,0c-0.1,0-0.2,0-0.3-0.1c-0.1,0.2-0.2,0.4-0.3,0.6
		c-0.1,0.2-0.2,0.5-0.4,0.8c0,0.1,0,0.1-0.1,0.2C19.5,76.2,19.7,76.3,19.7,76.3"/>
</g>
</svg>
