<?xml version="1.0" encoding="utf-8"?>
<!-- Generator: Adobe Illustrator 21.0.2, SVG Export Plug-In . SVG Version: 6.00 Build 0)  -->
<svg version="1.1" id="Layer_1" xmlns="http://www.w3.org/2000/svg" xmlns:xlink="http://www.w3.org/1999/xlink" x="0px" y="0px"
	 viewBox="0 0 116 28.6" style="enable-background:new 0 0 116 28.6;" xml:space="preserve">
<style type="text/css">
	.st0{fill:#FFFFFF;}
</style>
<g>
	<g>
		<path class="st0" d="M6.1,20.7h-1v4.4c0,2.3-1.6,2.5-2.1,2.5s-2.1-0.2-2.1-2.5v-4.4H0v4.4c0,2.5,1.5,3.5,3,3.5s3-0.9,3-3.5
			L6.1,20.7L6.1,20.7z"/>
		<polygon class="st0" points="16,20.7 15,20.7 15,26.8 10.6,20.7 9.1,20.7 9.7,21.4 9.7,28.3 10.6,28.3 10.6,22.3 14.9,28.3 
			16,28.3 		"/>
		<rect x="20.1" y="20.7" class="st0" width="1" height="7.7"/>
		<path class="st0" d="M25.3,24.9c0.5,1.5,1.2,3.5,1.2,3.5h1.2c0,0,0.9-2.8,1.2-3.5c0.2-0.7,1.5-4.3,1.5-4.3h-1.1L27,27.3l-2.2-6.6
			h-1.1L25.3,24.9z"/>
		<polygon class="st0" points="36.2,24.7 36.5,23.8 34.1,23.8 34.1,21.5 37.2,21.5 37.5,20.7 33.1,20.7 33.1,28.3 37.3,28.3 
			37.6,27.5 34.1,27.5 34.1,24.7 		"/>
		<path class="st0" d="M42.4,20.7h-2.2v7.7h1v-3.5h1.2l2.4,3.5H46l-2.6-3.7l0.1-0.1c0.9-0.4,1.4-1,1.4-1.9
			C44.8,22,44.3,20.7,42.4,20.7 M41.2,21.5h1c0.9,0,1.5,0.4,1.5,1.2c0,0.8-0.6,1.3-1.5,1.3h-1V21.5z"/>
		<path class="st0" d="M50.2,20.5c-1.3,0-2.3,0.9-2.3,2.1c0,1.2,1,1.7,2,2.2c0.9,0.4,1.7,0.7,1.7,1.5c0,0.7-0.6,1.3-1.4,1.3
			c-0.9,0-1.5-0.5-1.9-1.5V26l-0.9,0.6v0.1c0.6,1.3,1.5,1.9,2.9,1.9c1.2,0,2.4-0.9,2.4-2.3c0-1.4-1.2-1.9-2.2-2.4
			c-0.8-0.4-1.5-0.7-1.5-1.3c0-0.4,0.2-1,1.2-1c0.6,0,1.2,0.3,1.5,0.9v0.1l0.7-0.6v-0.1C51.9,20.9,51.1,20.5,50.2,20.5"/>
		<rect x="55.9" y="20.7" class="st0" width="1" height="7.7"/>
		<polygon class="st0" points="65.3,20.7 59.5,20.7 59.5,21.5 61.9,21.5 61.9,28.3 62.9,28.3 62.9,21.5 65,21.5 		"/>
		<polygon class="st0" points="72.4,20.6 71.2,20.6 69.2,24.1 67.1,20.6 66,20.6 68.7,25.1 68.7,28.3 69.7,28.3 69.7,25.1 		"/>
	</g>
	<polygon class="st0" points="3.3,3.4 3.3,6.6 8.8,6.6 7.7,9.7 3.3,9.7 3.3,15.7 0,15.7 0,0.3 11.1,0.3 10,3.4 	"/>
	<polygon class="st0" points="17.5,12.6 14.1,12.6 13.1,15.7 9.4,15.7 14.7,2.3 14.2,0.3 18.6,0.3 24.6,15.7 21,15.7 17,4.7 
		15.2,9.8 18.5,9.8 	"/>
	<polygon class="st0" points="26.7,15.7 26.7,0.3 30,0.3 30,12.6 36,12.6 34.9,15.7 	"/>
	<polygon class="st0" points="49.8,15.7 49.8,6 45.3,11.9 40.8,6 40.8,15.7 37.5,15.7 37.5,2.2 36,0.3 40.6,0.3 45.3,6.4 50,0.3 
		53.1,0.3 53.1,15.7 	"/>
	<path class="st0" d="M64,16c-4.9,0-8.3-4.1-8.3-8S59,0,64,0s8.3,4.1,8.3,8S68.9,16,64,16 M64,3.1c-2.7,0-4.8,2.1-4.8,4.9
		c0,2.8,2,4.9,4.8,4.9c2.7,0,4.8-2.1,4.8-4.9C68.8,5.2,66.7,3.1,64,3.1"/>
	<path class="st0" d="M84.5,0.3v8.3c0,3.8-2.3,4.2-3.3,4.2c-1,0-3.3-0.4-3.3-4.2V0.3h-3.3v8.2c0,5.5,3.4,7.5,6.6,7.5
		c3.2,0,6.6-2,6.6-7.5V0.3H84.5z"/>
	<polygon class="st0" points="89.2,0.3 89.2,3.4 93.5,3.4 93.5,15.7 96.8,15.7 96.8,3.4 100.5,3.4 101.6,0.3 	"/>
	<path class="st0" d="M112.7,0.3h3.3v15.4h-3.3V0.3z M111.1,9.3h-5v6.4h-3.3V0.3h3.3v5.9h6.1L111.1,9.3z"/>
</g>
</svg>
