<?xml version="1.0" encoding="utf-8"?>
<!-- Generator: Adobe Illustrator 21.0.2, SVG Export Plug-In . SVG Version: 6.00 Build 0)  -->
<svg version="1.1" id="图层_1" xmlns="http://www.w3.org/2000/svg" xmlns:xlink="http://www.w3.org/1999/xlink" x="0px" y="0px"
	 viewBox="0 0 140 37.2" style="enable-background:new 0 0 140 37.2;" xml:space="preserve">
<style type="text/css">
	.st0{fill:#FFFFFF;}
</style>
<g>
	<path class="st0" d="M53.9,23.9c-1.4,0-2-0.3-2.7-1.5c1.4-1.4,2.1-3.7,2.1-6.4c0-4.7-2.3-8.1-6.2-8.1c-4,0-6.2,3.5-6.2,8.1
		s2.3,8.1,6.2,8.1c1.2,0,2.2-0.3,3.1-0.9c0.8,1.5,2.3,2,3.7,2V23.9z M50.6,21.1c-0.8-1.2-1.8-1.9-3.1-2.1v1.4
		c0.9,0.1,1.4,0.5,2.1,1.7c-0.7,0.5-1.6,0.8-2.5,0.8c-2.9,0-4.8-2.5-4.8-6.9s1.9-6.9,4.8-6.9c2.9,0,4.8,2.5,4.8,6.9
		C51.9,18.2,51.4,20,50.6,21.1z"/>
	<path class="st0" d="M57.8,24.1c1.7,0,2.7-0.7,3.9-2v1.8H63V12.5h-1.3v8.4c-1.4,1.3-2.2,2.2-3.6,2.2c-1.7,0-2.3-1-2.3-2.9v-7.6
		h-1.3v7.8C54.4,22.8,55.4,24.1,57.8,24.1z"/>
	<path class="st0" d="M72.4,20.8c-1.1,1.8-1.9,2.3-3.3,2.3c-2.6,0-3.7-2.2-3.7-4.8h7.9c0-3.5-1.5-6-4.5-6c-2.9,0-4.7,2.4-4.7,5.9
		c0,4,1.9,5.9,4.9,5.9c2.2,0,3.3-0.8,4.5-2.8L72.4,20.8z M68.7,13.3c2,0,3,1.5,3.3,3.8h-6.6C65.4,15.7,66.4,13.3,68.7,13.3z"/>
	<path class="st0" d="M82.6,20.8c-1.1,1.8-1.9,2.3-3.3,2.3c-2.6,0-3.7-2.2-3.7-4.8h7.9c0-3.5-1.5-6-4.6-6c-2.9,0-4.7,2.4-4.7,5.9
		c0,4,1.9,5.9,4.9,5.9c2.2,0,3.3-0.8,4.5-2.8L82.6,20.8z M79,13.3c2,0,3,1.5,3.3,3.8h-6.6C75.7,15.7,76.7,13.3,79,13.3z"/>
	<path class="st0" d="M92,23.9h1.3v-7.8c0-2.5-1-3.8-3.4-3.8c-1.7,0-2.7,0.7-3.9,2v-1.8h-1.3v11.4h1.3v-8.4c1.4-1.3,2.2-2.2,3.6-2.2
		c1.8,0,2.3,1,2.3,2.9V23.9z"/>
	<polygon class="st0" points="107.1,21.5 107,21.5 102.7,8.1 100.1,8.1 100.1,23.9 101.6,23.9 101.6,9.3 101.6,9.3 106.4,23.9 
		107.7,23.9 112.5,9.3 112.5,9.3 112.5,23.9 114,23.9 114,8.1 111.4,8.1 	"/>
	<path class="st0" d="M123.5,15.9c0-2.5-1.2-3.6-3.8-3.6c-1.8,0-3.2,0.7-4.2,2.6l0.9,0.5c0.8-1.3,1.9-2.1,3.3-2.1
		c1.9,0,2.6,0.8,2.6,2.3v0.8c-4.7,1-7.3,1.6-7.3,4.7c0,1.9,1.4,3,3.1,3c1.7,0,2.8-0.5,4.1-1.6l0.2,1.4h1.3c-0.1-0.8-0.2-1.5-0.2-2.1
		V15.9z M122.2,21.2c-1.1,1.2-2.6,1.9-3.9,1.9c-1.2,0-2-0.7-2-1.9c0-1.4,0.7-2.5,5.9-3.7V21.2z"/>
	<path class="st0" d="M126.2,14.7L126.2,14.7l0-2.2h-1.3v11.4h1.3v-6.4c0-2.2,1.9-3.9,3.3-3.9h0.6v-1.3h-0.6
		C128.1,12.3,126.8,13.3,126.2,14.7z"/>
	<path class="st0" d="M138.6,12.5l-3.2,9.3h0l-3.1-9.3h-1.4l4,11.2c-0.6,2.3-1.6,3.2-2.6,3.2c-0.5,0-0.9-0.1-1.3-0.2v1.1
		c0.3,0.1,0.7,0.1,1.2,0.1c2.1,0,2.9-1,3.6-3.2l4.2-12.2H138.6z"/>
	<path class="st0" d="M44.5,33.4c0,0.6-0.3,1-0.9,1c-0.6,0-0.9-0.3-0.9-1v-4.7h-1.3v4.7c0,1.5,0.9,2.1,2.2,2.1
		c1.3,0,2.2-0.6,2.2-2.1v-4.7h-1.3V33.4z"/>
	<path class="st0" d="M49,30.2c-0.5,0-0.9,0.3-1.3,0.7v-0.6h-1.1v5.1h1.2v-3.8c0.3-0.2,0.5-0.5,0.8-0.5c0.3,0,0.4,0.2,0.4,0.6v3.7
		h1.2v-3.9C50.1,30.6,49.7,30.2,49,30.2z"/>
	<rect x="50.8" y="28.4" class="st0" width="1.2" height="1.1"/>
	<rect x="50.8" y="30.3" class="st0" width="1.2" height="5.1"/>
	<polygon class="st0" points="54.5,33.6 54.5,33.6 53.7,30.3 52.5,30.3 53.9,35.4 55.1,35.4 56.4,30.3 55.3,30.3 	"/>
	<path class="st0" d="M58.4,30.2c-1.1,0-1.9,0.7-1.9,1.8v1.7c0,1.1,0.7,1.8,1.9,1.8c1.2,0,1.8-0.6,1.9-1.7h-1.2
		c0,0.4-0.2,0.7-0.7,0.7c-0.4,0-0.7-0.2-0.7-0.7v-0.7h2.6V32C60.3,30.9,59.5,30.2,58.4,30.2z M59.1,32.2h-1.4v-0.3
		c0-0.4,0.2-0.7,0.7-0.7c0.5,0,0.7,0.3,0.7,0.7V32.2z"/>
	<path class="st0" d="M62.1,31L62.1,31l0-0.7h-1.1v5.1h1.2v-3.5c0-0.3,0.2-0.6,0.6-0.6c0.2,0,0.4,0.1,0.6,0.1v-1.3
		C62.7,30.2,62.4,30.5,62.1,31z"/>
	<path class="st0" d="M64.9,31.7c0-0.3,0.2-0.5,0.5-0.5c0.4,0,0.7,0.2,0.8,0.7l1-0.4c-0.3-0.8-0.9-1.3-1.8-1.3
		c-0.8,0-1.6,0.5-1.6,1.4c0,1.7,2.3,1.5,2.3,2.4c0,0.3-0.2,0.4-0.6,0.4c-0.5,0-0.8-0.3-0.9-0.8l-1.1,0.3c0.6,1.3,1.2,1.4,1.9,1.4
		c1,0,1.7-0.5,1.7-1.5C67.2,32.5,64.9,32.4,64.9,31.7z"/>
	<rect x="67.7" y="28.4" class="st0" width="1.2" height="1.1"/>
	<rect x="67.7" y="30.3" class="st0" width="1.2" height="5.1"/>
	<path class="st0" d="M71.1,34.1v-2.6h0.8v-1h-0.8v-1.4h-1.2v1.4h-0.5v1h0.5v3c0,0.7,0.5,1,1.3,1c0.2,0,0.4,0,0.7,0v-1
		c-0.1,0-0.1,0-0.2,0C71.3,34.5,71.1,34.4,71.1,34.1z"/>
	<path class="st0" d="M74.3,33.7L74.3,33.7l-0.8-3.4h-1.2l1.2,4.1c0.1,0.4,0.2,0.8,0.2,1.1c0,0.2-0.3,0.7-0.8,0.7
		c-0.1,0-0.2,0-0.3,0v1c0.1,0,0.3,0,0.4,0c1.2,0,1.7-0.4,2-1.8l1.4-5.1H75L74.3,33.7z"/>
	<path class="st0" d="M80.4,30.2c-1.2,0-1.9,0.6-1.9,1.9v1.4c0,1.3,0.7,1.9,1.9,1.9c1.2,0,1.9-0.6,1.9-1.9v-1.4
		C82.3,30.8,81.6,30.2,80.4,30.2z M81.1,33.9c0,0.4-0.3,0.6-0.7,0.6c-0.4,0-0.7-0.2-0.7-0.6v-2c0-0.4,0.3-0.6,0.7-0.6
		c0.4,0,0.7,0.2,0.7,0.6V33.9z"/>
	<path class="st0" d="M83.2,30.1v0.5h-0.5v1h0.5v3.9h1.2v-3.9H85v-1h-0.7V30c0-0.3,0.1-0.4,0.4-0.4h0.3v-1c-0.2,0-0.4-0.1-0.6-0.1
		C83.7,28.6,83.2,28.9,83.2,30.1z"/>
	<polygon class="st0" points="89.2,28.7 87.9,28.7 87.9,35.4 91.2,35.4 91.2,34.3 89.2,34.3 	"/>
	<path class="st0" d="M93.5,30.2c-1.2,0-1.9,0.6-1.9,1.9v1.4c0,1.3,0.7,1.9,1.9,1.9c1.2,0,1.9-0.6,1.9-1.9v-1.4
		C95.4,30.8,94.7,30.2,93.5,30.2z M94.2,33.9c0,0.4-0.3,0.6-0.7,0.6s-0.7-0.2-0.7-0.6v-2c0-0.4,0.3-0.6,0.7-0.6s0.7,0.2,0.7,0.6
		V33.9z"/>
	<path class="st0" d="M98.6,30.2c-0.5,0-0.9,0.3-1.3,0.7v-0.6h-1.1v5.1h1.2v-3.8c0.3-0.2,0.5-0.5,0.8-0.5c0.3,0,0.4,0.2,0.4,0.6v3.7
		h1.2v-3.9C99.7,30.6,99.3,30.2,98.6,30.2z"/>
	<path class="st0" d="M102.8,30.8c-0.6-0.4-0.9-0.6-1.2-0.6c-0.9,0-1.3,0.7-1.3,2v1.2c0,1.3,0.4,2,1.3,2c0.5,0,1-0.4,1.3-0.7h0v0.6
		h1.1v-6.7h-1.2V30.8z M102.8,34.3c-0.2,0.3-0.4,0.4-0.7,0.4c-0.3,0-0.6-0.2-0.6-1.2v-1.1c0-1,0.3-1.2,0.6-1.2
		c0.3,0,0.5,0.1,0.7,0.4V34.3z"/>
	<path class="st0" d="M106.4,30.2c-1.2,0-1.9,0.6-1.9,1.9v1.4c0,1.3,0.7,1.9,1.9,1.9c1.2,0,1.9-0.6,1.9-1.9v-1.4
		C108.3,30.8,107.6,30.2,106.4,30.2z M107.1,33.9c0,0.4-0.3,0.6-0.7,0.6c-0.4,0-0.7-0.2-0.7-0.6v-2c0-0.4,0.3-0.6,0.7-0.6
		c0.4,0,0.7,0.2,0.7,0.6V33.9z"/>
	<path class="st0" d="M111.5,30.2c-0.5,0-0.9,0.3-1.3,0.7v-0.6H109v5.1h1.2v-3.8c0.3-0.2,0.5-0.5,0.8-0.5c0.3,0,0.4,0.2,0.4,0.6v3.7
		h1.2v-3.9C112.6,30.6,112.2,30.2,111.5,30.2z"/>
	<path class="st0" d="M5.1,18.7c2.2-0.4,3.3,1.3,3.3,1.3c-1.3-7.5-5.2-2.2-5.2-2.2C5.8,12.8,0,8.7,0,8.7l3,11.8
		C3,20.5,3.2,19,5.1,18.7z"/>
	<path class="st0" d="M30.1,17.8c0,0-3.9-5.3-5.2,2.2c0,0,1.1-1.7,3.3-1.3c1.9,0.4,2.1,1.8,2.1,1.8l3-11.8
		C33.2,8.7,27.4,12.8,30.1,17.8z"/>
	<path class="st0" d="M9.2,24.4c0.9-0.3,1.7-0.6,2.7-1c-0.4-0.2-0.9-0.7-1.3-1c-1,0.4-2,0.7-2.6,0.9c-0.6,0.2-2.6,0.7-3.3-1.3
		c-0.5-1.4,0.5-2.3,1.5-2.3c0.4,0,0.7,0.1,0.7,0.2C6.4,20,6,20.4,6,20.9c0,0.5,0.4,0.9,0.9,0.9s0.9-0.4,0.9-0.9
		c0-0.4-0.2-0.7-0.5-0.9c-0.4-0.3-1-0.4-1.5-0.4c-1.2,0-2.2,1-2.4,2.2C3.3,23.1,4.8,26,9.2,24.4z"/>
	<path class="st0" d="M27.5,25.5H6.1c-1,0-1.7,0.5-1.5,1.1c0.2,0.6,1.1,1.1,2.2,1l8.2-0.6c1-0.1,2.7-0.1,3.7,0l8.2,0.6
		c1,0.1,2-0.4,2.2-1C29.2,26.1,28.5,25.5,27.5,25.5z"/>
	<path class="st0" d="M14.1,6.7c0-0.8,0.3-1.4,1.3-1.4c0.6,0,1.1,0.7,0.2,2c1-0.2,1.5-0.2,2.5,0c-0.9-1.2-0.3-2,0.2-2
		c0.9,0,1.3,0.5,1.3,1.4c0.5-0.3,1-1,1-1.8c0-0.7-0.5-1.4-1.3-1.4c-0.9,0-1.3,0.3-1.7,0.7c0.1-0.1,0.1-0.3,0.2-0.4
		c0.1-0.3,0.3-0.6,0.3-1c0-0.4-0.2-0.8-0.4-1.3C17.3,1.2,17,0.6,16.8,0c-0.2,0.6-0.6,1.2-0.8,1.7c-0.3,0.5-0.4,0.9-0.4,1.3
		c0,0.3,0.2,0.7,0.3,1C16,4,16,4.2,16.1,4.3c-0.4-0.5-0.8-0.7-1.7-0.7c-0.7,0-1.3,0.7-1.3,1.4C13.1,5.6,13.6,6.4,14.1,6.7z"/>
	<path class="st0" d="M27.4,19.6c-0.5,0-1.1,0.2-1.5,0.4c-0.3,0.2-0.5,0.5-0.5,0.9c0,0.5,0.4,0.9,0.9,0.9c0.5,0,0.9-0.4,0.9-0.9
		c0-0.5-0.4-0.9-0.9-0.9c0,0,0.4-0.2,0.7-0.2c1,0,2,0.9,1.5,2.3c-0.7,1.9-2.7,1.5-3.3,1.3c-0.5-0.2-2.2-0.8-3.4-1.3
		c1.8-1.5,3-3.7,3-6.2c0-4.4-3.6-7.9-8-7.9c-4.4,0-8,3.5-8,7.9c0,4.4,3.6,7.9,8,7.9c1.3,0,2.5-0.3,3.6-0.8c1.2,0.4,3,1.1,3.7,1.4
		c4.4,1.6,5.9-1.3,5.8-2.6C29.6,20.7,28.6,19.6,27.4,19.6z M10.8,16c0-4,2.7-7.3,5.9-7.3s5.9,3.3,5.9,7.3c0,2.3-0.9,4.4-2.3,5.8
		c-2.1-0.8-2.5-0.9-3.6-1.1c-2.5-0.5-3.4,0.4-3.8,1.1C11.7,20.4,10.8,18.3,10.8,16z M13.3,21.9c0.4-0.3,1.1-0.5,2.4-0.4
		c1,0.1,1.6,0.3,3.6,1.2c-0.7,0.4-1.6,0.6-2.4,0.6C15.5,23.3,14.2,22.8,13.3,21.9z"/>
</g>
</svg>
