<?xml version="1.0" encoding="utf-8"?>
<!-- Generator: Adobe Illustrator 21.0.2, SVG Export Plug-In . SVG Version: 6.00 Build 0)  -->
<svg version="1.1" id="Layer_1" xmlns="http://www.w3.org/2000/svg" xmlns:xlink="http://www.w3.org/1999/xlink" x="0px" y="0px"
	 viewBox="0 0 132 28.6" style="enable-background:new 0 0 132 28.6;" xml:space="preserve">
<style type="text/css">
	.st0{fill-rule:evenodd;clip-rule:evenodd;fill:#FFFFFF;}
</style>
<g>
	<path class="st0" d="M5.8,11.8c1.2,0.6,2.1,1.1,2.7,1.5c0.6,0.4,1.1,0.9,1.6,1.5c0.5,0.7,0.7,1.5,0.7,2.7c0,1.6-0.6,2.9-1.8,3.9
		c-1.2,1-2.5,1.5-4,1.5c-1,0-1.8-0.1-2.5-0.4c-0.7-0.2-1.5-0.6-2.4-1.1L0,17.4c0.4,1.2,0.9,2.2,1.7,3c0.8,0.8,1.8,1.3,3.1,1.3
		c1.3,0,2.2-0.4,2.8-1.1c0.6-0.7,0.8-1.6,0.8-2.4c0-1.1-0.3-1.9-0.8-2.3c-0.6-0.4-1.8-1.1-3.6-2c-1.3-0.7-2.3-1.4-2.9-2.1
		C0.4,11,0.1,10.1,0.1,9.1c0-1.5,0.6-2.6,1.7-3.4c1.1-0.8,2.4-1.2,3.8-1.2c1.5,0,2.8,0.3,3.8,1l0.1,3.5C9.3,8.1,8.8,7.3,8,6.6
		C7.3,5.8,6.3,5.5,5.2,5.5c-1,0-1.7,0.3-2.2,0.9C2.5,6.9,2.2,7.6,2.2,8.3C2.2,9,2.5,9.6,3,10.1C3.4,10.5,4.4,11.1,5.8,11.8L5.8,11.8
		z"/>
	<path class="st0" d="M17.4,11.1c-1.1,0.1-1.9,0.6-2.5,1.7c-0.5,1.1-0.8,2.4-0.7,3.9c0.1,1.5,0.4,2.7,1,3.7c0.6,1,1.5,1.5,2.5,1.4
		c1.1-0.1,1.9-0.6,2.5-1.6c0.6-1,0.8-2.3,0.8-3.9c-0.1-1-0.2-1.9-0.5-2.7c-0.3-0.8-0.7-1.4-1.2-1.9C18.9,11.3,18.2,11.1,17.4,11.1
		L17.4,11.1z M17.7,10.1c1.2,0,2.3,0.3,3.2,0.9c0.9,0.6,1.5,1.4,1.9,2.4c0.4,1,0.6,2,0.6,3.1c0,1-0.2,2-0.7,3
		c-0.5,1-1.2,1.8-2.1,2.4c-0.9,0.6-1.9,0.9-3,0.9c-1.9,0-3.3-0.6-4.3-1.9c-1-1.3-1.5-2.8-1.5-4.4c0-1.1,0.2-2.1,0.7-3.1
		c0.5-1,1.2-1.8,2.1-2.4C15.5,10.4,16.5,10.1,17.7,10.1L17.7,10.1z"/>
	<path class="st0" d="M39.7,8v2.4h3.6l-0.9,1.1h-2.8V19c0,1.8,0.8,2.7,2.4,2.7c0.5,0,0.8-0.1,1-0.2c0.2-0.1,0.4-0.3,0.7-0.5
		c0,0.4-0.3,0.8-0.8,1.2c-0.5,0.4-1.2,0.6-1.9,0.6c-1.1,0-2-0.3-2.7-1c-0.7-0.7-1-1.6-1-2.8l0-7.5h-1.1L39.7,8L39.7,8z"/>
	<path class="st0" d="M51.6,10.1c1.1,0,2,0.3,2.8,1c0.8,0.6,1.1,1.5,1.1,2.7v7.8c0,0.3,0,0.5,0.1,0.6c0.1,0.1,0.3,0.2,0.6,0.4h-3.6
		c0.5-0.3,0.7-0.6,0.7-1v-7c0-0.9-0.2-1.6-0.6-2.2c-0.4-0.5-1.2-0.8-2.2-0.8c-0.6,0-1.2,0.1-1.7,0.4c-0.5,0.3-0.9,0.6-1.2,1v8.6
		c0,0.2,0.1,0.4,0.2,0.6c0.1,0.1,0.3,0.3,0.6,0.5h-3.7c0.5-0.2,0.7-0.6,0.7-1V6.1c0-0.3-0.1-0.6-0.2-0.7C45,5.3,44.7,5.1,44.4,5
		l3.2-0.6V12C49.1,10.7,50.4,10.1,51.6,10.1L51.6,10.1z"/>
	<path class="st0" d="M83.1,10.1c1,0,1.9,0.3,2.7,1c0.8,0.6,1.2,1.5,1.2,2.7v7.9c0,0.2,0.1,0.4,0.2,0.6c0.1,0.2,0.3,0.3,0.5,0.4H84
		c0.5-0.3,0.7-0.6,0.7-1v-7.1c0-0.9-0.2-1.6-0.7-2.1c-0.4-0.5-1.1-0.8-2.1-0.8c-1.1,0-2.1,0.6-2.9,1.7c0,0.1,0.1,0.2,0.1,0.4v7.9
		c0,0.2,0.1,0.4,0.2,0.6c0.1,0.2,0.3,0.3,0.5,0.4h-3.7c0.5-0.3,0.7-0.6,0.7-1v-7.2c0-1.9-0.9-2.8-2.7-2.8c-1,0-1.9,0.4-2.7,1.3v8.6
		c0,0.2,0.1,0.4,0.2,0.6c0.1,0.1,0.3,0.3,0.6,0.4h-3.7c0.5-0.3,0.7-0.6,0.7-1v-9.8c0-0.4-0.1-0.6-0.3-0.7c-0.2-0.1-0.4-0.2-0.7-0.3
		l3.2-0.6v1.8c0.6-0.5,1.2-0.9,1.8-1.3c0.6-0.4,1.3-0.5,2.1-0.5c0.8,0,1.5,0.2,2.2,0.6c0.7,0.4,1.2,1,1.4,1.7
		c0.5-0.6,1.1-1.2,1.9-1.6C81.5,10.3,82.3,10.1,83.1,10.1L83.1,10.1z"/>
	<path class="st0" d="M104.3,8v2.4h3.6l-0.9,1.1h-2.8V19c0,1.8,0.8,2.7,2.4,2.7c0.5,0,0.8-0.1,1-0.2c0.2-0.1,0.4-0.3,0.7-0.5
		c0,0.4-0.3,0.8-0.8,1.2c-0.5,0.4-1.2,0.6-1.8,0.6c-1.1,0-2-0.3-2.7-1c-0.7-0.7-1-1.6-1-2.8v-7.5h-1.1L104.3,8L104.3,8z"/>
	<path class="st0" d="M113.9,11.1c-1.1,0.1-1.9,0.6-2.5,1.7c-0.5,1.1-0.8,2.4-0.7,3.9c0.1,1.5,0.4,2.7,1,3.7c0.6,1,1.5,1.5,2.5,1.4
		c1.1-0.1,1.9-0.6,2.5-1.6c0.6-1,0.8-2.3,0.8-3.9c-0.1-1-0.2-1.9-0.5-2.7c-0.3-0.8-0.7-1.4-1.2-1.9
		C115.3,11.3,114.7,11.1,113.9,11.1L113.9,11.1z M114.2,10.1c1.3,0,2.3,0.3,3.2,0.9c0.9,0.6,1.5,1.4,1.9,2.4c0.4,1,0.6,2,0.6,3.1
		c0,1-0.2,2-0.7,3c-0.5,1-1.2,1.8-2.1,2.4c-0.9,0.6-1.9,0.9-3,0.9c-1.9,0-3.3-0.6-4.3-1.9c-1-1.3-1.5-2.8-1.5-4.4
		c0-1.1,0.2-2.1,0.7-3.1c0.5-1,1.2-1.8,2.1-2.4C112,10.4,113,10.1,114.2,10.1L114.2,10.1z"/>
	<path class="st0" d="M127.4,10.1c0.7,0,1.3,0.1,1.9,0.4c0.6,0.3,1.1,0.7,1.5,1.3c0.4,0.5,0.5,1.2,0.5,2v7.8c0,0.2,0,0.4,0.1,0.5
		c0.1,0.1,0.3,0.3,0.6,0.5h-3.6c0.5-0.2,0.7-0.6,0.7-1v-6.9c0-2-0.9-3.1-2.8-3.1c-0.5,0-1,0.1-1.5,0.4c-0.5,0.3-0.9,0.6-1.2,1v8.6
		c0,0.2,0.1,0.4,0.2,0.6c0.1,0.2,0.3,0.3,0.5,0.4h-3.7c0.4-0.2,0.7-0.6,0.7-1v-9.8c0-0.5-0.3-0.9-0.9-1.1l3.2-0.6V12
		c0.4-0.5,1-0.9,1.7-1.3C126,10.3,126.7,10.1,127.4,10.1L127.4,10.1z"/>
	<path class="st0" d="M99.7,13.6c-0.3-0.8-0.7-1.5-1.2-2c-0.5-0.5-1.1-0.9-1.6-1.1c-0.6-0.2-1.2-0.4-1.8-0.4c-0.8,0-1.5,0.2-2.1,0.5
		c-0.6,0.3-1.1,0.7-1.5,1.1v-1.6l-3.2,0.7c0.6,0.2,0.9,0.5,0.9,1.1v15.7c0,0.5-0.2,0.8-0.7,1h3.7c-0.5-0.2-0.7-0.5-0.7-1V12.9
		c0.3-0.4,0.7-0.7,1.1-0.9c0.5-0.2,1-0.4,1.5-0.4c0.9,0,1.7,0.4,2.5,1.1c0.7,0.7,1.1,2,1.1,3.8c0,1.7-0.3,3-1,3.9
		c-0.7,0.9-1.6,1.4-2.8,1.4c-0.9,0-1.3-0.2-2-0.8l0.6,1.6c0.5,0.1,1.1,0.2,1.7,0.2c1.9,0,3.3-0.7,4.4-2c1.1-1.3,1.6-2.8,1.6-4.4
		C100.2,15.4,100,14.5,99.7,13.6L99.7,13.6z"/>
	<path class="st0" d="M31.3,21c-0.4,0.2-0.9,0.3-1.5,0.3c-0.8,0-1.4-0.3-1.9-0.9c-0.5-0.6-0.8-1.4-0.8-2.5v-7.8l-3.2,0.6
		c0.6,0.2,0.9,0.5,0.9,1.1v6.1c0,1.7,0.4,3,1.3,3.8c0.8,0.8,1.8,1.2,2.8,1.2c1.1,0,2.2-0.4,3.1-1.1l0.5-1.5
		C32,20.5,31.7,20.8,31.3,21L31.3,21z"/>
	<path class="st0" d="M34.9,20.5V10.1l-3.2,0.6c0.3,0.1,0.5,0.2,0.7,0.3c0.2,0.1,0.3,0.4,0.3,0.7v8.1l0,1.1c0,0,0,0,0,0
		c0,0.5,0.1,0.9,0.2,1.2c0.1,0.2,0.4,0.5,0.7,0.7l2.3-0.8C35.2,21.9,34.9,21.4,34.9,20.5L34.9,20.5z"/>
	<path class="st0" d="M67,21.6c-0.1-0.2-0.1-0.5-0.1-0.8v-7.1c0-1.4-0.4-2.3-1.3-2.8c-0.8-0.5-1.8-0.8-2.9-0.8
		c-1.4,0-2.8,0.4-4.2,1.3l0.1,3.3c0.4-1.1,0.8-2,1.4-2.6c0.6-0.6,1.4-1,2.4-1c0.8,0,1.3,0.2,1.7,0.7c0.4,0.4,0.6,1,0.6,1.6
		c0,0.7,0,1-0.1,1.1c-0.2,0.3-0.6,0.5-1,0.6c-0.4,0.1-1.2,0.4-2.2,0.7c-1,0.3-1.8,0.6-2.2,0.8c-1.2,0.7-1.8,1.7-1.8,3
		c0,0.7,0.3,1.4,0.8,2.2c0.5,0.7,1.3,1.1,2.4,1.1c1.2,0,2.4-0.4,3.4-1.3l0.5-1.4c-0.8,0.8-1.7,1.1-2.8,1.1c-0.6,0-1.1-0.2-1.5-0.6
		c-0.4-0.4-0.6-0.9-0.6-1.6c0-0.6,0.2-1.1,0.6-1.5c0.4-0.4,0.9-0.7,1.6-1c1.5-0.5,2.5-0.8,2.8-1V20c0,0,0,0.9,0,0.9
		c0,0.6,0.1,1,0.2,1.3c0.1,0.2,0.4,0.5,0.7,0.7l2-0.9C67.3,21.9,67,21.8,67,21.6L67,21.6z"/>
	<path class="st0" d="M53,0.6v4.3c0,0.7,0.2,1.8,1.7,1.8c1.4,0,1.8-0.9,1.8-1.8l0-4.3c0-0.2-0.1-0.4-0.3-0.5l1.1,0
		C57.1,0.2,57,0.3,57,0.6l0,4.3c0,1.7-1.1,2.3-2.3,2.3c-1.1,0-2.6-0.5-2.6-2.3l0-4.3c0-0.2-0.2-0.4-0.3-0.5l1.6,0
		C53.2,0.2,53,0.3,53,0.6L53,0.6z"/>
	<path class="st0" d="M63.4,0.6c0-0.2-0.1-0.4-0.3-0.5l1.1,0c-0.2,0.1-0.3,0.2-0.3,0.5v6.6c0,0-4.9-5.9-4.9-6l0,5.3
		c0,0.2,0.1,0.4,0.3,0.5h-1.1c0.2-0.1,0.3-0.2,0.3-0.5V0.9c0-0.3,0-0.3-0.1-0.5c-0.1-0.1-0.2-0.3-0.5-0.4l1.4,0l4,4.9V0.6L63.4,0.6z
		"/>
	<path class="st0" d="M66.7,0.1c-0.2,0.1-0.3,0.2-0.3,0.5v6c0,0.2,0.1,0.4,0.3,0.5h-1.5c0.2-0.1,0.3-0.2,0.3-0.5v-6
		c0-0.2-0.1-0.4-0.3-0.5L66.7,0.1L66.7,0.1z"/>
	<path class="st0" d="M72.5,0.6c0.1-0.2,0.1-0.4-0.2-0.5h1.1c-0.3,0.2-0.2,0.2-0.4,0.5c-0.2,0.4-2.5,6.7-2.5,6.7S67.9,1,67.7,0.6
		c-0.1-0.2-0.2-0.4-0.5-0.5h1.8c-0.3,0.1-0.3,0.3-0.2,0.6c0,0,1.8,4.7,1.8,4.7S72.5,0.6,72.5,0.6L72.5,0.6z"/>
	<path class="st0" d="M77.7,1c-0.2-0.2-0.4-0.4-0.9-0.4c-0.2,0-1.7,0-1.7,0v2.3h1.7c0.1,0,0.3-0.2,0.4-0.3v1.1
		c-0.1-0.1-0.2-0.3-0.4-0.3h-1.7v3c0.2,0,0.7,0.1,1.2,0.1c1.1,0,1.5,0,1.9-0.6L77.9,7h-4.1c0.2-0.1,0.3-0.2,0.3-0.5v-6
		c0-0.2-0.1-0.4-0.3-0.5l3.8,0L77.7,1L77.7,1z"/>
	<path class="st0" d="M79.8,0.5v2.8c0,0,0.3,0,0.6,0c0.8,0,1.5-0.4,1.5-1.5c0-0.5-0.3-1.3-1.4-1.3C80.2,0.5,79.8,0.5,79.8,0.5
		L79.8,0.5z M81.4,3.5c0.5,0.1,0.8,0.5,1,0.8c0,0,1.1,1.9,1.5,2.3C84.1,6.8,84.5,7,84.5,7l-1,0c-0.4,0-0.7-0.3-0.8-0.5
		c-0.5-0.8-0.9-1.3-1.2-1.9c-0.3-0.4-0.5-0.8-1-0.8c-0.2,0-0.6,0-0.6,0v2.7c0,0.2,0.1,0.4,0.3,0.5h-1.5c0.2-0.1,0.3-0.2,0.3-0.5v-6
		c0-0.2-0.1-0.4-0.3-0.5h1.9c2,0,2.5,1.1,2.5,1.7C83,2.9,82,3.4,81.4,3.5L81.4,3.5z"/>
	<path class="st0" d="M88.7,5c0,1.3-1.2,2.1-2.2,2.1c-0.9,0-1.5-0.4-1.9-0.6l0-1.5c0.2,0.7,0.8,1.7,1.8,1.7c1.1,0,1.4-0.9,1.4-1.4
		c0-1-0.7-1.2-1.7-1.7c-1-0.5-1.5-1-1.5-1.8c0-1.2,1.1-1.8,2.1-1.8c0.4,0,1,0.1,1.5,0.4l0.1,1.3c-0.1-0.5-0.7-1.3-1.6-1.3
		c-0.9,0-1.1,0.6-1.1,1.1c0,0.6,0.4,0.9,1.4,1.4C87.8,3.3,88.7,3.7,88.7,5L88.7,5z"/>
	<path class="st0" d="M90.9,0.1c-0.2,0.1-0.3,0.2-0.3,0.5v6c0,0.2,0.1,0.4,0.3,0.5h-1.5c0.2-0.1,0.3-0.2,0.3-0.5v-6
		c0-0.2-0.1-0.4-0.3-0.5L90.9,0.1L90.9,0.1z"/>
	<path class="st0" d="M94.6,0.6v6c0,0.2,0.1,0.4,0.3,0.5h-1.5c0.2-0.1,0.3-0.2,0.3-0.5v-6c-0.8,0-1.7,0.1-1.7,0.1
		c-0.2,0-0.4,0.2-0.5,0.4v-1h5.3l0,1c-0.1-0.2-0.3-0.4-0.5-0.4C96.3,0.7,95.4,0.6,94.6,0.6L94.6,0.6z"/>
	<path class="st0" d="M102.7,0.1c-0.3,0.1-0.5,0.3-0.6,0.6l-1.6,3.1v2.8c0,0.2,0.2,0.4,0.4,0.5h-1.7c0.2-0.1,0.4-0.2,0.4-0.5V3.8
		l-1.9-3.2c-0.2-0.2-0.3-0.3-0.6-0.5l2,0c-0.2,0.1-0.4,0.2-0.2,0.6l1.4,2.5l1.4-2.6c0.1-0.3,0.1-0.4-0.2-0.5L102.7,0.1L102.7,0.1z"
		/>
	<path class="st0" d="M106.9,3.4c0,2.2,1.1,3.2,2.2,3.2c1.3,0,2.1-1.2,2.1-3c0-2-0.8-3.2-2.1-3.2C107.8,0.4,106.9,1.5,106.9,3.4
		L106.9,3.4z M109,7.1c-1.7,0-3.2-1.6-3.1-3.6c0-1.6,1.2-3.4,3.2-3.4h0.1l0.1,0c1.4,0,3.1,1.3,3.1,3.6C112.2,5.9,110.5,7.1,109,7.1
		L109,7.1z"/>
	<path class="st0" d="M114.5,7h-1.5c0.2-0.1,0.3-0.2,0.3-0.5v-6c0-0.2-0.1-0.4-0.3-0.5l4,0l0,0.9c-0.1-0.2-0.4-0.4-0.9-0.4
		c-0.2,0-1.9,0-1.9,0l0,2.3h1.7c0.1,0,0.3-0.2,0.4-0.3v1.1c0-0.1-0.2-0.3-0.4-0.3h-1.7l0,3.1C114.2,6.8,114.3,6.9,114.5,7L114.5,7z"
		/>
</g>
</svg>
